<mxfile host="Electron" modified="2024-03-15T19:27:56.726Z" agent="Mozilla/5.0 (Macintosh; Intel Mac OS X 10_15_7) AppleWebKit/537.36 (KHTML, like Gecko) draw.io/24.0.4 Chrome/120.0.6099.109 Electron/28.1.0 Safari/537.36" etag="z7kk-qvj7O8Z7yMOCPUe" version="24.0.4" type="device">
  <diagram name="Page-1" id="bg43RJI9kep5l1GDk2XP">
    <mxGraphModel dx="1000" dy="917" grid="1" gridSize="10" guides="1" tooltips="1" connect="1" arrows="1" fold="1" page="1" pageScale="1" pageWidth="827" pageHeight="1169" math="0" shadow="0">
      <root>
        <mxCell id="0" />
        <mxCell id="1" parent="0" />
        <mxCell id="ZqxARmuDzgmsSBBQvIFt-35" value="" style="rounded=0;whiteSpace=wrap;html=1;fillColor=#dae8fc;strokeColor=#6c8ebf;align=left;" vertex="1" parent="1">
          <mxGeometry x="160" y="255" width="650" height="245" as="geometry" />
        </mxCell>
        <mxCell id="ZqxARmuDzgmsSBBQvIFt-23" style="edgeStyle=orthogonalEdgeStyle;rounded=0;orthogonalLoop=1;jettySize=auto;html=1;exitX=0.5;exitY=0.5;exitDx=0;exitDy=0;exitPerimeter=0;" edge="1" parent="1" source="ZqxARmuDzgmsSBBQvIFt-1" target="ZqxARmuDzgmsSBBQvIFt-22">
          <mxGeometry relative="1" as="geometry" />
        </mxCell>
        <mxCell id="ZqxARmuDzgmsSBBQvIFt-38" value="Prompt" style="edgeLabel;html=1;align=center;verticalAlign=middle;resizable=0;points=[];" vertex="1" connectable="0" parent="ZqxARmuDzgmsSBBQvIFt-23">
          <mxGeometry x="0.1333" y="2" relative="1" as="geometry">
            <mxPoint as="offset" />
          </mxGeometry>
        </mxCell>
        <mxCell id="ZqxARmuDzgmsSBBQvIFt-1" value="User" style="shape=umlActor;verticalLabelPosition=bottom;verticalAlign=top;html=1;outlineConnect=0;" vertex="1" parent="1">
          <mxGeometry x="50" y="77.5" width="30" height="60" as="geometry" />
        </mxCell>
        <mxCell id="ZqxARmuDzgmsSBBQvIFt-20" style="edgeStyle=orthogonalEdgeStyle;rounded=0;orthogonalLoop=1;jettySize=auto;html=1;exitX=0.5;exitY=0;exitDx=0;exitDy=0;" edge="1" parent="1" source="ZqxARmuDzgmsSBBQvIFt-2" target="ZqxARmuDzgmsSBBQvIFt-8">
          <mxGeometry relative="1" as="geometry">
            <mxPoint x="430" y="185" as="targetPoint" />
            <Array as="points">
              <mxPoint x="450" y="215" />
              <mxPoint x="395" y="215" />
            </Array>
          </mxGeometry>
        </mxCell>
        <mxCell id="ZqxARmuDzgmsSBBQvIFt-21" value="register as service" style="edgeLabel;html=1;align=center;verticalAlign=middle;resizable=0;points=[];" vertex="1" connectable="0" parent="ZqxARmuDzgmsSBBQvIFt-20">
          <mxGeometry x="0.25" y="1" relative="1" as="geometry">
            <mxPoint as="offset" />
          </mxGeometry>
        </mxCell>
        <mxCell id="ZqxARmuDzgmsSBBQvIFt-32" style="edgeStyle=orthogonalEdgeStyle;rounded=0;orthogonalLoop=1;jettySize=auto;html=1;exitX=1;exitY=0.5;exitDx=0;exitDy=0;entryX=0;entryY=0.5;entryDx=0;entryDy=0;startArrow=classic;startFill=1;" edge="1" parent="1" source="ZqxARmuDzgmsSBBQvIFt-2" target="ZqxARmuDzgmsSBBQvIFt-9">
          <mxGeometry relative="1" as="geometry" />
        </mxCell>
        <mxCell id="ZqxARmuDzgmsSBBQvIFt-34" value="generate SQL&lt;div&gt;&amp;amp; format output&lt;/div&gt;" style="edgeLabel;html=1;align=center;verticalAlign=middle;resizable=0;points=[];" vertex="1" connectable="0" parent="ZqxARmuDzgmsSBBQvIFt-32">
          <mxGeometry x="-0.4337" y="-1" relative="1" as="geometry">
            <mxPoint x="29" y="-1" as="offset" />
          </mxGeometry>
        </mxCell>
        <mxCell id="ZqxARmuDzgmsSBBQvIFt-55" style="edgeStyle=orthogonalEdgeStyle;rounded=0;orthogonalLoop=1;jettySize=auto;html=1;exitX=0.5;exitY=1;exitDx=0;exitDy=0;entryX=0.5;entryY=0;entryDx=0;entryDy=0;" edge="1" parent="1" source="ZqxARmuDzgmsSBBQvIFt-2" target="ZqxARmuDzgmsSBBQvIFt-52">
          <mxGeometry relative="1" as="geometry">
            <Array as="points">
              <mxPoint x="450" y="430" />
              <mxPoint x="567" y="430" />
            </Array>
          </mxGeometry>
        </mxCell>
        <mxCell id="ZqxARmuDzgmsSBBQvIFt-2" value="Agent" style="shape=image;verticalLabelPosition=bottom;labelBackgroundColor=default;verticalAlign=top;aspect=fixed;imageAspect=0;image=data:image/png,iVBORw0KGgoAAAANSUhEUgAAAu0AAAMgCAYAAACXv1y5AAAACXBIWXMAACnuAAAp7gFrb7MUAAAgAElEQVR4nOzdfXBc13nn+efchmQTaiRymcwAKVZBaxF0kSvFBkN7nB0RSM0ktkFkyvZYI3KqdiSvxFSJzougldfrrESlVi8jWvGMqLEteTaUIslVO6JGKnkqIblbU6kIaM/EM5YJO8RSMUFvxN1eAxnSsWxC4AvQ9+wfjQb65Xb37b7n9rnn3u8nlRLQffveY4uyfnjwnOcorbUAQNIU5opT699ouUWLbKt6e6vW8v7aT+j3aC2berM6uEApWRVRSzWviVwRJT+su+5bVd++vueWred7skAA6IAitAPolcJc8TYR2S1a/p4W+TUREdHyQS3yXhERrfWNNtcHVFNKLouoq2tf/0BERImcEyVzIrKw55atx6wuEECmENoBGFMVysuV8bVArrX+RRFRttcHxEEp9U75r2vBvly5J9QDMIrQDqAjhbnisIh8RrSMa5H3aS0fojUFCFZp0VFK3haRn60F+jf33LL125aXBsAxhHYAgerC+U1ay01UzAFzlFLvKCU/EZEiYR5AO4R2AOW2Fi2TWuTX1irnea2lz/a6gCxaC/NvK5HviZL/QJsNABFCO5A59QGd6jmQfAR5AIR2IOUKc8Up0TKutXxMi95MBR1Ih7Ug/wMl8pei5BuMqgTSjdAOpEhhrjgsWu6tqqIzQhHICKXkslLqx0rkDVHyAv3xQLoQ2gGHVYX0T2qtP8gEFwAVSsmqUuo8IR5IB0I74JjCXHFKa7mLkA6gE3Uh/lHaaQC3ENqBhCvMFfeJlv1ay8d8rQdtrwdAOqy10/xQKXlxzy1bj9heD4DWCO1AAhVOF5/QIv9Uaz3MxlEAPaA9pf5WKTlOKw2QTIR2IAHWxjA+QDUdQBJUVeEPM14SSAZCO2BJpe3F1/oT9KYDSKqqXvh/t+fWrX9gez1AVhHagR4qzBX3aS1f0lrfQttLd5QSUXVnQSmvybWiRHFsVCZoEWn27zOt1y6o4vPvvm5pz1P/NwEe6D1COxAzgnprSm1E8Er4rg7bSpWvAeKidW3gXw/0ei3wCyG/CQI80EOEdiAGBPUNXrk0vl4hr+RvzyOIwz1a63LIl42gr30RLVoy/q9TAjwQM0I7YEhlM2kWe9Q9tRbG1VpIF0I5sqlStS8He53VQF8O8EoeZBMrYA6hHYhg7UTSQ76Wz2qtb7S9nrh5SonyNirmBHMgvEqY9yuhXjfvw0+LtU2s/1EpeYgxkkA0hHagC2unkv6u7+sPiEjqkqtSSryqyjnhHIiP7+v1dhvtp7d/Xin1jqfkNU5jBbpDaAdCqmp/+a009alXArpSVM+BpNBai69TG+RpnwG6QGgH2iicLj6htXwuLYceVVpcqKADbtFai+9XAn06+uSVklVPqT8TJVNU34HWCO1AgMJc8Tat5TGt9T9wuaquVCWkb1TTAaSH75cDfCXMu8zz1I+ovgPNEdqBKlW96jfbXks3akM6BwsBWZOGEK+UXPaU+t/pfQdqEdqReRsTYPRdLlbVPa/c5kJIB1BvI8Q72U6jPU/9QCn5PSbPAIR2ZFilBcb39Zg4NAFGKSWeJ5LzFO0uAEKrjJv0/fL/u8RTalF58uU9t2w9YnstgC2EdmSOiy0wOa/c8pJj4ygAQ1xspam0zuy5desB22sBeo3QjswonC4+4Wu514VDkCqjF6mmA+gFrWtbaZKu6tCmu+h7R1YQ2pF6hdPFoy70qytVDumeR286ALtKvjNtNNrz1AwnriILCO1IpbXNpUeSfhASQR1A0lXCeynhAX5tZOTnCO9IK0I7UqUwVxzWWl5M8uZSgjoAV7kQ4AnvSCtCO1Ih6WGdoA4gbZLeQsNhTUgbQjucluSwzmZSAFlR8rWUSjqRU2iUUu94nvyvjIuE6wjtcFKSw3qlou4xnhFAxmgtUvL9RB7mtBbe/zFtM3AVoR1OSWpYV0pJLsccdQCoSGr/Oz3vcBWhHc6YOV18I2lhPeeVwzrtLwDQXKmkpeT7iaq+E97hGkI7Ei9pc9apqgNAd5JYffc89X2l5NMc0oSkI7QjsconmOovJCWsU1UHAHMSVn2vHNLECatILEI7EqcwV5zyfflDrfWNtteilEjO8ySXI6gDQBz8tckzfjLyiM556vk9t249YHshQD1COxKjMFe8TWt5wff1zbbX4q21wDABBgB6Q2uRUslPROuMUrLqeep/YkwkkoTQDuuqJsKM215LuQXG4wAkALBotZSMsZGMiUSSENphVeF08WjJ13eL5Ykw5Y2lhHUASJLyoU32+97ZrIokILTDinLfuv4XWssmW2ugXx0A3JCQvned89S/33Pr1s/YXASyi9COnlprhflzm33rSonkch4jGwHAMZVxkb7Fvnel5LLnqf+Ffnf0GqEdPVM4XXy95OtPiaVWGOarA0A6JGHT6trhTP+Ilhn0CqEdsbPdCsMkGABIpwSEd1pm0DOEdsTGdisMYR0AssF2eKdlBr1AaEcsbE6FIawDQDbZDu9MmUGcCO0wqjBXvM335U9tnGbKBlMAgIjd8K6UrHpKfWXPrVv/oOcPR6oR2mHMzOniG76vx6TH1XXCOgAgiM1RkZ5Si8qTj1F1hymEdkRWmCvu8339JzY2mvblmLMOAGjNYnhnoyqMIbQjkrXq+nivn5vLKenLeb1+LADAYbZOWFVKveN58o/33LL12719MtKE0I6u2Kqu5zwluZwniuI6AKBLpZKW1ZLf68dSdUckhHZ0zEZ13VNK+vqUKNI6AMCQ1ZIvpVJvcxBVd3SL0I7QbFTXlSr3rTO+MZvmz56XpaV3RURkYeGCLCxcqH3v0rs11y8sXJDFxYs9XSPcsW1kWAby/TWvDf7yFhka2rL+/cjITTIwUL5mcKj2PaST1uXw7vd20gxVd3SM0I5QbFTX6VtPr4WFC7K4cEEuXVqW+fm3RURk9ntnNt4jeCNhKoE/P3CDjGwfFhGRXbt2ikg56OcH+lt9HA7w/XLLTC9jERNm0AlCO1qyMXc95ynp6yOsu65SJT916owsXVqW+bNvE8iRapVgP/qrOyWfv0G2bx+mWu8gC/3uOuepLzPXHe0Q2tFUr081VUpJHyeZOmf21Jn11pXZ750hmAMBto0My9DQFhnZPiwjIzetf43kWl3t7eFMnqd+pJT8I6ruaIbQjgaFueKw9uU7vtaDvXom89aTb2mtleXUqTMyf/a8LCxckHPz/LsFiGJ0dIcM/vIWGRm5SbZvH5bRtZYbJEO5ZUZLr7KSUrLqeeq/33PL1mM9eSCcQmhHjcJcccr39R9pLX29eJ7nKbmOVphEmj11Zj2gz599m+o50CPbRobXK/IE+WTodcuM56npsVu3/nrPHggnENqxrpebTZkKkywLCxdqQjoVdCBZRkd3yMj2m2R0107ZtWsnG18t6PWUmbXRkB+mXQYVhHZIYa447Pvy/V5tNmUqjH3zZ8/LqVNnZPbUGarogIMGBzfL6K+WA/zorp1sdu2hHk+Z0bmc+h/33LL1SE+ehkQjtGdcYa44VSrpfyU92GyqlJLrOCDJiupKemH6TVlaWra9JAAGVUL82NhHqMT3SC8PZqJdBiKE9kzrZTsM1fXem5l+U2ZPnZGZ6e9SSQcyZtvIsIyN716vxCMevay60y4DQnsG9bIdxlPlmesU1+O3sHBhPagXZt60vRwACZHP98vorp0yNr5bxsY+QhU+Bj2sutMuk2GE9ozpZTsMYxzjN3/2vJw4Pi2nTp1h8yiAULaNDMveyXEZG99NL7xBvay60y6TTYT2DCmcLr5e8vWn434O1fV40fYCwJRtI8Oya9dO2Ts5zmFPhvSq6u4ptag8+RjtMtlBaM+AXh6WRO96PGam35SZme+yiRRAbAYHN8vY+EcI8Ab0qurOYUzZQmhPucJccZ/v6z/RWjbF+Rwmw5hXaX05cXyaoA6gpwYHN8ve3xqXvZPjtNBE0KOqu8556vk9t249EPeDYBehPcUKp4tPlHz9P0vM/etU181ZWLhQDup/Nk3rC4BEqPTAT06Os4m1C76vZWU1/tNUPU99f+zWraOxPwjWENpTqhf965xqasbSpWWZmfmuHHv5JJtJASTanrHd65tY0ZmVFV/8mDMXYyHTjdCeMoW54rDW8ue+r2+O8zmep+S6PqrrUcyeOiPHj0/LyeMztpcCAB3J5/tl7+S43LF/gvaZDpRK5V73ONHnnl6E9hQpz1/Xb8Xdv97X50mO6npXli4ty/Hj0/LKyydofwGQCttGhmXf/gnZO9mTs/qcp7WWlVUtMecvnfPUl/fcuvUP4nwIeovQnhKFueK+Ukn/W4mxf53Npt2jqg4g7ai+d2Z11ZeSH28Gy3nqW3tu3fqZWB+CniG0p0DhdPFoydd3S4yBPeeVZ68jvEqv+nN//CpVdQCZMjq6Q+7Yv5fe9zZKvpbVmDepep760ditW7fF+hD0BKHdcb3YcEo7TGcWFi7IKy+fZFQjgMwbHNwsd+zfy+SZFnrRLsMG1XQgtDts5nTxXJwbTmmH6QwtMAAQjNaZ9uJul1FKLnue+vieW7Z+O7aHIFaEdgeVN5zK97XWN8b1DNphwpuZflNeefmEzM6+ZXspAJB4E5NjMjk5LqO7dtpeSuL0oF1G53LqnzFZxk2Edsf0YkIM7TDhnDg+Tb86AHRpdHSH3PPbtxPe65TbZXyJMZ5xgqqjCO0OiXtCjFIi1/V5tMO0wOZSADCLkZHBVlZ98WNsl8l56jmCu1sI7Y6IO7B7Ssl119EO08zSpWU5duyEvPLySTaXAkAMBgc3yz2/fTvhvcpqyZdSKb6c5nnq+2O3bh2N7QEwitDugLWRjvfEdf9cTklfjsAehLAOAL1FeK/l++V2mbgwEtIdhPaEizuw078ejLAOAHYR3jfEPRbSU2pRefIxRkImG6E9wWZOF9/wfR3b/1pdfx3960HYYAoAyTE4uFkeevggG1ZFZGXFFz+m3LY2EnIHwT25CO0JFecMdqWUXE//egPCOgAkF9NmyuLscye4JxuhPYHiDOzMX280e+qMHHnqJTk3z/9GAUDSjY7ukAcfPpjpQ5rinOe+Ftz/B2a5Jw+hPWFiDexsOK0xf/a8PP3UixyKBAAOmpgck6mpuyQ/0G97KVbEvEGVQ5gSiNCeEHEfmsSG0w1Ll5blyJEX5eTxGdtLAQBEkM/3yx37J2Tfvr2ZDO8xb1AluCcMoT0B4g7sbDjd8NzRV5kIAwApk/VJM9dWfIJ7BhDaLYszsHPC6YaZ6Tfl6adeZJMpAKTY6OgOue/+u2Rk+7DtpfTc6qovpXhOUCW4JwSh3aJ4AzsTYkREFhYuyOOPPEvfOgBkSFb73Qnu6UZotyTOwO55Sq7L+ISYyuFIzx99zfZSAAAW5PP9cveB22Xf/gnbS+mpGCfLENwtI7RbEGdgZ6QjrTAAgA1ZbJkhuKcTob3HYg3sGR/puLBwQZ5+6iUpzLxpeykAgIS5Y9+E3HPg9sy0zGit5doKwT1NCO09FGdgz/pIx2Mvn5Tnj77KVBgAQFODg5vloYcPZuZUVYJ7uhDae4TAHg8OSAIAdGrP2G556NDBTFTdy7PcfYkh7hHce4zQ3gME9ng8d/RVNpoCALqSz/fLg4cOytj4bttL6YmYZrkT3HuI0B6zOAN7Vg9Nmj97Xh579Fk5N3/e9lIAAI7LUtWd4O42QnvMpv/q/10msJtDdR0AYFqWqu4Ed3cR2mM0c7p4zvf1zabvm8XATnUdABC3rFTdCe5uIrTHhMBuzrGXT8q/PvKS7WUAADIgK1X3OE5PVUpWPU9t23PLVipsMSC0x4DAbsbCwgV5/JFnmQwDAOi5LMx1jym4X/Y8tYPgbh6h3bCZ08U3fF+Pm75v1gL7zPSb8vijzzJ3HQBgzbaRYXno0MFUn6ZKcHcHod2gwuni0ZKv7zF93ywF9qVLy3LkyIty8viM7aUAACAiIr8/dafs2z9hexmxiSe4q3fGf2Xr+4zeNOMI7YYQ2KNjsykAIKlGR3fI4Se/kNp2mTiCu+epH43dunWb0ZtmGKHdgMJccV+ppF82fd8sBfZjL5+U54++SjsMACCx8vl+OfzkAzK6a6ftpcSC4J5shPaI1gL7vxURo+k6K4F96dKyPPbos1KYedP2UgAACOXuA5+Vew7cbnsZsYgjuOc89dyeW7ceMHrTDCK0R1CYKw6XSvpvhMDeFdphAACuSnO7zMqKL77hfEhwj47Q3qXCXHHY9/Vbpk87zUpgP3F8Wp5+6iXaYQAAzhoc3CyHn/xCKqfLxHEAUy6n9nP4UvcI7V2a/qviT7XWN5q8Z1YC+2OPPst0GABAajx46F7ZO2l82rN1MQR3Tk2NgNDehTgOT8pCYF+6tCy/8/lHaIcBAKTOxOSYTE3dlbp2GdPBnVNTu0do71DhdPH1kq8/bfKefX2e5Lx0B/b5s+fldz//CO0wAIDU2jYyLIeffECGhrbYXopRMQR3Dl/qgmd7AS5Zm8VOYO/QiePT8rk7v0RgBwCk2rn58/K5f/4lmT+brix6XZ/ZuKi1bNJa/tzoTTOASntIcYx2zEJgp38dAJBFaetz11rLtRXf6D09T02P3br1143eNMUI7SHEMdoxl1PSl0vvLzqWLi3Ll774FZmdfcv2UgAAsOKOfRNy3/132l6GMXEEd0ZBhkdobyOO0Y45T0mf4V81JQnz1wEAKNsztlseOnQwNRtUS76W1VWjwZ2JMiER2tswPSnG85Tx3rAkYcMpAAC10rZBNabg/t+wMbW19KZHAwqni6+bDOxKpTuws+EUAIBGadugmvOU5HJG9+Qp39f007aR3gQZUeF08QmTk2KUKs9iT6tjL5+Uxx/9hu1lAACQSEtLy/K7n39EZqbftL0UI/pyZodpaC2bZk4Xzxm7YQrRHhMgjkkxaT48iQkxAACEl6bJMisrvvgGsyQbU5sjtNeJY+NpWgP70qVlOXLkRQI7AAAdStNkGdOHL+Vyaj8bUxsR2uvM/FVxwdd60NT90jqLfenSsvzO5x9hQgwAAF2amByThw4dtL2MyLQWubZSMnpLNqY26rO9gCQpnC6+bjKw53KKwA4AAAJVflM9NXWX0yMhK/v2DM5wr2xMdfe/lBhQaV9TmCtOlUr6KVP3S+ssdkY6AgBg1raRYfn6Mw87HdxFzI+C9Dz1/bFbt44au6HjCO1i/sRTpVQqJ8UQ2AEAiEdagvtqyZdSiY2pcUhfsuyC78v3xfCkmLQhsAMAEJ9z8+fldz7/iCxdcvvfs6ZHQZZ8fXdhrrjP2A0dlr502aGZ08U3tNY3mrofgR0AAHSjEtxdP4Spr8/o1Dzl+/pPCnPFYVM3dFX6EmYHCnPFKd/XxgalGv5Dmggnjk8T2AEA6JFz8+VCmevB3eQJ8FrLJq3lz43d0FGZ7Wk33ceeyynpy6XrZ6ATx6c55RQAAAvy+X752jMPy8h2dwvMvq9lxeDG1Kz3t6crZXbAZB+7pwjsAADAnKWlZecr7p5nNh9lvb89XUkzJJN97EqJXJeyPnYCOwAA9qUhuBs+s0b5vv4TUzdzTbrSZgim+9hN9mwlAYEdAIDkSENwN7nnT2vZNHO6OGvkZo5JV+JsozBXHPZ9/Uem7pe2jacEdgAAkicNwd1kkdP39YcLc8UpYzd0RKZCu/blO1pLn4l75Tyjv+6xbvbUGQI7AAAJ5XpwV8pscC+V9L/K2hjIzIT2wuniUV/rQRP3UkpJX4raYubPnpcvffFf2l4GAABooRLcXT2AyfOU5HLm+tu1L98xdTMXpCd5tlCYK95W8vXdpu53XV96KuwcnAQAgDuWlpadPjm1L+eJZ6i12Nd6sHC6+LqRmzkgE6Hd9+VPxdB4xzT1sRPYAQBwT+XkVFeDu8mpeyVffyorYyBTH9pNjndMUx87gR0AAHc5H9zNtRlnZgxkqkN7Ya64z9R4xzT1sS9dWpYvffErBHYAABx2bv68fOmLX7G9jK6Y7G9fGwP5hpGbJVg6UmgTJn/ySksf+9Klci/c4uJF20sBAAARzc6+JY89+qztZXSlL2eu5dj39Xja22RSG9rLbTGyycS90tLHXgns5+bdHBcFAAAanTw+42xwNzy/PdVtMqkM7SbbYrwU9bEfOfIigR0AgBQ6eXxGjr180vYyOmZyfnva22RSGdpN/aRl+iAAmx579Fk5eXzG9jIAAEBM/vWRl+TE8Wnby+iYyQJpmttk0pFIqxhti8ml47+eE8enCewAAGTA449+w8lTU8utyGbuldY2mXSk0jUm22JyOSVeCtpiThyflscf/YbtZQAAgB753c8/4mRwp02mtVSFdnNtMSoVVfb5s+fl6adesr0MAADQQ0tLa6OdHZvhrpS5MZBpbJNxP5muMdkWk4bxjgsLFzg8CQCAjFpcvOjk4UuGx0Cmqk0mFaG9MFe8zff1mIl75XLK+fGO5cOT/iWBHQCADDs3f16OHHnR9jI6Zqp4qrVsKpwuvm7kZgmQitDu+/KnIhL577CXkraYxx59ltGOAABATh6fkeeOvmp7GR0x2aZc8vWnCnPF24zczDLnE2rhdPGo1vpGE/fqS8F4x6efekkKM2/aXgYAAEiI54++JjPTbmWDXE6JZ6bzQa0Vd53ndEotzBWHS76+28S9yj1UJu5kz4nj0/LKMfcOVgAAAPF6/NFnnZsoY6qYqrW+sXC6+ISRm1nkdGjXWv5cDLXFmNqtbAuTYgAAQDMuTpRRytyZOb7WXyjMFYeN3MwSZ0N7Ya445fv6ZhP3cr0tprzx9CtsPAUAAE0tLl6UL33xK7aX0RFTbTJaS5/W8i0DS7LG2bTq+/pfmLhPeVqMiTvZ86UvfkUWFy/aXgYAAEi42dm3nPvNvKniqu/rD7s8u93J0F44XXzdxEz2NByi9PRTL8ns7Fu2lwEAABzxyrGTTm1MVUoMHrokzh4T71xiXdt8+ikT93L9EKWZ6TfZeAoAADrm2sZUU4curW1KPWpgST3nXGg3tfnU9UOUFhYuyOOPPmt7GQAAwEFLS8vy2KPPOrUx1VSxteTru13clOpUaDe1+dTkbmQbOPEUAABE5dqJqcrctD/l4qZUp5Krqc2nLgd2EZEjR17kxFMAABDZyeMzcuL4tO1lhGbqXJ21TalOnZTqTHotn3waffOp5ynxPHfbYk4cn5aTx2dsLwMAAKTE00+95Fx/uwmunZTqRGg3efLpdQ7PZF9YuODcmCYAAJBsrvW3e56p2e36xsJcccrAknrCiQSrtbwoBjafut4WQx87AACIg2v97QZnt/+RkRv1QOJTbGGueJvv6/Go9zG4ecGKp596iT52AAAQm5PHZ5yZ325qdrvW0lc4XXzdwJJil/jQrrW8YOI+fQ4H9tlTZ5jHDgAAYvf4o8/KwsIF28sIxdSm1JKvP+XCCMhEh3ZTIx5zDm8+rYx3BAAAiNvS0rI8/og758AYan1Wa63YiZbo0O778ocm7mOq78mGxx59lj52AADQM7Ozb8lzR1+1vYxQTG1K9X09nvQRkIlNs4XTxSe01jdGvY/Lfewnjk9LYcaN3jIAAJAezx99zZkxkKaKs6ZasuOS2NDua/2FqPdw+eRTxjsCAACbHnvUjTYZU5tSfV/fXJgr7jOwpFgkMtGuHaTUF/U+rgZ2EZHHH6EtBgAA2HNu/rwzbTIGD1z6hpEbxSCRqdbX+q6o9/CUu5tPj718UmZn37K9DAAAkHHPH31NZk+dsb2MUEy0yST5wKXEhfaZ08U3jFTZ+9wM7AsLF+R5R36qBQAA6ffYI26clprzlJERkKYGoZiWqNBemCsO+74ei3qf8t80N0M7bTEAACBJFhcvZqpNRmt9Y+F08QkDyzEqUaF9bUZm5LSdc7SXnbYYAACQRK8cO+nENBljIyANDEQxLTHp1liVPWfmVyO9RlsMAABIMlemyZhokdZa+gqni0cNLMeYxIR2U1V2VyfG0BYDAACSzJVpMkopyRkYRmJiMIpJiUi4pqrsrgb2mek3aYsBAACJ9/zR12Rh4YLtZbRlolU6adX2RKRcE1V2U4P1e23p0rI87sivmwAAAB5/JPm5xdiBSwmqtlsP7eZ62a3/R+nKc0dfpS0GAAA4Y3b2LTlxfNr2MtoyM0kmOdV260nXWJXdwYOUZk+dkVeOnbS9DAAAgI48/dRLbsxuT1G13Wpoz3qV/chTL9leAgAAQMeWlpblyJEXbS+jrTRV262mXRNVds/QDuFeO/bySTk3n/x5pwAAAEFOHp+R2VNnbC+jrbRU262FdpNz2V2zdGmZmewAAMB5LnQNGKy2Wz0l1V6lXcsRMVBl9xyssh858iKbTwEAgPPOzZ+XYy8nf3+emWq73GtgKV2zFtp9rX8r6j1crLLPnjojJ4/P2F4GAACAEc8ffTXxm1LNVNv1jYW54pSB5XTFSmgvnC4e1Vr6otzD2Sq7A79GAgAACGtpadmJk1KNVNt9+UMDS+mKldBuopnfxSr7iePTbD4FAACp88qxkzJ/NtkZx2C1/TYDy+lYz0N74XTxiahVduVglX3p0rI8TZUdAACk1NNPJX8EpImir9byQvSVdK7nod1EE7+LVfZjx06w+RQAAKTW7OxbiR8BaaLa7vv6ZhvV9p6G9sJccUprfWOUe7h4+unCwgV5xYGd1QAAAFE89siztpfQlqFq+1cNLKUjPQ3tWsvvRr2Hi6efPnf0VarsAAAg9RYXL8qJ49O2l9GSoWr7hwpzxWEDywmtZwm4MFe8zff1zVHu4WKVff7seUY8AgCAzHj6qZcSPwLSQJ5Ua2cO9UzPQrvW8ljUe+Q896rsLmzKAAAAMGVpaVmOHTthexktmejcMHHmUCd6koILc8Vh39djUe/j2gbU2VNnZHb2LdvLAAAA6KlXXj6Z6Gq7ie4NraWvcLr4hKEltdWb0rWWQyIS6b8Z1wK7iMhzf5z8gwYAAABMc+HAJVR5EtcAACAASURBVCOHLRmYihhWT0K7icOUTGwa6CWq7AAAIMteOXZSFhYu2F5GU0op8VTUanvvDluKPQmXxzxGO0zJtc2nIm6MPAIAAIhTFqrtvTpsKfbQnsUxjyeOT8vi4kXbywAAALDq5PGZRFfbPU9JxGK7+L7+QC/GP8aahk2MefRU9P8ye41edgAAgLLkV9sjx2G1tn8zVrGGdiNjHh3bgEqVHQAAYEPSq+0m2rBN7N9sJ+bQrv9BlM8rVf61hUuosgMAANRKfrXdwPjHueKUoeUEii20F04Xn4i+AZVedgAAANclv9oePXOa2MfZSmypWGv5XNR7uNYaQ5UdAAAgWJKr7Sa6O3xf3xznhtRYQnthrnibr/VglHu4NuaRKjsAAEBzya+2G8ieWo5Ev0mwWEJ7Jjeg/tm07SUAAAAkWpKr7UbGP2r9CTOraRRTaI+6AVWJcmjOI6efAgAAtFeYflOWLi3bXkZTUXvbtZZNhbniPkPLqWE8tBs5AdWxKju97AAAAO0tLS3LsWMnbC+jKUMnpD5uYCkNjId2IyegOtTPPn/2PFV2AACAkF55+WTCq+2RN6R+wNBSahgN7YW54nDUhbpWZU/yT4sAAABJs7S0LDMz37W9jKYMnBGkCqeLR02spZrZSnv5CNdI/0ldqrIvLFyQk8dnbC8DAADAKUluLTaxIVVrmTSzmg1GQ7uv5bNRPu/aBtRXXj5pewkAAADOWVy8KCeOJ3fyXtQNqb7Wg6ZnthsL7YW54m1a6xuj3MOl1pilS8uJ/sMGAACQZEkel20kkxqe2W6u0q7lgai3cKk1Zmbmu7K0lNxNFAAAAEk2O/uWzJ89b3sZTUU+IdXwzHZjoT3qwlwK7CLJ7sUCAABwQZIHekTNpmsz228ztBwzob0wV9yntWyKtBCHQvvsqTOyuHjR9jIAAACcdvL4TGLHP5rIplrLVw0sRUQMhXat5UtRPq+UW6H9GBtQAQAAjEh0tT1ib7vW+hZDSzEV2qMtyKXAvrBwQQozb9peBgAAQCokekNq9BaZvsJccZ+JtUQO7WutMX1R7uFSPzsTYwAAAMxZXLwoM9PJLIiWx5FHu0fUjpSKyKE9emsMs9kBAACyLMlF0agz2021yBgI7dEW4lqVnTGPAAAAZhVm3pSFhQu2lxEoahu3qRaZSKHdRGuMS/3sSf3VDQAAgOuSWm1XSiJ3hZhokYkU2s20xkS5Q++wARUAACA+6d6QGr1FJmJoz1ZrDAAAAOKR5A2pSWiR6Tq0Z601Jsk//QEAAKTBzMx3bS8hUBJaZLqvtGvZH+XBLrXGcAIqAABA/JJ8QqqBFpkPRvl816Hd1/oTUR7sUmvMcVpjAAAAeiKp1XYDLTKbCnPF27p+fjcfKswVb9NaNnX7UBF3WmOWLi1LIaH9VQAAAGlzLKFn4phokREtD3T70e4q7REeKOJWa8zMzHeZzQ4AANAj5+bPJ3Zme9ROEV/Lr3f72a5Cu9bysW4fKOJWa0xSdzEDAACkVVJPoI/eIqNvLMwVh7t6djcf8rUe7OZz6w91JLQvXVpmNjsAAECPzUwns6/dUIvMoW4+1nFoL5wuPtHNgyrK/2Gj3KF32IAKAADQe4uLF2X+7HnbywjkRTrlSERLdy0yHT9Wi/zTbh60/kBHquwiHKgEAABgS1JzWOS+dl9/oJvPdR7ate6qD6fClX72hYULcm4+mT/hAQAApF1yW2QiD1RR3ZyO2lFoN3EKauQ+oB5hAyoAAIA9iW6RiX466sGOn9nZE6KdgupKlV0kub+SAQAAyIqk5jEDU2Q+2vEzO3tAtFGPypHQTmsMAACAfUltkTF0OmpHLecdhfaoox5dqbTTGgMAAGBfoltkouZaLfd29LywFxbmilOdr2aDK73sIiKFhP5UBwAAkDWJbZGJ2tfe4UTG0KFda7mr8+VUPSjiTMteWbq0LLOzb9leBgAAACTNLTKdTWTsILTrD3a+nA3OtMbMJPMPBgAAQBYtLl6UhYULtpfRIOqBoVpLX2GueFvY60OF9sJccVhr2dT9stxpj6GfHQAAIFmSms+itsiIls+FflbIG3bUKN/wEEeq7CIis6fO2F4CAAAAqiS2rz1qi4zIr4d+VsgbfrLr1Yg7oX1m+k1ZWlq2vQwAAABUOTd/XpYuJS+j9bKvPVxoj9jPHvlXBz1ClR0AACCZkrrvMEoLeCd97W1De9R+9qhN+r2U1N3JAAAAWXcqocXVyBMSQ/a1t39M1H52RxL7wsIFWVy8aHsZAAAACFBI6WbUsH3tbUO7Fvm1KAtRDvWzAwAAIJmWlpYTeTpqr/ra24d2LR+KshBXKu30swMAACRbUltketHXHiK06xu7XYRL/eyEdgAAgGQrJHT/oYG+9sm2z2j1ZmGuOBXl+S5V2Rn1CAAAkGyzs2/ZXkIgA33tbcert/65QMt4lAW40s+e1F+1AAAAoFYSuyOi97XLTW2f0eYGH4uyAEcyu8x+L3l/8wEAANAoqcXWaH3t7dvRW4d20Zu7frpEW3wvJfVXLQAAAKiV1Il/UYvV7drS+1p88Datm7/fjkv97ICIiAxuE3lv3vYq4rf+j6ZufG/hRyJXlnq5GgAh5Ab65D0fHFj7xzfgn90aVe8H/qu43eeTaeXHV+Xa/3fV9jKQAOfmkzf2UWStLdyP8M9XuS39SLO3m4fyELtYW1FRd9H2SFJ/xYLe05/8PZGbPmx7GTHQIkpEVf5FrXTA6+Wv9XNfEPmbH9haKIAm3rN9QIb/t9GN0K7W/ipr/wxXfV/5Zzz06474r88U5W+fKdpeBhJi9tQZGd210/YyakTejNqmLb1ptI56qJIzlXb62QEAAJySxKJr1Ojbri29eWiPeqiSI7tQ6WcHAABwS1KLrlGK1muHLDU9HbVFaNe/2O1DXdmAmsSjcAEAANBaUouuBtrDP9PsjcBbrx2l2nXydqTInshfrQAAAKC9JA4TMdDX/umm9w7+RMRNqK5U2ufftr0EAAAAdOFsAjsmIreHa/lg03sHXx9tE6ojmT2x/VAAAABoLYmVdpFoOVhL8/b04NCegU2oS5eWZXHxou1lAAAAoAvzZ9+2vYRA0U5GlU3N3mvSLq+7PmGG1hgAAADEbXHxoixdWra9jAZRo3Czk1EbQnthrjgc7STUbj/ZW2xCBQAAcFsSi7CRzyoqn4zaeN+A15qOmgnFkdBOPzsAAIDbkliEjdp1okVuCnq9MbQ3SfdhuXIS6vx88nYcAwAAILwknrkTudCuQ4b2Zuk+LFc2oS4tJa8HCgAAAOEldTNqtJNRgyfINIb2Juk+TZLY/wQAAIDOJHYzarSTUVVhrjhc/2JAaG8+H7IdV1pjktj/BAAAgM4lsRhrYJpiwx7TmtC+luq7fkrEnyp6Jon9TwAAAOhcEouxkSN7wB7T+pgdaXKMKzPaFxYu2F4CAAAADEhirou6xzNoj6lXd0WkyTFuRHaRc0yOAQAASIXFHycvtItEmyITtMe0JrRrkfd1f3s3JsfQGgMAAJAes7Nv2V5CIBWpnK3z9a/UhnYtH4pwdyck8VcoAAAA6F4S812UvZ5aS1/9a3W30+/p9uauTI5J4g5jAAAAdG8xiaE9YuN4Ya44Vf19faV9U7c3diSz0x4DAACQMomcIGM4G6+H9sJc8bZId3IktCfx1ycAAADoXhLzXdSpilrLp6u/r660745yY1faY5gcAwAAkC5JnCBjIBrXHHi6Edojjnt0QRJ/CgMAAEA08wktykapttePfVwP7VkY95jETQoAAACIZmlp2fYSAkVskKkZ+1hdaf9gpPs64CybUAEAAFJpNombUQ2OfayutL+325u60s++tPSu7SUAAAAgBpcuJbPaHkVhrjhc+XojtGv9i8GXh+BGZmfcIwAAQEol8SweA4Xtz6zfq+rFru/qSKFdli5RaQcAAEijpRRW2kXL36t86YlEn9Ee9cSnXpmdfcv2EgAAABCD+bNv215Cg6iDWrTIr63fa+2vkWa0u1JpBwAAAFxUDu1Vpfe0op8dAAAgvZLaURFxVvuHKl97IrWl9264MKOdyTEAAADoNVMpOcL0SLdwGioAAEC6JbGzIlob+cYBS5X2mK4PVopS8u8lQjsAAEC6JbKzIkJUrj5gqdIe0/XBSm5EdgAAAKRdmou00dtjHEnts99L3tG2AAAAMCeJoT3qAUuFueKUSKXSrvWN3d7Ike4YAAAAwFmZ2Yh6aSmFp2QBAABgXfo2om6IHNpdOQ313Hzy/iYCAADAnKVLyduIGnVoi9byaRERr9In0/1CIq0DAAAAQBuZaI9ZukRrDAAAQNolcSOqKdHbYxyotM/Pv217CQAAAIjZ4uJF20sIFGmCzNp5Sp5ouSXKIlw5XAkAAABwTeU8JU+LbLO9GAAAAADNZaKn/RI97QAAAJkweyp5B2oqA4k70i1c6Yyhpx0AAAAuqhyC6onI1m5v4sqMdgAAAMBlntbyftuLAAAAANBcJnraAQAAkA1J3MsYaeRj5R4G1pF4HK4EAACQDWncy1iYKw5H24jqSOSfP/u27SUAAAAA3fqMJ6LfY3sVAAAAAJrztJZNthcBAAAAoDlHGlwAAACA7CK0AwAAADHyPKbHAAAAAKkXbXoMJ6ICAAAAsYsW2snsAAAAQKy0lk/THgMAAAAkHKEdAAAASDhCOwAAAJBwhHYAAAAg4fpsLwAJMbhN9Cd/z/Yq7LqyJPLGC7ZXEQMttYOe9MaXqvZ7Nfl5kcuXRKkm16y/XvW+iKj1Z9RepxqeodeWUrcmpWuuqf7MxmV1rwescf3e1X9dv4GuWn/5mTX3FhG/+P/I1VdeESTP++79mFx/8/vr/n6u/bXy9776vbW/ll+v/bOi2vx5rnm9+vqaP7d1f96qnqFC/DPTcO/ANW685g30ycV/8zc11wT+M1LzQvB/robrHXHDR39BPvDRnbaXYdWPD5+XK3/9ru1lwBJCO8remxe56cO2V2HXGy+IeuNPbK+i56r/ta3+4T+X2nDbLCjXh/Nmob3x9Y3QXh+gQzyzzesq4LpQz2warJAU19/8fnnPrww1+fNQHdq1NPyZaBbCO329/plNwnnQ6909s/aHhL/5Z/851H9XafWBj+6UG3b/gu1lWJUbyNleAiyiPQYAAABIOEI7AAAAkHCEdgAAACDhCO0AAABAwhHaAQAAgIQjtAMAAAAJR2gHAAAAEo7QDgAAACQcoR0AAABIOEI7AAAAkHCEdgAAACDhCO0AAABAwhHaAQAAgIQjtAMAAAAJR2gHAAAAEo7QDgAAACQcoR0AAABIOEI7AAAAkHCEdgAAACDhCO0AAABAwhHaAQAAgIQjtAMAAAAJR2gHAAAAEo7QDgAAACQcoR0AAABIOE/bXkEPjGy/yfYSAAAAgK55IiJpD+75gX7bSwAAAEAPjIzcZHsJsfBElyN72oM7AAAA0m8gpcXack87wR0AAABInEo+39iISnAHAAAAEmM9l2tdNz0mpcF9aGiL7SUAAAAAoVUHdpGgkY8pDO6EdgAAgGwY3bXT9hIiqw/sIs3mtKcwuAMAAABJFxTYRVodrkRwBwAAAHqmWWAXaXciakqCe1rndQIAAGBDPu/uuMdWgV2kXWiv+qDLwZ3DlQAAANJvZGTY9hK60i6wi4QJ7VU3cDm4AwAAAEkTJrCLhA3tVTdyNbhvc/QnLwAAAISTH7jB9hI6Ejawi3QS2qtu6GJwH3C4xwkAAADtjWx3p0jbSWAX6TS0V93YxeAOAAAA2NZpYBfpJrR3+ICkGP1V9wftAwAAoDkXDtTsJrCLdBvau3gQAAAAEKekh/ZuA7tIlNDumKT/TQQAAEB6RQnsIoR2AAAApMToroS3Q0foVMlMaM/n3RoBBAAAgBSJ2FqemdDu0gggAAAAdCbtZ/JkJrQDAAAgvdJ+Jo+XpRkwo6M7bC8BAAAAMRjZfpPtJcTKE+GgJAAAALgtP5DySnuWTjjlgCUAAIB0Ghm5yfYSYqOl0tOekeDOBBkAAIB0Gkhppb2Szzc2omYguG9nggwAAEAqJX5Gexeqc3nt9JiUB/dBDlgCAABInXwKJ8fUn6DaOPIxxcGdU1EBAADSZyRlM9rrA7tIszntKQ7uaR+8DwAAkDWDv5yewmxQYBdpdbhSSoM71XYAAIB0SUu+axbYRdqdiJrC4D7CZlQAAIBU2ZWCTaitArtIu9Be9cG0BPe0/CQGAACAMteHjbQL7CJhQnvVDdIQ3AntAAAA6eJyvgsT2EXChvaqG7ke3NM4wxMAACCrRkd32F5C18IGdpFOQnvVDbW4Hd6ZIAMAAJAOrk6O6SSwi3Qa2ju4cZK5/CsUAAAAbHAt19UUvzvI1Z2H9g4fkERMkAEAAEgHlybH1CToDvN0X/dPdTe479q1U56X12wvI1kWz4l64T7bq7DrnUXbK7BOP/eFylcbL6qq9wO+CqSav6+CPq+qv2n3vy064DMt7h1yXSIi+vJym2fDlp9+4zvi3XB9wN/3Vn9Pg/+sqPr366k27we9p+q/DPHnOODPcNP7Q358+LzkBnK2l2HVlb/mf6OCjIzcZHsJoUQJ7CIifVra/O9GCrk+FigWV5ZE3v6+7VXAtr/5gYjEGxeIIujGtR/9xPYSYNmVv37X9hKQQIODmyU/0G97GeFFKHp7Itn7l+jQ0BbJ5x36GwwAAIAGI9tvsr2E8CJ2qXiVxJ614D7CBBkAAACnZWWfopbKRtQMBvfRX3Vn0wIAAAAaubQJtVuVfO7VJ/asBHdXNi0AAAAgWNrznK76wqt5KUPBPQs/mQEAAKSVc5tQO6TrvvAa3spIcM8P9Mvg4GbbywAAAEAXnNqE2qH6wC6i6w9XylZwT/PfbAAAgDQbTWnXRFBgFwk8ETU7wT2tf7MBAADSbnsKJ8c0C+wigaG96oKUB3f62gEAANyUtuJrq8Au0jS0V11Y9Ze0hfeszPYEAABIk9HRHbaXYExNxm4S2EVahvaqD+iGV1IjTX/TAQAAsiAt5+3owG+C03ab0F71QS2pbJdJy990AACArEhDi3MngV0kVGivu0HKgnsa/qYDAABkieuHKtVk9BCBXSR0aK+7UYqCe9o2MQAAAKTZtpFhpw9VCs7o7VO111nwTmePDH3tAAAAbnC5SyJ4w2m4UO3VfK7zR6YCfe0AAABucLVLIsyEmFbW22OyHNxd/okNAAAgS8bGd9teQve6DOwidT3tWQ3uo7t2Sj7vbm8UAABAFjjd0txlYK9c7YnWgW9kjau/agEAAMgK91uauwvsIpVKe0Bwz1p4J7QDAAAk29jYR2wvIYLw6Tooi2+0x+jGG2UpuDvdHwUAAJBy+Xy/jGwftr2M2AXmb63r5rRnOLgPDW2RwcHNtpcBAACAAHsyUGBtFthFgg5XynBwHxt3+VcuAAAA6ZX2aX+tArtIsxNRMxrc6WsHAABIJrf72VtrF9hFmoX2yoUZmywzNr6b0Y8AAAAJs21kWPID6cxoDfk6IIOLtArt1R9sdeOUodoOAACQLHsnx20vIRaBgb0JL1QIz9BISKbIAAAAJEva+tkDs3SLwC6yVmnvJrinVZr7pQAAAFwzOLg5VaMew/SvB1lvjyG4l+UH+mXbSHr+YAAAALgsTdP9ug3sWup62gnuZWntmwIAAHBNWnJZlMAuErARNXRwT3F4p68dAADAvrS1xtToILCLiHhBnfCh43hKc/vQ0BZaZAAAACxLU2vMupDF7/orvGbvpDSPh5aWX8UAAAC4KnV5LGSnStBVXs3QmYDgntXwTosMAACAPalrjQlZXW8cBVn+i9fwSsD9shjcaZEBAACwJ5WtMS0Eb1Td+NILfIfgLiIp/JUMAACAI7KUw1oH9vIXDdNjCO4baJEBAADovdS1xrQQJrCLBIb2qgsyHtyHhrbInjGCOwAAQC9lpTUmbGAXaRraqy6MMhIyBai2AwAA9NYd+ydsLyF2gRtOmwR2ERGvdQDXgV8G3yqdxsay8ZMeAABAEmwbGZahoS22lxGbVhNiAr5Z5zX9cNCts5LUq+QH+mVicsz2MgAAADIhzRtQ27fDNA/bNe0xoaruGQzuVNsBAAB6YzKlob2T/vX6S7QE9LQT3BuNje+WwcHNtpcBAACQanvGdkt+oN/2MnojZGCvCNyISnBvtPe30vlTHwAAQFKkuTVmXZsNp83eaTo9JvQG1YzIxB8iAAAASwYHN6d/al+IDafN3vFa5W+C+4ahoS0yOrrD9jIAAABSKfVdDSE3nDZ7x2v5btvbZkvq/zABAABYko2uhlDzGgN5rQ5RCveI7Ng7OS75fEY2RwAAAPTI6OiOVM9mL+u8ur7+pl7vaW9+iFLoG2ZENn4KBAAA6J079u+1vQRr2gb2NV7tq+0nw2Q9uGfhWF0AAIBeycQG1CbCBfZyRg+YHkNwb2VoaIvsGcvmHywAAADTsrpnMHxgL/OCP0Bwb4UWGQAAADP27ctWa0zbIS9NZrh7jS/VXcj4mAackAoAABDdxORYdk5AlXAbTptd6QVeF3RrgnuNLG+YAAAAMGEyQ90LYTec1l9Z+a6hpz04uLdvl8maScY/AgAAdG10dIeM7tppexn2tTh0qfq7gI2oIdplIPmBfnrbAQAAupTVDag1WrTD1L8SGNqDP1r1Kn3uIsL4RwAAgG4MDm7OdvGzTf96UMz2Op8QQ1qvGBraIhOTY7aXAQAA4JRM7w1s0b8e/EqZ1/JdabVBlfAukr0xRQAAAFHk8/2Z2oBao03/eqt07YVteSGiBxvZPiyjoztsLwMAAMAJd+yfyNSYx3UdtsPUvKnXe9rDjXYkuAe757dvt70EAAAAJ2S7S6GLwL7Gq32Vk1C7Mbprp2wbGba9DAAAgETL2mFKtboN7OWMHjA9JlxwJ7zX2sckGQAAgJbuOUB3gkiILB3QSuNFGe1IcN+wd3JcBgc3214GAABAIk1MjsnQ0Bbby7CubX5u0vvuNf9wuD53bKC3HQAAIBhV9nAbTptd6QVeF/RpgntbVNsBAAAaUWXvrH+9/i0tASeitm2XQUtU2wEAAGpRZW8h5CjIwBNRo/S5Zx3VdgAAgA1U2Zto0w5T/0rTE1Hpc+8e1XYAAIAyquwBdNNvmrxS3R4TUEFv2+eOQFTbAQAAqLIHCtG/HnR945z2bqruaEC1HQAAZB1V9jodtMPUv+iFTekE987snRyX0dEdtpcBAABgBVX2OhECu8h6pb1Jb0yYG6Ipqu0AACCL8vl+mZq6y/YyEqi7wC7ScCJq+6Z2OtrDG921k2o7AADInDv2T0h+oN/2MhImZP96k6Z2r/H9KO0yqHff/fyUCQAAsiOf75d9+/baXkaiha2uV15sOFyp0+CO9ka2D8vE5JjtZQAAAPTE3Qdup8reQjeBXaTliaj0xpjCzmkAAJAFg4ObZd/+CdvLSKTO2mFqA7tI0MjHhs9SdY9qaGiL3H3gs7aXAQAAECvagjvQpuQefCJqk4/QLmPOvn17JZ/nV0UAACCdRkd3yNj4btvLcEObdpjgE1HbhG+Cuxn5gX657/47bS8DAAAgFlTZQwrRvx7EW7+ixVUt+9wR2t7Jcdk2Mmx7GQAAAEZNTI7JyHYyTksd9K8HfdarfyHccwju3Zqi2g4AAFKEg5S6FTJZr73Z2NMepV0GbY3u2skISAAAkBqMeOxG6/71ustERMTTUv6/hgtCtcugG/ccuJ1NqQAAwHnbRoYZ8diRkO0wARd4G693ttGU4N69oaEtcgd/wAEAgONo++1EB+0wAb3vdSeiMiGmV+45cLsMDm62vQwAAICuTEyOyeiunbaX4ZRO2mE2Xiq/GHAiKsG9Vx56+KDtJQAAAHSMzaed67QdpvzSxotNTkTtvM8dnWNTKgAAcBGbTw0KyNhBWbzpiaiVDwTeGMZMTd3FplQAAOCM0dEdbD41pU11vZrXflIMwT1OnJQKAABcwsmnhnQQ2EWqK+1tgntguwyM2Ds5LqOjO2wvAwAAoKW7D3yWk0+jCtkOU/+Z0CeiVm6IeDz48EHaZAAAQGINDm6Wew7cbnsZbuuwul79Ga/zg5UI7nEYGtoid/MPAgAASCim3kXUaWCvy+Re0w902i6DyPbtn6BNBgAAJM4d+yaYyW5QmHaYel2fiIp40CYDAACShLYYs8K2w9R/JtyJqIT3nqFNBgAAJMlDDx9kJrshnbTD1H8m8ERUqu520SYDAACSgLYYczpth6nP5E0PVyK420WbDAAAsGnbyDBtMb0QcoOq19XBSoT32NEmAwAAbHroEG0xsWrTDlPPW/9Q0/vRLmPLvv0Tsmdst+1lAACAjOEQpZiFaIepF+pE1MqN6vm+H3pt6M5Dh2iTAQAAvTM6uoO2mDh1ccCSUupc44moHVTdSz7l9rjlB/rlwUMcZgAAAOKXz/fLgxyiFI8O22GqP6NEzTWeiFq5oOUzCeu9NDa+W+7YN2F7GQAAIOUePHRQhoa22F5G6gR1p3R6wFJXJ6I2/Qxic9/9d8q2EXrLAABAPCYmx2RsnL10cfDrulO6OWCp5kTUhhu0nRRDcO8l+tsBAEActo0My9TUXbaXkXqhqusNcbz8f57nqdX6NwJvEKD+pwbEa2T7sNx3/522lwEAAFIkn+9nvGMPdFNdrzlcyVPeUqibBiT/EtNjem7v5LhMTI7ZXgYAAEiJuw/cznjHmPk6WmAXaXMiKvPZk2lq6i762wEAQGQTk2Oybz/DLuJWKpWC32jRDlNDyULT0F79wcAHiIhu91MDYpEf6Ke/HQAAREIfu2UdjH/8jV0fOLZxImqb+exBDyqt0h5jC/3tAACgW/Sx91ZNnbubee0i4tW83cHBSrBv7+Q489sBAEDH7rv/TvrYe2i10h7TJKyHmdfueZ56uybwdzifPWhYPHrnvvvvlNHRHbaXAQAAHHHHvgnZOzluexnZ14R0VQAAIABJREFU00V1vfptT4n6WcPrIdplKg8pMfbRusNPfoH+dgAA0Nbo6A7aay2obynvaF67UlokYHpM2HaZ9QeyGdW6/EC/fO2Zh20vAwAAJNjg4GY5/OQXbC8jk6rzcifVdS0iuZz3MxERL6is3km7zOpqkxE26KmR7cPy4KF7bS8DAAAkUD7fX/7NPBtPe666lTxsYA9qevGUUudqrmr8XNt2GSQDG1MBAEAQNp7aU/J1R+0wza7ylJK52k80vUfgXVZXV9uvFj3DxlQAAFDt7gOfZeOpRW2HtrSorouIKJErIiJe47vBH2lWdaelPXkOP/kFTkwFAAAyMTkm9xy43fYyMq1UahLa21bXyxd4nvqhSGUjauCVLYJ71TerzY5lhTX5gX45/OQDTJQBACDDOPE0GQIr7Trwy+AL1ni/sfvmI80/EW6TKrPak2doaAsTZQAAyKh8vl++/szDbDxNgIac3KYdptmrXs1bTT/dul2madkfVjFRBgCA7Mnny6OgCezJsLJadRpqiHaY+peUUn8pUjWnvf189uabVAntybV3clx+f4pDFAAAyIrDTz7ApJiEWJ/P3k11fe0lJfK3ImuhPZfzLjfcKGS7jIhIifaYRNu3f0ImJsdsLwMAAMTswUP3yuiunbaXgTWrq6XOq+tVF1e/64mIKKWuBlwXul2GA5aS76FDB2XP2G7bywAAADFhtGPylEp+59X1upCvlHpdZL09pvP57NVXrNIe44SHDh1kFCQAACnEaMdkCu5GCV9dFxH5jV/9wHmRSnuM5/2g0/ns1VdorWmRcUB+oLyTnOAOAEB6TEyOyUOHDtpeBgI0dqOEq65XKKXWX/KkQbj57PVX+FTbnVAJ7sxwBwDAfcxiT7aVmtDevLre5F3J5dTPKl9XetrPNb1D1Sutqu4rq6tNF4xkyQ+sjYIiuAMA4KxtI8PMYk+wjQNIO2uHabhgTSW0zzVe3aZdpu4b+trdMrJ9mOAOAICjCOzJt7rqS6ftMPUXeJ73duXVSnvMQvNPhtukurJCpd01BHcAANxDYHdDqRQwXbHD6roSqW2P+c3dNx/rZj579We0z2ZUF41sH5bDTz5gexkAACCEfL5fHjp0kMDugJpNqN2chlr248oXNRtRO53PXn9piXntThrdtVMePHSv7WUAAIAW8vnynjROO3XD+n7Pbk9D1SKe5/2Xykvrob2vL/dOww07rLqvrBDaXbV3cpzgDgBAQhHY3bKystp9db32MwuVlwNGPtbdvIOq+0pQ7w6cQXAHACB5COzuqUyOiXoa6m/uvvlY5e310J7z1Nstbxei6s5mVPcR3AEASA4Cu5tWVkpdVderv6w+WEmkutKu1M+6mc9e/ySCu/sI7gAA2Edgd9e1wDzcvrpefUUu5/2s+tL10O556lvBHwl4TIuqe/Ai4RqCOwAA9hDY3bW6WhKt68Ny56ehKiVXqr9v2tMedj57PU5GTQ+COwAAvUdgd1ttFu7+NFTP835Y/cp6aP/47m1Hgu/Yej57/dsrK6sBP13AVXsnx+WJLz/AAUwAAPQAgd19G9MUo52GqpQ6V/1OXaVdNcnbnVXdaZFJl7Hx3ZycCgBAzLaNDMtrr3+VwO64aysr0m11vZpSMlf9fU1o71treG8e3MNV3dmMmj4j24cJ7gAAxGTbyLB8/ZmHOenUcYEdJ13Oa1ei3qz+via0K8/7yfrHdavw3uJRWuTatZXAJcFtBHcAAMwjsKfH1foM3MVpqJUM/pu7b/529es1od1TUgz6YPADmlfdSyVfSiU/cGlw28j2YXnhm4dl2wi/ugMAIKo9Y7sJ7Cmyvgm1y+p6JXdf15d7p/69ukq7+stWiT/4gcFLoNqeXkNDW+TrzzxMcAcAIIKJyTE5/OQDBPaUKPm+rK6WIlXXK5RSV+qvqQ3tor7f6jGdVN2vENpTLT/QL19/5mEZHd1heykAADhnYnJMHjp00PYyYNDKtdVI1fVqnqd+2PBa9Tcf/8i2Y403b7xxmKo7ox/TLz/QL1979mGZmByzvRQAAJzx4KF7CewpdO3aSqTqevW15e6XWg2HK/XlcpcbH9Jd1f3qVartWfDQoYNy94HP2l4GAACJls/3y4OH7pW9k+O2lwLDtNZNuky6y9FK1N/Wv9sQ2pWnfmbiJwSRgB20SK17DtzO6akAADRROTSJwJ5OwYXq7jtWPv6RxkNPG0J75cjUqL04IlquXrtGi0yG7J0cl689c4iRkAAAVNk2MswppylXW6juJC9Xrt/geV7ggUeNoV2pvzSx67WCFplsGd21U77GZBkAAEREZHR0h3ydwJ5qWuuq0N5pdb3xjVzOuxh0dWN7jFqbIFN1jyhV96vXrgV+Guk1sn2YkZAAgMybmByTrz3LDPa0Kxeoo1XXK69o2eh6qdcQ2msmyLQdDN/koVU/UVy9tkKLTAblB/rlxW8eZrIMACCTmBCTHUEF6k6r67rqC081To4RCQjtIgETZEK1yzT/6YIWmex66NBBNqgCADKjvOH0EBtOM6K2NabyWuCV0qq6vv6NVHW91AkM7bmc+nGru3Zadb985WrTTyD92KAKAMiCbSPD8sI3D8vorp22l4IeqS5Mh50M0/BqXZ5vPDepLDC0e553umldvYuq+7WVVSmV/MCrkQ2ju3bKC988TJ87ACCVJibH5OvPPCxDQ1tsLwU9tHzliohEr65XXNfX906zZwWGdqXUdO2tmz8t7IQZqu0YGtpCnzsAIHV+f+pOeejQQTacZkyp5MvKSslIdb3Cy6m3mz2vSaVdvd74iOZV99ZLK79z5SpTZFBGnzsAIA0q/ev79k/YXgosWL58JeDVzqvr1Vd4Sn2v2fMCQ/tv7t523lNBg927r7qXSr5cWwmcFY8M2js5Li+8dFgGBzfbXgoAAB0bHd0hr73+VfrXM6x+A2qosN6mKu956j80e15gaBcRyfXlLnbSnxOm6n6FFhlUGdk+LC9+88uyZ2y37aUAABDa3Qc+y/z1jLt6daVqv2abMY4N31S/WPvGxz8yErgJVaRFaO/LeT8Q6XAnbJuq++UrV5nZjhr5gX45/OQD8vtTd9peCgAALVXaYe45cLvtpcCyy1crhejo1fWKvhabUEVahHal1P9Rc2tDVfd3l4P6f5B1+/ZP0C4DAEgs2mFQUSr5cvXqNTFVXRcp5+yc573d6rlNQ/snPjpyJOiGUavuV67SIoNglXYZpssAAJKEdhhUC9qA2m11vTpbe17zTagiLUK7iEhfX93JqFUPCF5I+/C+8dMJ0Cg/0L8+XYbDmAAANg0ObpYXXjpMOwzWaa0bxpiHC+vBgb2aUs03oYq0Ce05z2s8GbXqQZ3MpawO7u8GjsgBNuydHC+fKje6w/ZSAAAZNDE5Ji9+88sysp1DAbHhytVr6/sz249xDH4jKEMrpfQnPtp8E6pIu9Ce895osYr1BwcvsHnV/drKqqysllreFxga2iJfe/ZhufvAZ20vBQCQEfl8vzzx5Qc4LAmB3l2+3EErTPvqekVfX+5n7Z7dMrRvlOnbB/dOw3vwQHqg0T0HbpcXXjos20aodgAA4rNnbLe89vpXZWycUcRodPXqNVldH/MoHYf1VgMUc2tTG1tpGdo/8dGRY6JU26OTqhfU5J2GVy5fvlo13xJorbxJ9TBVdwCAcfl8v/z+1J1y+MkHqK6jqfX27g42moq0DuuVz+U871vtrlLt5qb/6X96a+HatZVBERG18bF29xXV9JKNN/I3bJL8DZva3guoNn/2vDz26LNybv687aUAABw3OrpDHnz4oAwNbbG9FCTYtZUV+bufXmrybrdhfeOz/+TXf6VtuG5ZaRcRyXnedxqXFK7q3m6j6rvLV8TnsCV0iKo7ACCqSnX9a88+TGBHW5cvN5t82HkrzMbnyhflmkxrrNc2tHvKm25+0mm3LTPlz2mtZZnDltAlet0BAN2o9K7v2z9heylwQKnkN4x57HSjaeNnN+7Ql8v9MMyn2rbHiIi89hd/tXFRVfG+to7fXcuMUkq2bH6feM37aYC2njv6qrzy8klZWlq2vRQAQELl8/3y4KGDbDRFR37283erQnv0Vpj6u9yw6b2HP/n3t/9Bu0+3rbSLiFx3Xd87NU8xWHUvV9tD/VYAaOqeA7cz1x0A0NQd+yaYDIOO1VbZu99oWl9dr/7G87xvhFlLqEr7ib/86zcuX7k2HnyHmr9I0HeBH6uu2FNth0Ez02/K448+S9UdACDbRoZl6v47ZXTXTttLgYPKVfbgVu4o1fXKN319ucuf2vPfhhpZFKrS7nnet8KcdNrtRlWq7TBpbLzcq3jHPnoVASCrKhtNX/zmYQI7ulKusjcG9k43mrY6jClsP7tIyEq7iMhrf/GDqgubVMQD+93DVd2ptiMO82fPy9NPvSizs2/ZXgoAoEcmJsdkauouZq4jkp/9fKlhA2qnG03rXmpwQ3+4fnaRDkL7v//2//XTlZXVG9uG8QgbVQfymyR/A/+AwbwTx6fluT9+VRYXL9peCgAgJqOjO+Se376dyjoiu3ZtRf7unZ+vf2+iFSbo+oF8/00f/8hIqINnQof2E9/54evLl698WiRkGO8ivCulZMv7b5RcLlTXDtCRpUvLcuzYCabMAEDK5PP9ct/9d8reyeDtd0Cn/u6nP5drKyuxhXWRSj/7LaGr1aHTsafUyx31r+vAL4OvrbyjtVx6lzCFeOQH+tenzExMjtleDgAgony+X+4+8Fl57fWvEthhzLVrKzEF9to+91wH/ewiHVTaRURe+4u/8rXWquMqeofX/9Lm91FtR+xmT52R5/74VfrdAcBBE5Njcs+B2znNFMZd/MnPZGV1tc1V3VXXq7/K92+6/5N/f/uRsOvqKLT/6X9869zVq9du3vi0BH3Z8F2n119//XXy/vf9Quh1AVHMTL8pTz/1Iv3uAOCA0dEdct/9d8nIdk7DhnmXL1+Vd36+1OKK6GG98s3t//BDHU1f6evk4lzOe0NENkJ75emq5su1NwLWUfVy7RW13127tiLXrq3I9ddf18nygK6Mje+WsfHdbFYFgARjkyni5rdt0+4usAdde/311y12ur6OKu3/53+Zv+3S0nIh+E6BXzZ8F/b6XM6TX9r8vtBrA0x57uirbFYFgIQYHNws9/z27fSsI3aXlpZl6d2gc4PMVdcr+je991t7f+2Dn+lkfR2FdhGRb83MLa+uljY1v2Pglw3fhbn+FwZukBv639vR+gATmDQDAHYR1tFLpZIv//XiT+teNR/WKwby/Xs+8dGRb3eyxo5D+5/9p7dmr1y59uHWdw38suG7dtcr5ckvbeHAJdhDeAeA3iKsw4af/PTncu3aStUr8QX2XM5b/cz4rR33gHcc2k/+5x9OLb17+SnVLIDX3D3wy4bvWl2/adN75MZfGOhojYBphHcAiBdhHbZcuXpNfvrOpbXv4gvrFe997/Xf/63/bsdoR4uULkK7iMhrf/ED39daiYj0Iry//32/yKZUJALhHQDMIqzDJl9rufiTd6T0/7d3pkFylGeef7qOrKyruwXCI0dshDwLwgiMQQLvcAhJHLbHAhmJS+DYCOw1H+bDbASxuxNj5oiJidld7NjZGSJ2PuwHvDvEztoIhCRsgw8uSWDPeIxOMMxweFHYQ0vqq+4zK2s/VGd3VlXe+b6Zb2b9f/5AV+b7Pu9b3W3lr55+8sleb/UYL1nXyOXkb+664dOPOd/lAE/S/v033vmg1e5cOizXNvLuQ9yTyQT91vqLXO4SAL6g2wwAAHhny5bN9MCDu2j7juvD3gqYYAY3nw6ScGNGzFjY+9SnxNRU/95br/H0MCJXLR81Vls/DrVw7FuLu2V7yLVXRuN7PZWqtQYVC46f9AoAd3bduYN23bmDXnzhKO1/+of0wftnw94SAAAIzy3br6d9D34JrRtB6HQVxVjYOWTX+yuD0unUeRdbHMJTpv3H//j+xkq1/tFwJP2XfEpmLrl4ltIpT58zAODOyRPv0P6nf0ivH3sz7K0AAIBw4AmmQDQWFkvU0T/5lKOsa+PzOfnbu2684hEX21zFk7QTEX3v9V/OtTvdDeMRtf/4EXfjI+lUii5ZP+t4jwCEwdzcPH37yQP0+tE3UfcOAJhoNmxYT7vu2kH79u2iQhF/LQfiUK011h6kZKnC7ISdiGi6mP/UF//NJk9/mvcs7S/87J8ONZqtPcZR9V+yzbrPFPOUz5u3iQdAFGrVBr3wwlF65ukXUfcOAJgotmzZTLvu2oGbS4GQ9Ho9ml8skdrvB5Jd10ilks29O672/OnVs7T/6OfvmT8ddTW6/kt28n7JxbOUTqNMBkQHlM4AAOJOoZCjW3ZcT/v27aJNl28MezsAmLKwXKZOu2tylr2sa+Sy8uE7b7rC1VNQ9XiWdiKig0ffavSsno5K5F7cx+aMn0CZDIgqc3Pz9OILR+nFHxxF9h0AEAsu27SR9j34Jdq+/XMogQHCU601qGpYuupd1gfDrIWdaPAU1N/9nctdPQVVjy9p/8HP3j3UaLb2uM+i+693LxZy6CYDIs2xo2/SsWO/oB++cCzsrQAAgCuQVQdRpNtVaH6xZHCGX3Zdw29pDJFPaf/Rz9/bVqnVV0tkgpX3KZTJgFig1b6/+MJRtI0EAAjNLduvp+07rketOogk8wsl6uq7xQQg6xrZbObwXTdt9lwaQ+RT2okGJTKKoqyWyHgrgfEm78lkki65eB0lEg7XBEBw3n/vLL34wlE6dvQXKJ8BAAjBZZs20q47d9D2HdejXSOILOVKneqN5sor/qUwo+OnC3lfpTFEDKRdK5EZC8wj6z42hyiXlWl2puhsLgAR4uSJd+iFF46idSQAIHA2bFhP23d8jnbduQPlLyDytFodWipVKAxZJyJKpVLNe3yWxhB5fCLqUIBk8r9Tn/aMP9B0sFHnT0l1MF6bM7X2Zb3ZIklKUy4ru947ACKzZeuVgycG/ula/TsEHgDAC4g6iCOq2qdS2Z+we5V1DSmd+rH9LHt8Z9qJiA4e0ZXImD7QlF+9e2JqitZfhPp2MBlA4AEArICog7izsFSiTmfQ3pG3rI/NWYFFaQwRI2n/wc/ePdRo6EpkghT3lTnpVIrWXzSL+nYwUZw88c5A4lEDDwBwyGWbNtL2HdfT9u2fg6iDWFOt1alaawRaCjNKKplq3rPTf2kMESNp/9HP39tWqdbHH7QUsLzncjKtQ307mFDef+8snTjxDr1+9Bd08uS7YW8HACAIhUKOtmy9krbvuJ62bL0SN5OCiaDVatNiqbJ2IGBZ1w7ncrLvrjEaTKSdiOjQ0beXu92u8ROPApT3dbNF1LeDiadWbdCJE+/QsWO/oJPH30EWHoAJ47JNG2mrTtQBmCR6vR5dWFgmtd8PXtZH5k8X2ZTGEDGU9hd+9k9P1hrNr5tqtR9xH5lvN+cT69ehvh0AHXNz83Ts6Jt08sQ7dPLEO6iFByBmbNiwnrZcdyVtXbmBHdl0MKmoap8Wllb6sQdYt240PyNJ5+7eftUnnUW1h5m0//Dn722sVOsfrQY2XdHssLusu9WcxNQU/dYnLkZ9OwAmaKU0kHgAogkkHQBjlstVajRatuPGxJtBKcwo+Vz223fedMUj9pGdwUzaiYgOH3t7rt3pbNDbNW95NxufTqfoE+vX2ccCAND7752l99//aCDyKKcBQDi0cpdNl2+EpANgQq3epHKlZjuOdd260eHE1FS/UMj99pd+53JmjzpnKu0v/P0/PV6rN76xEnptEdPVLTbGQN5zWZnWzeLGVADcUqs2hiT+/ffPIhsPQEBs2LCeNl3+Kdp0+cbVTDoAwJp2p0sLiyXLMbzq1o0Oyxnpw7tvueoy+1Wcw1TaiYiefeWkqvb7I88tHf1qdBdmh/3Xu+PGVADYMDc3v5qRf/+9s/T+ex8hIw+ATy7btJE++clLVgV906ZPUaHIpDscABNDt6vQwmJpcOOpATzr1o0P96mQz33zzhuveMzZas5gLu3fe+OXJ5vN9rWD6ENLGXw1uhuzw/7kff3Fs5SR0s5iAABccfLEO/Tee2fp3Nw8vf/eRzQ3Nw+ZB2CEDRvW0yc/eQltuW5Q2rJp06fQIx0ABqzeeNpVxs6FIetERMlkUrnv1muYiyfzFiupVOqbRO2niWiw91V3XnsxdFiP9s6nRg/3Vw7byLtuvn7O0lKZ1l+MJ6YCwIMtJn++P3niHaqulNnMzc3TuY/nUWYDYo0m5psuH2TLt269kgqFPOQcAI4sLZfHhD0IWR8/tfZKSqfedraqO5hn2omIDr52ptFVlOzwSsYvgqh3JyKS0mk8MRUAQXj/vbNUq9Vpbm6e5ubmBzX07300OAexBwJSKORo06aBfG+5bvAhddOmT1GxmKMNn7wEN4YCEALLpSo1mmudYph2hLGYbybr2pfTxfwtX7rh00x6s+vhIu0/+Nm7T9brza8br2j8Igh5T6dT9FvrL7KfAwAQgpMn3ln9+oTua73ka1RrDfrgfWY36YOYsmXL5vFj1639pahQyNPlusw4bgIFQEwazRYtl6pEJI6sExFJ6XRp786rubQv5FIvkkwm/2IqMfX1vmrwrsdKZoiIpswqY0xLZgan+q5KZrpdhZZKFbpodtp6DgBACPTCBHkCAABARNRqtWm5VPUk64Nh/uvWzV5KUuo5Z7twD5dMOxHR86//8oNmq30pkdMs+pT5KQcn3NysOl3I03Qx72w8AAAAAAAQAq1TTK+vrh0MoW7daE4iMdW///YtCWe7cQ+3wKlU8m+0d9Qnk+/H0InhUabfP5Ng/ZX/2dInqlTrVG/aPy0LAAAAAACIQa/Xo/nF5TVhNxXMYUwd0WL+uJX2Lef0iUjKSKftd+MdbtJ+541XPJFMJhWTtzyMibxb/ix8yvvycoXa7Y7tOAAAAAAAEC6q2qeF5fKgF7tfWSfz+W5lXR8qnUr9e/tdeYebtBMRZTOZpwZfecmiu5B3w8P28r5o0CYIAAAAAACIxfzSMnU7ChtZt026O5d17ZSUTpV2cegYo4ertCeTib9ITE31/Ym4gzmW31DzH5yq9ml+cZlUoxtmAQAAAABA6CyVKgNht8G/rNPwKxfZeElKc7sBVYPbjagazx97e/WG1MGKQ8sbHzYeMjaKVZvIdDpFl1y8Dj3cAQAAAAAEYqlUoUbD+j5E/+0bR4647CKTmJrqP3DHVq6JcCLOmXYionQ69cdDB8ay6Gtf8b5ZdXBq/FNYt6sg4w4AAAAAIBC1esNS2L1k1mnssLObTK2y8bKcOWa6SYZwl/ZdN16xX5LSpaGDvkXc382qg1PDP+huV6HlUsUsEgAAAAAACIh6o0Wlcs3wnB9Z93qTqdWcVCr1J8az2cJd2omI0un0c26y6M5FnK28N1ttWoK4AwAAAACERr3RMkykBi3rTuZk5cyHvG9A1QhE2nffvPmRZDKp8BNxdvLeaLQg7gAAAAAAIWBU+SCirGukUqm/MY7EnkCknYhIzqR/SuRAqodeOBRxL3Ms5L3eaFKlWjebDQAAAAAAGKPdY6jBXNaJmM5JpVLNO2+64gnjs+wJTNpTqdTDiQT1baV67IQDEfcyx+ZkuVqjeqNpNhMAAAAAADBC3xSEm6wbzBs/7HxOJiN9x3gnfODe8lHP4WNvDbd/DKzlo4N1TE5eNDtN+VzWahYAAAAAAPCIJuw9VTUfZKGrptJtMW/8sLNsvEYymVAeuH1L2nxX7Aks005EJKXTXx3PiK99ZZ9Ft/wMZTJn+IDbzPtSqYKMOwAAAAAAB7pdhS4sLpkLu+PMOtGYeDsSdvu6daN15Iz0U+Po/AhU2nfdeMUbckY6ZyfihvieMzzSjbxD3AEAAAAA2KKqfVpYKhk/J8e1rFuL9/gp53NGIyQSU/1UMvWw8Qx+BCrtRERpKf0tY/f2kg33N8fNPIg7AAAAAAAbVLVPFxaXSOn1hk8IJOtmczJp6Ve7bvz0WeOZ/Ahc2u+6afMTkpQumVSvDL0QTd4h7gAAAAAA/tCEvdtV1g5GQNa1LyUp/VXj2XwJXNqJiDJS+jkiy+qVobMiyfvSMsQdAAAAAMALY8IepKwT+Z4jy5kPd914RSAPUxolFGnfffOVjySTydWPVxYOPXTAVsS9zPEg7xB3AAAAAAB3DAl7GLJuMM94LfNlpXT6j41X508o0k5ElMtKT40es5d3k1OWc/jIO8QdAAAAAMAZq8LeUQSW9fG19OMkKV2686Yr9hvvgj+hSfvum696JJlMKEbnzB3aYTacqbybz4O4AwAAAABYo6p9urCwIuwGGNudOLKuIWekPzfeSTCEJu1ERLls5imrn4YY8m49D+IOAAAAAGBMt6sMhL07LuxepNvvPMOBDj4jSFK6dNdNm58wjhwMoUr77puveiQxNWX7UcqNvNsHGD7AQt4h7gAAAAAAw5gJexiybjjPIIRZhLCz7EQhSzsRUVaWj1mJuB4TfyYzmTYMwEneIe4AAAAAAAM0Ydc/OElkWbdKG4uQZScSQNpT6dTDicTUmgGvYvwttPDnoRdhyPvicoWqtYbZbAAAAACA2KMXds2UoijrGrKUCT3LTkQ01e+b/zEgKA4fe/tIvdHcMaU/ODU6auyAg2FT5uMcBvEyL5/L0sXrpq1mAgAAAADEDk3Ye+qoX/YtX5qfYjDPcYjxgZKULt1327XrzFcNjtAz7URE6ZVsu3WVjJPPQqMHAsq8j6xXbzRpcbliNgsAAAAAIHbUG02au7A4IuwGme6gMus0/qUjYdcNlDNiZNmJBMm0E61l2/XHzDPv5vlvp9l6Lpn3kQH5XA4ZdwAAAADEnvGEpXmmexTmmXVXy5sLfkagLDuRIJl2orVsu/6YeebdYRUSp9p1p3PrjQadu7BAqqqajQYAAAAAiDRrwj5iSQ6y4zxr3e0z6+MD9XNEyrIuWEnZAAAgAElEQVQTCZRpJyL6/k/f+U6lWn/I7HxomXebQHZZeymdok+sv4gSCWE+IwEAAAAA+GZxuUL1xkgTDsfZcYMjIWbW9YiWZScSKNNORLT75iu/kkomjR+XRc5q143m+M682wSyy7x3Ogqdu7BInW7XagUAAAAAgMiwuFweFnbH2fGRI4xq3b1k1omM54iWZScSTNqJiLLZzFNW5y282+is9TCDeW7KX9zIu6L06ML8EsQdAAAAAJFGVVU6d2Fh8HwaV8I9coRR+YwfWTeal5HSpbtuDr8v+yjCSfuXt131SCqRMM22azCRd5t57uXdOmuvqn26ML9E9ToewgQAAACA6KGqKl1YWKJOR7EtZRk3KueybnjEeRjLgXbVFSJm2YkElHYiomxWfor6fSIH9fZiyfvwAaMPn6raH/w5CeIOAAAAgAjR6Xbp43PzA2E3wWl23HreyBFX0u1d1omIstnMhyJm2YkElfYv33LVI5KULhERxUHejU4vLpdpcalsFg0AAAAAQBiazRZdmB885XQUN6UsZnMNjwQo64OBfcqk0191MjQMhJR2IiJZzvz5sD/HT97rjSbNLy6jJSQAAAAAhKVeb9L8YmlM2C2F23iAs7khyDr1+5TNyh/eedPmN5xMCQNhpX33zVc+kVnJtosn732bKGNDx0Zrr5rN9sonV4g7AAAAAMRicalMi8vDlQGOhNuRrI8MDknWiYimEol+RpJudzItLISVdiKibFberX8tjrwPH7D95bAR/3ZXoX85N4/OMgAAAAAQAlVV6fz80qBDDBm5uLVwj2JZsxCirGtzctnMsTtvuuKsk+lhIbS033XT5jdyWfnD0eNhyLv50HF5t82+GxxQ1T6dn1+iGm5QBQAAAECIdLpdujC/RO12xzqrbvDSaKQTWbd1KE6yTkSUSiaVdCr9sJMQYSK0tBMRZSTp9kQiYfizCFLe7Yda/lo62oTWWWapVLF4BwAAAAAAfGi1OwNh7yq+Zd3JXHvhZivr2jw92az8lOhZdiKiqb4D0Q2bw8feOlKrN3fYjZsaejFlNsx8jrMDDodOmZ9yECyXlenidTOUSAj/uQoAAAAAMaBSq9Nyqao7MuKINso4frpvetJe1D1vQzdw/KPDKOl0qrnvjq05pyHDJBJGuGf71TtTyaS7By65zLw7zaBbnjEMNP5nGCfBGs0WnccTVAEAAADAGVVVaXGprBN2dylt41oDL9lx68F+Mutm83JZ+Y+chBSBSEg7EVEuK/+lEwkn8ibv4/No5CfsVd6HD4x9SLAI1ul26fz8IjWaLUf7BwAAAABwg6L0BvfUNZrkpQTGVI0ZybqtNw2FcS7rRESynDm3++YrhXyQkhGRkfYv33LVYxlJKnmXcLHk3TrS2km116f5xWUqVapmIwEAAAAAXNNqd2jugta9zpklj5/iK+uOcCnrRESJRKIvS9L9TpcQgchIOxGRnM38nn8J9ynv5jY/Ns/pXNtfrj5RuVyj8/OL6OcOAAAAAN9UavUVr3BmyW5k3T47zl7W3Wbkc3Lm2F03i/sgJSMiJe27b75yfz6XPcVGwj3OGw80etbDXGe/cK1Wh+bOL6DOHQAAAACeUFWV5heXablUcZxVH08zGtu5vTT7masPMy7rbualkkkllU497HSaKERK2omIJCm9R2sBKaa8W2ffnR4wi6QoPZo7t4B+7gAAAABwRafbpbnzC9RotJhl1Y3HG801tvMgZV2bl8tl//KumzYL3+JxlEi0fBzl+dfffrJSrX999LiXlo/M5jk74GK4fcvIQj5L62an0RYSAAAAAJbU6k1aLpXXymEMGD/TN31pb4/mc53N1w8eTmr6mZeRpNIDd2xZ5yaMKETS9u6+5TOPZCSpNHqcaeadc7tI++H2pTO1epPOX0BbSAAAAAAYM2jnWKLFpZKhsHMtgRl5aV2TYBSKTWZdPy+XlXc7DSMakZR2IqJsNvN7ZufYlb94FX+zA07XtT6gf9Xpdun8hUWqVOuO9gkAAACAyWDgCEuGJbVsS2BGRrgWfX2Y4eQpS8kv5HNHo3bzqZ5IlsdoHDxy5mS90bzWbhy78hdRSmfGD0zRylNUL8JTVAEAAIBJp1KtD2421eGm/MV4POv5+sHjHyG8zDWbl0omlYe+eH3aTVjRiLTdSenUHl5PSh2b53uu7QFf8/tEVG+2aO78ArXaHUd7BAAAAEC8UFWV5heWh4Sda1bd03x9qGG34lU+k89n/8BpWFGJdKadiOj5199+vFypfWMqjAy6i3nG61qetZ5rE3B2ukCzM0WnWwMAAABAxGm1OzS/sESq2nedVTc55DiGa5v0mln3MC8rZ87dd9u1n3S6hKhEOtNORHT3LZ95LCtnzvX7fXL6AYRd7brzecbrDgUzGjE21Gn2vVSp0bkLi6QoPcf7AwAAAEA0WSpV6PyFReqNCbuzrLj93/4Z1KsTGWbHHc33mJFPJBJ9OSPd4GaLohJ5aScikuXM/au921fk3YnAM5f3sEtnRj4AtNpt+vj8PHq6AwAAADGl0+3Sx+cWqFKt07jSGos2jb80gEMJjM+bS93O7ff7lJUzT99185WR68luROTLYzQOHX3rULVW32N0zmnpDNsbT1mWzhgecDU8l83SetykCgAAAMSGSrVOS0M3m1qXwPgpf3E2fzScxxIYH3P1XpvJSKV9d2yNZE92I2JjcHt3XL03kxnv3U5EwWfeXc41nm97wNn8lYONZpN+M3eBGs2W4z0BAAAAQDwUpUfnLiyuCLtgWXUiX9lxr3NHXS+RSPSj3JPdiNhIO9GgYb5WJmOEW3kfK39xgOlcv6UzfdMD1uvrDqqqShcWlmhhqUSqqjraDwAAAADEoVKt08fn56nVbpMT0bZP9/EtgfEi627mmrldPpd9fvfNV0a2J7sRsSmP0Th45MyRWr2xw8nYUDrOuJxrPN/2gG2MVDpJ6y+aJTmTcbUXAAAAAASPovRoYWl5uK2zp/KV6JfADKaaj5bS6eaDX7gu52YrUSBWmXYiont2fnanlE47uvMylI4zLucazx896PzztIbS7dG584u0tFxG1h0AAAAQmLXsesdn+Uu0S2AGU+3dLZ+Tv+Z0K1EidtJO5P6HFbS8+y2dMRR48wOWMSrVOv3mY9S6AwAAAKIxqF1foKVSmdSe6rL8hcZHjEzyXMLCoATGYHc2U525WiGfO7p721X7nW4pSsSuPEbj4JHTR2r1pqMymVHclM0QsX7gks/5xkEdxcllZVp/8Sw6zAAAAAAhU6nWqVSuDv01nEX5i/M4+gk+SmB8znfjqXEti9GIrZ3ds/OanZKULnn5UOIm807EJnuuW5xj9t06A19vtug3H1+gWr3haG0AAAAAsKXT6dLH5+aHyledZaSdlb8EXgLjMSvv1sUSiUQ/k5HuczwhgsRW2omI8ivdZNz+4DXcPKiJiHHpjMv5hjGcGf0QPVWl+cUSzZ1fwNNUAQAAgIBQVZVK5Sp9fG6eOp2uy/IX83oXz6IeYgmMF2fL5+Tn9+64+kXXEyNEbMtjNA4dPXOoUh1+6JLb8hevc9l3jXG/b2eVMuZxZ2eKtG6m6HpdAAAAADij1WrTwlKJuo6SZfb1Lp7MLiIlMEZzMxmp9ODnr4vNQ5TMiHWmnYho747Pjj10yeunOLdzxzPfPktfXM43jjF6wPQgERGVylX69cfnqdVqO14TAAAAAPYoSo/Ozy/R3IVFG2G3SKGbJ9ntYZVVD6gExmhuIpHo52P2ECUzUmFvIAjyuey13a7y/1RVHUopa78oXjLvbudqv5Kro7Vf0oDmG8fQnRw7uBZXUXo0d2GRclmZLl43Q6lU0vGaAAAAABhnuVylSrVu03bZPoUetaz6YLq/zLqeYiH/rd3brorVQ5TMiH15jMbhY28/Xq5Uv2E3LiqlM9xiGAde/SqRSNB0MY+SGQAAAMADrVab5pdKFveNCSrqPmOwFHWNrJw598AdWz/pOXDEmBhpJyJ67rVTJ2v15rVOxgYl70S82j7yrX9PpZJ0yUWzJMt4oioAAABgh6L0aHG5bPJclGDq1D3FESirrieVSirTxcJlu2++8qznBSLGRJTHaEiStEfqKO92ut2s3dgols74iWEYx6J8RlEUmruwSHJGoksuXoeSGQAAAMAAVVWpXK0blMJwEnWi0LPqg+l8ZF2jkM/9wSQJO9GEZdqJiL73xi/3LZcqT7ud5yfz7mV+tMpniGZnpmmmmMeDmQAAAIAVavUGLZerulIYZ7UuUSx/GUz355RO5xcLuaP37Lxmp6/FIsjESTsR0cEjZw5Va8NtIN0QpdIZwxhM46x9mUgkaN1MkaaLBdexAQAAgLjQarVpuVylVrtDQYo6qziiyjoRTUx7RyMmMi16z87P7pXlzLkg2j76ncul7aM+jgvsukWqqkqLy2X69cfnTGr2AAAAgPiy1sJxgVrtNlm1aDQ55AyTBxgF2u6R2PiQ26eeTkp7RyMmqqZdT07O3NDtKr9SFCVBFEztutFcN/NNa98HQVzFWI3jIYZhHN1Bpduj8/OLJGcytG6miJtVAQAAxBpVVVdaONaGT7DKqBOxKX9hECfIrPooxUJuYto7GjGR5TEazx97+9HlcuWv9ceCLH1hMV+k8hmzWIVCjtbNTONmVQAAALFicJNpbfgmU46i7jkWA+EPU9b7/T4V8rlT99127RZfm4g4Ey3tRESHjr71o3Kl+sXR42EIuJ/5fOvW2Qg85B0AAEBcqNUbtLhcHsh6BETdS5wwRV0/X5LSza988XM5X8FiwETWtOvZu+Pq381m5XOjx73UWhnN94rv2vdBEEZ16+7r6I1i1WoN+vW/nKPlUsXmCXAAAACAmNTqDfr1x+dofmGZ1N6wsPuuUfdbp66P5SNO0A5jNFebn0gk+oV87gueNxMjJramXc+gvr37gaL0DL8fQfZsN5vvJgbfuvW+6zijsUorj26eLuZpZrqANpEAAACEp1Zv0HKpMvYkU1+5ZEHq1Ach/Fde8OjNPl3Mf+vLE1zHrmfiy2M0nn/9bcf926NWOkPEuW7dx/tJJhKQdwAAAMJSqzVouTws6yKKutdYopTAGFEs5I/ee+vk9WM3A9Ku4+CRM09WqrWvOx0ftrx7jSGiwCcSCZqBvAMAABCEUVmHqLONYTdfzkilB79w/UT2YzcD0j7CMy+f/KDeaF7q1j1jI/B+uucwiAV5BwAAECaarHdHymBcw0rUGcWKgqhrpFJJZaZYuGz3tqvO+lowZkDaR/j7dz+e/dXZf/m40+lmidx7Z1TlnYizwLuMl0gkqJjP0cx0Ad1mAAAAcKdWa9BSebxm3RWCifogTHRknWhw4+nMdOGhu2/5zH5fi8YQSLsB33v97W3L5eoxVe0PWaYbhw1Tvv3GYFk+wyJeEa0iAQAAcEBVVSpXalStN7zJOqv2jIzjiSDqbmNoQ2emC9++Z+dnH/G9eAyBtJtw+Nhbjy6XtAcvDQtmFLPvXuOIJPD5nEzTxQJl8YRVAAAAPlCUHlVrdSrrH4rklBiLOos4bufrhxfyuVP33z7ZD1CyAtJuwcEjZ54sV6ojN6auCWbQ8h52DFEEXpYzVMznqFiY+OcsAAAAcIGi9Gi5XKFqreFuoqCiPggVvaz6YPzwazmTLj30xc/hxlMLIO02PPPyiQ/qjeal42cmN/tOJIbAp1JJmikWqFjI4aZVAAAApjRbbVouV6nVajufFHNRZxHHr6hr34FUKqnMTBcv+zJuPLUE0u6A//ujf2xoN6aOE668s4rhJ04gAm8REzetAgAAGEVVVao3WmM91k0x8SGIuv8YZrJONLjxdHamiBtPHYAnojqgWMhvLleqJk9M1X7xBkLp9oGhXp54yiOGnziWT04dBHO3j5HXdjFVVaVytUblao3yOZkK+Tzlc7KrNQEAAMQDRemt3lxqW6/OOpvOOGaURX0wZ+zI2JjpYv5bEHZnINPukOdff3tfqVz9rqqqDgw0Ptl3P7FYZ+BNYxrERekMAABMFvVGi8rVmnUJDI9sukncsEWdVSyWWfVRpouFw/fees1e97uaTCDtLjh09MzjpXL1G85n+JP3wRwIvKuYBnGLhRwV8jl0nQEAgJihdYGxbNkYAVEfhIt/Vl1PPpf98IE7tl7meqEJBtLukoNHzjxZKle/7t43w8++s4zjJ5bbmnVWcZF9BwCAeFBvtKhWr1O90Ro/GaCk+40rkqh7ieNW1DXkjIROMR6AtHtg/0trHWWClvfBnPgIPBGfLLxd3GIhR7lsFrXvAAAQEbRa9XqzOZ5V51Gbzilu1EV9MGfsiOO5kpRuFvP5zV++BZ1i3AJp98jTP3lzrtFsb9Bee3NMMQSepbz7jReowBNRKp2ifDaLzjMAACAgWgeYcrVGnU537QSvbLpJbBGy6azjBZVV1zM1leivmy1uv/uWz7zhejJA9xiv5LLyDUqv9+6gFeSUx2Yp/jrPDOb0V+YE3zWGRzzbTjSDoO73NPJai6B0FSp3q1SuVEmS0jQzXaR8Tkb5DAAAhEi90aJGs7n2EKSAJd1v7LiI+mDO2BFP83WtHSHsHkGm3Qffe/3tjaVK7QNFUVY+/PjPnIuSfWcZh1U8Xll4o9j5XJZyOZmKhTyT+AAAAKzpdLpUrTUGrRp7xjeVMjMWgcteWMcLQ9SNYqybKX5z787PPuY6EFgF0u6Tw8feMmkF6Ve+WXwAmDCBHwT2FXc0fiKRoHxOplwuS/mcyfO1AAAAeEIT9XrDuPsLT0lnET9Ooj6YN3aEyfzZmeK379l5zSOeNgVWgbQzwFzcieKWfWcdi1U8nll4LT4EHgAA/DMQ9TrVG+M3lDI1Ek43p4oq6l5j8ciq62MUC7lT99++dYvroGAMSDsjDh058/hyuWLTw51t9t1bDLEFnkVM3ll4IqKkTuCzcgY18AAAYIGZqPOWdFZrxF/Uifxn1cdj5HPZD/d9/jr0YmcEpJ0hzx05PejhbjtSjOz7YF68BZ4oGIkvrNTA53NZCDwAABBRvdGkRqNJzVZ7VdQnVdJZxwyr/MVNDAg7eyDtjNHEnchCFoeAwAcdk7fES1Kapgt5ysoZkqQ0k5gAACA6g/aMTWo0WtRstUlV1chI+iA8RN15DOs4kpRuFgv5zXff8hn0YmcIpJ0D+186/kFt5eFLGmFk373HEV/gWcW1jMAgfiqVpKycoTzKaAAAMaTT6VK90aR6o0ltfR91Flj4iajZdNZx2Yk6Ec+suv6sJKWb0xB2LkDaObH/peMf1OqNS0fFL6zsu/c4Yt54yismb4nPyhmSVyQ+gyw8ACBiKIpCzVabWq021RotUlWVXXDOkj5YQuxsup94YYm6fgSEnS+Qdo6siruGa4FnU/bCLk40BJ5lXJ4Sn0gkKCtnVjLxMqVSeNYZAEAsVFWlZqtNzVbbsNuLLyIq6Tzi+onHovzFS5zRs4mpqf5F62Z+G8LOD0g7Z8bEnciDvI+PgsCHE5unxGulNINaeAmZeABA4OglvdlqU4dlyUuEJZ1H7CiKuuGIfp8SiUR/3cz0Q3t2XL3f00aAIyDtAfB/XvyHRqfTNW7s7TP7bhDCIezKZwZzJ0/gV+OZL+Qrrj4TL0lpysoZX/EAAGAUrdyl2WpTu9ONnKQPlplUUScK4qZSw7O6IBD24MDf4wNguljYXKnW3jUUd+0Xf0XwtP8bmOue/v86U0MhdGEcwCrOSjTdZBZSPPoPG0vRZh179B+z1WhG/zK6WEvrxFBvNFeP6QU+I6VRUgMAcIU+g651eGFCQII+WCo6ku43JitRN47lLauuB8IeLMi0B8Tzr7+90VTcRxGofMZfLLFvOg0qfhB18XqRR4caAAARrcp5u9OJbBZ9sBRfT4Go24wweS8Q9uCBtAeIK3EnMhQ6CHxwcXnG5y3yGSlNsi4bj/p4AOKLqqrUXsmcK4oSaUEfLBc9Sfcbl6+o28cynmI+B8IeDpD2gHEt7hoMsu8GYdxsgGGsaNWsBxU/iHaTqVSSUqkUZeUMpVe+BgBEA03OO50udRVlJYveDaztIhEknWXssEXdcISD9wNhDw9Iewho4t7udLPe7iGNl8AP5kczC89zHduIDJ/gmk6lVv6bXM3Mo8wGgHDQas3bnS4pikKK0mMv50SxFHTe6/iNG1VR14CwhwukPST04k7kVLxHYFQ+YxLK6SYYxtLmRzcLz3sdR1EZrq11rJFX/qu9htQD4B1NwDudLvVW/qtJOnMxJ3IkZbxMIOqSziK2kKJuHsyURCLRn52ZfmgvhD00IO0h8vyxtzZWqvV3293hUhkIvH5+NEtdgl4nqKz8KKlUktIrJTaa2OvLblCCAyYFTbpHv9Yy5ZqccyeE7Pnw8tGXdBbx4yLqWhwtww5hDxdIe8isinunk/VW9mKA5zh8Bd5fPG1+PCQ+iLWCzsrbod0gq6HV1+t3IFlk8PEBALBGL9dGtFpty/HdFSEPhRCz52tbCM4foinpRH5+Cl4foOSn/MUoDoRdHCDtAjAk7hqxEnge8bQY8ZH4oNYTTebt8L0Tgd4LCAi/AsZoG0wQQM4H2wj2uxLEeiJl081jhiPqGompqf662emH9u74LIRdACDtAvH0T978oFZvXDp00HPZy+gkP3Eg8EGuEdaajlcRVIKZ7krQ9ziRMLxGCXu1c/geg9p/GF4QBUkfxDA8Gko8luUvRnESiQSEXTAg7YJhKO4aEyLw/mNqMeIp8UGv62qlCMluIDuN0PeDC7xLGrhGZ4yL70WQ7yssB4i2pBNFXdQNY+nipFMpZXq68G8h7GIBaRcQS3HX4FQ+4y4Wj4w5nyz8IE48bjoVad24Cr0V8XgXYhGbq5CgYr66ZowFneU6wZS9OI8ZlKhrZCSpOV3Mb757+9VnPS0CuAFpF5Tvroi7l/rjOAs8m7hanHhLfNjrs/or0KQh6ndg4q8UrMoOAiDs63rUblDlkU03jyuAqFvEgrCLDaRdYA68eurJ5XLl60Tebx6Mj8DzjBvPG05F3wPL300AfMFShgJEhOt3VG9Q5ZFN9xs3LFHXyEhSs1jMb94DYRcWSLvg6MVdI+oCbxLSJfHIwoe9phGi7IPIZ9ZZoPcBQiImXWREuk7HS9KJ+GTTnccNW9S1eYV87sOHvnD9ZZ4WBoEBaY8AB1499WS5Uvt3al8ds5BoCbzxaF5ZeHaxtViTl43XI9p+NJjtStD3B3SwEjgmUdgj2vU4qoI+iGV6JvTYooi6BoQ9OkDaI8KhI2f2LZUq31XVFXE38AsIvP0uoizxYa9rhYh7MoL7LiPyfQgFdJIhIvHEnCg+N6gGL+o+bzz28f699mUfHTVTLBx94I6tOz1vBAQKpD1CHDpyZl+5Uvu7rqIMPxZyxBO89tvmUYoQfhkN79j6eOEJm+jSLPr+7Ij27qNF1K9Iol9Tw9xf9CXdeWzz6eGLunZg3ez0t++77dpHPG8IBA6kPWIcPvbWxkqltvL0VPt0eygCbxDPfUx+N50GJfGDmBB5J0Rpr6yIwzuexKtHlK6ZcRL0QUzTMxzjh5dNN4zpU9SJiBKJRH92pvite2+95jEfWwMhAGmPIIePvbWx0Wj+Q73R3LB21N7WvQq8q7lc4vGW7GDKaQbxwlc1EfbghajuG0SHqF4PRdh3fCTdXXyhRd3gYCIx1b9oduahvTvx0KQoAmmPMN/58S8+qBs+hClaAu8+ZnwkfhBTDBkVZR9+icv7AOyIy3VOlPcRrKATiSTppqNZlr24iOfsjwODAxlJak5PF9DSMcJA2iPOs6+efHK5ZNbL3ZmtQ+C9rcF+HX1cscRTtP2wJM7vLa7E+bol2nvjtZ8gJN16HZ/ZdOvg3mIyFfXhg7KcWSgW8tdD2KMNpD0GHHjt1OOlcvUPVzvLUAQFnlnMoOrVg6uLX4stplyKuq+gmPT374VJv+6I+v557itKkm46mkfff46irr0q5HMffuWLn0NLxxgAaY8JB4+c2VeuVMc6yzjOZUdA4L3FDVfi+aw1Gl9caRR5b3HCzfcZ/+YHg+jf5zgIuvVaDCTdegHvcTmLuv7Iutnpb99/2xZ0iIkJkPYYcfjYWxvLq51lxomswJvE9RY7fInns95o/GjIclT2CcAoUbl28t6nffjJknTT2AGKOtGgQ8y62en/cO/Oa55wtDCIBJD2GPKdH//ig5rhDaprhCXwrua7jO0tbpBlLuGK/GCN6ElyFPcMok0Ur4tB7DloQbde0/1agWbTXcRlJeoaGUlqFgv5r92DDjGxA9IeU555+cShUrm6x4nJBiLwRBHIwpvP4ueN4Yv8YJ3oi3Ec3gPgSxyud0G9hzAE3XpdcSTdNLaLuKxFXSOfy57L57I34IbTeAJpjzHPvXb60eVS5a9Wb1AVXOBdxwgkdhi16mKI/GCt+IpwnN/bpBDn61eQ7008Qfe2ZuCS7jI2L1HXmCkWju77/HU7HW8IRA5Ie8w5dPTMtkql/pOxOnfOAu9wCd1gTll4k9je44d1w6k4Ir+25uRK7yS/d9ZM8jUojPcelqDbry2WpLOI7+6PBt5EnfprTzi977Zr8YTTmANpnwAOHz2zsdFqvVKrNS71miK3UFWvhywW45iF5xJfTJHnv77d2hBbv4T9PcT1wR9hfv+cLR2WoHtbW3RJN43hwt7d/tgyktQsFlG/PilA2ieIQZ17Zc/aEe92HVgZDRHfLLxJfH9rhNf+0W791REC+HTYQgqAX0S4foYt56srcGjzyFvSWa3Bu+zFbGA+Jw/q13d8FvXrEwKkfcI4eOT0vqXl8nf1D2IaEI7Au1hmZTDnLDy3NcQXeSIxZF4DUg/CRqTro/OtRFPQLWdGQdJNT7AVde3g7Mz04Qfu2LrXaSgQDyDtE8iho2c2Vmv1U81We9avcDsb5tzWWWThPcXxsIa/dUSqUY+e0OuB3AO3iHrdc9yYY1UAABHkSURBVLetaHeRsfZ+sSTdNA7rshcHC632X7/1WvRfn0Ag7RPM0y8dP1KuVHdor4MReHcxJ0fi7WcH76bOF4ySN0Py40eUrmMiivnqahxvUo2FpJueMB7NStQ1ZDlTKhby1+5FOczEAmmfcJ577dSjy6XKX/VGymVYC7yrmP6XWpnAS66DXEvU+vR4Cr0VkH3+xOV6JLKYE/Gvgw9K0FmvFVg23cVi2pGZ6eLRB9HOceKBtIOhchmj88EJvLu4UZV4NuuJlpUfWt39jAn24Sh+GJjk64a3ty5yFxl/e7MPHzFJNz3hM5vuIq7+SBLlMEAHpB2sMlouY4TfbLm7Ye7iCi3xNuuxWVPUrPwo3jYhxt5BnPF+OQz/OhpEF5mgBd12Ta6Sbn7C/z3BzrL0spxZmC7kr0c5DNCAtIMhDr52el+pUv27rqKk7MayyJb7juv+sMXCAUu8zZrs1o3ijaY+bvEV6n0AEfB3mRPnGhlkB5kwBN12XdEl3XSw+7jr0B0GGABpB2McOnpmY7PZeqVaa1zKpWbdpVSxyu57crkgbmx1uCb7taMo83oYfieEfY9gFLaXLDGvf0G3dwxL0C3X9rCmt06UPmvTTSd4i5uRpOZ0Mf+1e3Zeg4clgTEg7cCUA6+efLxUqv7h6k2qAd506i6ut9gsJd5zPAbrsl8/rjeZ8ttstL4P4cL/khONa1pYN6sKKege12Ul6baxfMR2E3e6UDgly9IelMMAMyDtwJKDR05vq9Ua3ze8STXA1o9MYtvEZy3xnmMyWpvP+u4iRl9mI/8GIky0r03uL60B3rC5OigkQfe4dmiSbjqBTc17MpHoz84Wv3XfbVsec7stMFlA2oEj9r98/NByqbKHiGgq5NaP7mN7i+9Z18LKxjtYf3UIn4Xdz5hIJ47jm56864goXWTClvPVJTisL56kG5/wk6XP57Ln8vnsDciuAydA2oFjnnvt1L5Krf6/2+1OVjvGR+AtzkRR4onCF3mbPQwN47cBb7Pi6LhAaETrIuM8cxvM9ZyHoNvHdXeC3WcqPuU0icRUf3Z2+lv3I7sOXABpB655+idvHikZtIY0FPjBCcfwzMJbT/Fm6zyy8b7ieiF0mWezCuQe2CF6FxnR5JyIXw28N0E3P8n2Dx98bk7trxzMynKpWMjtvmfnNW+4DQsmG0g78IRR1l0PP4G3OBNliScKsazFakEXN6Vy3AaPlSD50Yfd5UuADPXY4GCvzbzLbKIm6a7XMBnc151IJhL96enC8/vuuA6tHIEnIO3AF2ZZ91H8ltFYDw9C4m3O8hJ5IrGy8kMLiyj0wa0M6fcP38tPONc2kcV8dVnbAf72xVrQbae5nsSv7r1vEgXZdcACSDvwjV3WfRQWWXjr4WJLvMetjAQQMCs/tLiHm1I5bMM7Yu2GKJgPCWJeDsTZlDdxDG//Qdykav8BwNvJqEj64LB5pGQi0Z+ZKf6vB27f+ojb5QAYBdIOmLH/peOHKpXa3T1VNfVyI/hm4S3OMpd4mxG8RZ5IfJnX8GigQuzdNdHctX+idW3xfu9p+O8zqA4y/gTdekAQku5pHRfZ9FHyuey5Qi53w96d6AwD2ABpB0w5eOT0tmqt8f1ms7XW192vwLuMYT+cncR7XovNaedEReb1+EwtC/d+QOD4vroJdn0M8kZV4QTdciJfSR8cdh4pnUop08XCX95/OzrDALZA2gEXnn3lxPDTVPXEXOI9r8fmtDuE6hzjEcZ1I0K/1wmG6ZVK4OteGB1keAq6o+muJ4ol6fqh08XCqayc2YPsOuABpB1w4+CR0xtbrfbhcrV2LRGrMpgQJd7DOs6n+Tf1MGSe+bpBENAdpJH7vnAgsKtLxK5jYd2s6qyMxt8A9oJufTIUSTeIk8lIzeli/mv33nrtfrdbAsApkHbAnQOvnny0Uqv/V9uHMg1OOMaycF5wiXc2lY2pM5dHl9IbK3lFyxh+xOha5F4k2b53NnJuP8jXrkOW9MEpb9l0PYnEVH96uvD8g5+/Hm0cAXcg7SAwnn7pzbUbVUfgmoX3EMt+Slgi72CUw/W56eckS71fRP5QgGvFKqJ0kXFeSuM/UiQE3Wai32z6aJxiIf9hLivffs/Oa1AKAwIB0g4C5eCR0xsbzdYr1Vr9UrMx7EpgBJF4j+u5m84u5c5dGyeqcwyIEqJ2kGEn584G8RN06wFsO8iwl3SNTEZqThfyf3TfbVuecLcAAP6AtINQOPDqyUdrjeafDXWZMUFUibefFrbIu1hEFKEnQtcYwJwodJFhK+bOBjJ5Vx6z6J7XD0HSNbSe6/vuuA4910EoQNpBqOx/+fiT1Vrja91uN+FkPNs69mjecOp/Dy4WYnpvAGMYlpJA9KNDVLvIsKzFdjuQv5zbD+BxgyorSXcSa6ZYOCXLmT0ohQFhAmkHoXPwyOmN7U7nqWq1vt2wRaQF7Etggm7/6GAEI6Pk0g9GZKkfW5zv6hB/e7hfbUR/+qjnCc4GM3v3YQm6zWTXkm4Rz2msbFYuFQv53ffuvOYN94sDwBZIOxCG546c3tZstv7Wqt7djsAk3mM851ODa9bO7bZR5vcNhITIN4fGFQGvS6xLOfwMZvvXBn8DhBJ0i5hu46FuHYgIpB0Ix4FXTj5aazqrd7cjKhLvbHrw/R2594HhVoYUAeLwYSAG1w8+fcX9T2L+nQ27xaNNAJZZdM/xiCidTinFQv4p1K0DEYG0A2E58MrJR0uV6n/rdpUUuxIRHnXsYYq8w1Ec/NB9yPAMPQZ6DBwSTP02m4lcrr4idJCxCcA6i+4r5grJRKJfLOaPZSTpYdStA1GBtAPh2f/S8SertfrD3a6SIiLGpSEBS7yPuO5DhCPz/sJyb3IfdkjgkPCElu1kbldYUeTcQRARJV3P7HTxaCYDWQfiA2kHkeHpn5g8nIl5SUicRd7FSM7GGorYcwwl4HKBEviVJNjCbv5b8LVAgDeqRlzQ9WsVC/kPs1n5q/feiptMQTSAtINIcfDI6Y2tdueparW2XVX7xg4UAYm3jesztrcwfG8y9QKbZThuNs4Wzhuulx7/wQO7Mka4i4wvmQ5B0jUg6yCqQNpBJNHLu5Z559Gu0TgcP9m2je0zvvdQYvd2ZL9cxGzczXYj908+2w2L/xeBgMXcYTBegu47tov1CoXch7ms/NV7b70Wsg4iCaQdRBojedcISuIt12K0prgy73FhAZw42C0I8IYDI9hrSuhXsCh1keEt5w7WYC7oFmtqaxULecg6iAWQdhALrORdI0iJt1yP0bqORJ7BOv7Dxa+vo8BbixxCX4Gi2kXGYcBICrrFuqPrQdZB3IC0g1jhRN41eLZq9LQmo3XDknl/YcXqGiMiQbzNibkaBNxFJtwOMozkWTBBt1oTsg7iCqQdxJKDR05v7HaVP63UamutIm0IQ+Jt12W4dtgy7z984HfmgqgQ1J2XvJf3uQAzcQ5L0G3WtlsXsg7iDqQdxJ79Lx1/0o286xFW5BmvL4rQs11GqD8lACsE7iQjWhcZpsIcRI27x/Wdrjt4KFLhmIw+62ACgLSDieHZV04+Wq83/qzRbM1y6bcegMwFlZV3tSbn9YNdTiAjF2ErQl0eJquLTFAdVbiu6WIPbtdOp1NKMZ//gZROP3rPrZB1MBlA2sHEceDVk/uarfZ/qVbrlw6diKvIrw0Mb22OexBzeRGMWxSCucaEfiULW8pd7IG7nA8WYb9+nyiTkZqFfO47+z5/3SPeggAQXSDtYGI58OqpbZ1O9z9Xa7XtvZ7BTasCP/2UyT7WBoa/h+FJQiLotmKFsFcjDxsLq6wksD0ML8RnH7ppxWL+QzmT+Zv7b9/yhLdgAEQfSDsARPT0S8efrNcbX2m3O1nTQRF4+qkTRCp38ST1a5Njh8hvKZZXCl/PCwqvlGR8aIA/nQCfkppMJvr5XPYfs7L8n+69DTeXAgBpB0DHM6+cfLTdbv9+RVc6Y9M30jNB32zqBJGEfngpJr0wQdxh0tlQHAEeHhrwtTrEp6RmMlIzn89950GUwAAwBKQdAAOee+30xna781St0bh5tOuMrfvxfmhSSPIZhfp1JnJvHBgEBbd23yFc60Soc3e2sM1p3g9hWs2q/0qWM398/21b9vtbEIB4AmkHwIb9Lx9/vNVqf7VWb24wGxO6yDNYww9Rrl3nJvrONxA9Qr5shCa3o4hW626/uIMh/AVdj7ySVU+nUn9xL7rAAGAJpB0Ahxx49dS2rtL9j9Va/a5B9t3atniL/CCE2DKvx7McC7J/O0KX/wggjGzbIXKtu7NNOBgSxFNSjUFWHQBvQNoB8MAzr5x4tN3u/H690fjXw51nwhf5QZjwO8e4xbf0CvRegKD4TiILdr0Msve6R0HXj8hl5VI2Kz83yKpfi6w6AC6BtAPgg+deO7Wxqyh/2m537qzVGyblM2KI/CBU9GR+FKYZbYHfJ7CB6YNBBb4OCvikVCeCrpFOp5RCLvdTSZL+5D50gAHAF5B2ABihlc80Gs0vtqxaRxKRb5F3PMgZonaNYQH3spWIfT+EgHu3xIhd18LqIuMoU+9+RDKZ6Bfy+dOZjPRNlL8AwA5IOwAcOPDqqW2tdvt/NJrNz4x2nzHH3v6ClvlBOPG7xvAANerhEzn5NiPsLjJM5Nx61KBOPfcrSUo/u++O6x5zujUAgHMg7QBw5tlXT+5rtzvfcCfwesSU+bWw0e0cEzRx/iAQG8F2i0gdZAKQcz0QdQCCBdIOQIA8+8rJfe2OH4HXcCZ/jhWRo0vGvWsMiDEeL49cP8A4rnFnHHAFiDoA4QFpByAknn3l5L6uojyo1cBPMZFUxjLverA3fGWgIffALaK3dHRV484h6AjpdErJyvJZKZ1+dt/nIeoAhAWkHQABOPDqqW2Kony1NdKFho3IE7kxW9GEfm0pdI0BBkS1iwwXMXc/2oyMJDUlSTqTlTN/ff/tuJkUABGAtAMgIPtfOv54u9O9v9lqbTQqo2En80TchN7TBHZwrR+H9LODayWJ2E8f9T6c3fvSFCCZTPSzsnxezkgvpFKpv0V7RgDEA9IOgOA8+8qJfV2l92Cn073BvBf8ALYyT+TWTj0tL5AAC32jaBBbE/hyINSNrp5uPg1gEbuIIyHljNSUM5l/lqT0Uw/csfUJ5gsCAJgCaQcgYjzz8vFHO53uw61259P2/eAHsJd5Ii8W6WsbAvu0GUJ/COCMUJLtBs83nwa4mFVEi5BrtempI+k0nkoKQNSAtAMQYZ577dRGRen9Xrfb/d2BxLdXJN7hDalcndJb8ADvxwWTAINLnPcQ/K6vTi7dA0nPnJXS6SOpVPJv77ttC0peAIgwkHYAYoQm8UpPubHd7lzTaLZmx0eJIPSrq4QwM6iAgDnBP3OI22xHKzheYjBQzmSakpT+GJIOQDyBtAMQc555+fijSk/d0el0bmh3uuu73a5Jf3gXN6QGLrj+Fwx0y/gAsIaYDVm4R3G8mqvlhgfnsnIpk5FOp5Kpv0+lkv8T5S4AxBtIOwATxoFXT27r9dQ7tWx8u9OZ6fVUG810eUNqqNLKZ3F4OH84FpNwi2y7suuljSfksnJJSqc/SqVSx5PJxEv3374VbRgBmDAg7QCAMZHvKr2CeUbeCA83pQplweFvJvwd2CPG1UKMXRB5EXIiu/0nk4l+RpLKEHQAwCiQdgCAIc+9dmpjr9fbq/TUHWqv96lOt/spZ1l5I3zUrkfBZleJ1GYDJjrXGn+XReeTc1m5lEqlFpPJxG/SqdThRCLxJurQAQBmQNoBAK7Qy3y/r65rtzvXqGo/s9a5xisM6tbhzMAENpc690HS6bSSTiVrUjr90VRiqgw5BwB4BdIOAGDGgVdPblNV9XpV7X+mp/Yu63aVT6uqKrsvt7GCrZlD9KMH+8uWv4C5rFwiIspkpNNEROlU6vDU1NQcyloAACyBtAMAAkOT+n6ffkvpKTcSEWliT0Rk3KLSL/ytHOLvnGAuOWwWkTOZZiIx1SZaE/JkIvlBIjH1NqQcABA0kHYAgJA88/LxR7Wvtcy99rrXU/+VoigX68ezKdEZBTYeHv6vTVppiv5YIpFopdOpfx4al0od1r5OJpOH0DoRACAi/x+nX++lgCTRugAAAABJRU5ErkJggg==;" vertex="1" parent="1">
          <mxGeometry x="425" y="308.83000000000004" width="49" height="52.34" as="geometry" />
        </mxCell>
        <mxCell id="ZqxARmuDzgmsSBBQvIFt-8" value="AI Engine" style="sketch=0;outlineConnect=0;fontColor=#232F3E;gradientColor=none;strokeColor=#232F3E;fillColor=#ffffff;dashed=0;verticalLabelPosition=bottom;verticalAlign=top;align=center;html=1;fontSize=12;fontStyle=0;aspect=fixed;shape=mxgraph.aws4.resourceIcon;resIcon=mxgraph.aws4.patch_manager;" vertex="1" parent="1">
          <mxGeometry x="300" y="77.5" width="60" height="60" as="geometry" />
        </mxCell>
        <mxCell id="ZqxARmuDzgmsSBBQvIFt-9" value="" style="strokeColor=#dddddd;shadow=1;strokeWidth=1;rounded=1;absoluteArcSize=1;arcSize=2;" vertex="1" parent="1">
          <mxGeometry x="640" y="305" width="150" height="60" as="geometry" />
        </mxCell>
        <mxCell id="ZqxARmuDzgmsSBBQvIFt-10" value="Langchain" style="editableCssRules=.*;html=1;fontColor=#999999;shape=image;verticalLabelPosition=middle;verticalAlign=middle;labelPosition=right;align=left;spacingLeft=20;part=1;points=[];imageAspect=0;image=data:image/svg+xml,PHN2ZyB4bWxucz0iaHR0cDovL3d3dy53My5vcmcvMjAwMC9zdmciIHhtbG5zOnY9Imh0dHBzOi8vdmVjdGEuaW8vbmFubyIgd2lkdGg9IjIwIiBoZWlnaHQ9IjE2IiB2aWV3Qm94PSIwIDAgMjAgMTYiPiYjeGE7CTxzdHlsZSB0eXBlPSJ0ZXh0L2NzcyI+JiN4YTsJLnN0MHtmaWxsOiM2NjlkZjY7fSYjeGE7CS5zdDF7ZmlsbDojNDI4NWY0O30mI3hhOwkuc3Qye2ZpbGw6I2FlY2JmYTt9JiN4YTsJPC9zdHlsZT4mI3hhOwk8cGF0aCBjbGFzcz0ic3QwIiBkPSJNMTUgMmgzdjEyaC0zdjJoMyAydi0yVjIgMGgtMi0zeiIvPiYjeGE7CTxwYXRoIGNsYXNzPSJzdDEiIGQ9Ik0xOCAydjFsMi0xem0yIDEydi0xbC0yIDF6Ii8+JiN4YTsJPHBhdGggY2xhc3M9InN0MCIgZD0iTTUgMTRIMlYyaDNWMEgyIDB2MiAxMiAyaDIgM3oiLz4mI3hhOwk8cGF0aCBjbGFzcz0ic3QxIiBkPSJNMCAxNHYtMWwyIDF6TTIgMnYxTDAgMnoiLz4mI3hhOwk8cGF0aCBjbGFzcz0ic3QyIiBkPSJNNSA3aDEwdjJINXptMCAzaDEwdjJINXptMC02aDEwdjJINXoiLz4mI3hhOzwvc3ZnPg==;" vertex="1" parent="ZqxARmuDzgmsSBBQvIFt-9">
          <mxGeometry width="30" height="24" relative="1" as="geometry">
            <mxPoint x="15" y="18" as="offset" />
          </mxGeometry>
        </mxCell>
        <mxCell id="ZqxARmuDzgmsSBBQvIFt-14" value="config" style="swimlane;fontStyle=0;childLayout=stackLayout;horizontal=1;startSize=30;horizontalStack=0;resizeParent=1;resizeParentMax=0;resizeLast=0;collapsible=1;marginBottom=0;whiteSpace=wrap;html=1;" vertex="1" parent="1">
          <mxGeometry x="240" y="510" width="140" height="120" as="geometry" />
        </mxCell>
        <mxCell id="ZqxARmuDzgmsSBBQvIFt-15" value="endpoint" style="text;strokeColor=none;fillColor=none;align=left;verticalAlign=middle;spacingLeft=4;spacingRight=4;overflow=hidden;points=[[0,0.5],[1,0.5]];portConstraint=eastwest;rotatable=0;whiteSpace=wrap;html=1;" vertex="1" parent="ZqxARmuDzgmsSBBQvIFt-14">
          <mxGeometry y="30" width="140" height="30" as="geometry" />
        </mxCell>
        <mxCell id="ZqxARmuDzgmsSBBQvIFt-16" value="username" style="text;strokeColor=none;fillColor=none;align=left;verticalAlign=middle;spacingLeft=4;spacingRight=4;overflow=hidden;points=[[0,0.5],[1,0.5]];portConstraint=eastwest;rotatable=0;whiteSpace=wrap;html=1;" vertex="1" parent="ZqxARmuDzgmsSBBQvIFt-14">
          <mxGeometry y="60" width="140" height="30" as="geometry" />
        </mxCell>
        <mxCell id="ZqxARmuDzgmsSBBQvIFt-17" value="password" style="text;strokeColor=none;fillColor=none;align=left;verticalAlign=middle;spacingLeft=4;spacingRight=4;overflow=hidden;points=[[0,0.5],[1,0.5]];portConstraint=eastwest;rotatable=0;whiteSpace=wrap;html=1;" vertex="1" parent="ZqxARmuDzgmsSBBQvIFt-14">
          <mxGeometry y="90" width="140" height="30" as="geometry" />
        </mxCell>
        <mxCell id="ZqxARmuDzgmsSBBQvIFt-24" style="edgeStyle=orthogonalEdgeStyle;rounded=0;orthogonalLoop=1;jettySize=auto;html=1;exitX=1;exitY=0.5;exitDx=0;exitDy=0;exitPerimeter=0;" edge="1" parent="1" source="ZqxARmuDzgmsSBBQvIFt-22" target="ZqxARmuDzgmsSBBQvIFt-8">
          <mxGeometry relative="1" as="geometry" />
        </mxCell>
        <mxCell id="ZqxARmuDzgmsSBBQvIFt-22" value="DeltaV" style="fontColor=#0066CC;verticalAlign=top;verticalLabelPosition=bottom;labelPosition=center;align=center;html=1;outlineConnect=0;fillColor=#CCCCCC;strokeColor=#6881B3;gradientColor=none;gradientDirection=north;strokeWidth=2;shape=mxgraph.networks.terminal;" vertex="1" parent="1">
          <mxGeometry x="160" y="75" width="80" height="65" as="geometry" />
        </mxCell>
        <mxCell id="ZqxARmuDzgmsSBBQvIFt-27" value="provide config&lt;div&gt;&amp;amp; schema&lt;/div&gt;" style="edgeStyle=orthogonalEdgeStyle;rounded=0;orthogonalLoop=1;jettySize=auto;html=1;" edge="1" parent="1" source="ZqxARmuDzgmsSBBQvIFt-26" target="ZqxARmuDzgmsSBBQvIFt-2">
          <mxGeometry relative="1" as="geometry" />
        </mxCell>
        <mxCell id="ZqxARmuDzgmsSBBQvIFt-26" value="Dev" style="shape=umlActor;verticalLabelPosition=bottom;verticalAlign=top;html=1;outlineConnect=0;" vertex="1" parent="1">
          <mxGeometry x="190" y="305" width="30" height="60" as="geometry" />
        </mxCell>
        <mxCell id="ZqxARmuDzgmsSBBQvIFt-30" value="DB" style="shape=cylinder3;whiteSpace=wrap;html=1;boundedLbl=1;backgroundOutline=1;size=15;" vertex="1" parent="1">
          <mxGeometry x="464" y="540" width="60" height="80" as="geometry" />
        </mxCell>
        <mxCell id="ZqxARmuDzgmsSBBQvIFt-36" value="Agent Integration" style="text;html=1;align=center;verticalAlign=middle;whiteSpace=wrap;rounded=0;" vertex="1" parent="1">
          <mxGeometry x="280" y="255" width="100" height="30" as="geometry" />
        </mxCell>
        <mxCell id="ZqxARmuDzgmsSBBQvIFt-43" style="edgeStyle=orthogonalEdgeStyle;rounded=0;orthogonalLoop=1;jettySize=auto;html=1;exitX=0.5;exitY=0;exitDx=0;exitDy=0;entryX=0;entryY=0.5;entryDx=0;entryDy=0;endArrow=none;endFill=0;" edge="1" parent="1" source="ZqxARmuDzgmsSBBQvIFt-2" target="ZqxARmuDzgmsSBBQvIFt-61">
          <mxGeometry relative="1" as="geometry">
            <mxPoint x="590" y="107.5" as="targetPoint" />
            <Array as="points">
              <mxPoint x="450" y="215" />
              <mxPoint x="530" y="215" />
              <mxPoint x="530" y="108" />
              <mxPoint x="660" y="108" />
            </Array>
          </mxGeometry>
        </mxCell>
        <mxCell id="ZqxARmuDzgmsSBBQvIFt-62" value="Request from&lt;div&gt;another agent&lt;/div&gt;" style="edgeLabel;html=1;align=center;verticalAlign=middle;resizable=0;points=[];" vertex="1" connectable="0" parent="ZqxARmuDzgmsSBBQvIFt-43">
          <mxGeometry x="0.3754" y="1" relative="1" as="geometry">
            <mxPoint x="63" y="1" as="offset" />
          </mxGeometry>
        </mxCell>
        <mxCell id="ZqxARmuDzgmsSBBQvIFt-45" value="&lt;h1&gt;Intelligent database connector agent&lt;/h1&gt;" style="text;html=1;align=center;verticalAlign=middle;whiteSpace=wrap;rounded=0;" vertex="1" parent="1">
          <mxGeometry x="220" y="20" width="440" height="30" as="geometry" />
        </mxCell>
        <mxCell id="ZqxARmuDzgmsSBBQvIFt-46" value="" style="shape=orEllipse;perimeter=ellipsePerimeter;whiteSpace=wrap;html=1;backgroundOutline=1;" vertex="1" parent="1">
          <mxGeometry x="434" y="200" width="30" height="30" as="geometry" />
        </mxCell>
        <mxCell id="ZqxARmuDzgmsSBBQvIFt-60" style="edgeStyle=orthogonalEdgeStyle;rounded=0;orthogonalLoop=1;jettySize=auto;html=1;exitX=0.75;exitY=0;exitDx=0;exitDy=0;entryX=0.5;entryY=1;entryDx=0;entryDy=0;startArrow=classic;startFill=1;dashed=1;" edge="1" parent="1" source="ZqxARmuDzgmsSBBQvIFt-52" target="ZqxARmuDzgmsSBBQvIFt-9">
          <mxGeometry relative="1" as="geometry">
            <Array as="points">
              <mxPoint x="597" y="430" />
              <mxPoint x="715" y="430" />
            </Array>
          </mxGeometry>
        </mxCell>
        <mxCell id="ZqxARmuDzgmsSBBQvIFt-52" value="Database picker" style="rounded=1;whiteSpace=wrap;html=1;" vertex="1" parent="1">
          <mxGeometry x="507" y="462.5" width="120" height="27.5" as="geometry" />
        </mxCell>
        <mxCell id="ZqxARmuDzgmsSBBQvIFt-53" value="DB" style="shape=cylinder3;whiteSpace=wrap;html=1;boundedLbl=1;backgroundOutline=1;size=15;" vertex="1" parent="1">
          <mxGeometry x="537" y="540" width="60" height="80" as="geometry" />
        </mxCell>
        <mxCell id="ZqxARmuDzgmsSBBQvIFt-54" value="DB" style="shape=cylinder3;whiteSpace=wrap;html=1;boundedLbl=1;backgroundOutline=1;size=15;" vertex="1" parent="1">
          <mxGeometry x="610" y="540" width="60" height="80" as="geometry" />
        </mxCell>
        <mxCell id="ZqxARmuDzgmsSBBQvIFt-56" style="edgeStyle=orthogonalEdgeStyle;rounded=0;orthogonalLoop=1;jettySize=auto;html=1;exitX=0.5;exitY=1;exitDx=0;exitDy=0;entryX=0.5;entryY=0;entryDx=0;entryDy=0;entryPerimeter=0;" edge="1" parent="1" source="ZqxARmuDzgmsSBBQvIFt-52" target="ZqxARmuDzgmsSBBQvIFt-30">
          <mxGeometry relative="1" as="geometry" />
        </mxCell>
        <mxCell id="ZqxARmuDzgmsSBBQvIFt-57" style="edgeStyle=orthogonalEdgeStyle;rounded=0;orthogonalLoop=1;jettySize=auto;html=1;exitX=0.5;exitY=1;exitDx=0;exitDy=0;entryX=0.5;entryY=0;entryDx=0;entryDy=0;entryPerimeter=0;" edge="1" parent="1" source="ZqxARmuDzgmsSBBQvIFt-52" target="ZqxARmuDzgmsSBBQvIFt-54">
          <mxGeometry relative="1" as="geometry" />
        </mxCell>
        <mxCell id="ZqxARmuDzgmsSBBQvIFt-58" style="edgeStyle=orthogonalEdgeStyle;rounded=0;orthogonalLoop=1;jettySize=auto;html=1;exitX=0.5;exitY=1;exitDx=0;exitDy=0;entryX=0.5;entryY=0;entryDx=0;entryDy=0;entryPerimeter=0;" edge="1" parent="1" source="ZqxARmuDzgmsSBBQvIFt-52" target="ZqxARmuDzgmsSBBQvIFt-53">
          <mxGeometry relative="1" as="geometry" />
        </mxCell>
        <mxCell id="ZqxARmuDzgmsSBBQvIFt-59" value="Chooses the right DB based on LLM" style="text;html=1;align=center;verticalAlign=middle;whiteSpace=wrap;rounded=0;fillColor=#fff2cc;strokeColor=#d6b656;" vertex="1" parent="1">
          <mxGeometry x="660" y="440" width="110" height="50" as="geometry" />
        </mxCell>
        <mxCell id="ZqxARmuDzgmsSBBQvIFt-61" value="Agent" style="shape=image;verticalLabelPosition=bottom;labelBackgroundColor=default;verticalAlign=top;aspect=fixed;imageAspect=0;image=data:image/png,iVBORw0KGgoAAAANSUhEUgAAAu0AAAMgCAYAAACXv1y5AAAACXBIWXMAACnuAAAp7gFrb7MUAAAgAElEQVR4nOzdfXBc13nn+efchmQTaiRymcwAKVZBaxF0kSvFBkN7nB0RSM0ktkFkyvZYI3KqdiSvxFSJzougldfrrESlVi8jWvGMqLEteTaUIslVO6JGKnkqIblbU6kIaM/EM5YJO8RSMUFvxN1eAxnSsWxC4AvQ9+wfjQb65Xb37b7n9rnn3u8nlRLQffveY4uyfnjwnOcorbUAQNIU5opT699ouUWLbKt6e6vW8v7aT+j3aC2berM6uEApWRVRSzWviVwRJT+su+5bVd++vueWred7skAA6IAitAPolcJc8TYR2S1a/p4W+TUREdHyQS3yXhERrfWNNtcHVFNKLouoq2tf/0BERImcEyVzIrKw55atx6wuEECmENoBGFMVysuV8bVArrX+RRFRttcHxEEp9U75r2vBvly5J9QDMIrQDqAjhbnisIh8RrSMa5H3aS0fojUFCFZp0VFK3haRn60F+jf33LL125aXBsAxhHYAgerC+U1ay01UzAFzlFLvKCU/EZEiYR5AO4R2AOW2Fi2TWuTX1irnea2lz/a6gCxaC/NvK5HviZL/QJsNABFCO5A59QGd6jmQfAR5AIR2IOUKc8Up0TKutXxMi95MBR1Ih7Ug/wMl8pei5BuMqgTSjdAOpEhhrjgsWu6tqqIzQhHICKXkslLqx0rkDVHyAv3xQLoQ2gGHVYX0T2qtP8gEFwAVSsmqUuo8IR5IB0I74JjCXHFKa7mLkA6gE3Uh/lHaaQC3ENqBhCvMFfeJlv1ay8d8rQdtrwdAOqy10/xQKXlxzy1bj9heD4DWCO1AAhVOF5/QIv9Uaz3MxlEAPaA9pf5WKTlOKw2QTIR2IAHWxjA+QDUdQBJUVeEPM14SSAZCO2BJpe3F1/oT9KYDSKqqXvh/t+fWrX9gez1AVhHagR4qzBX3aS1f0lrfQttLd5QSUXVnQSmvybWiRHFsVCZoEWn27zOt1y6o4vPvvm5pz1P/NwEe6D1COxAzgnprSm1E8Er4rg7bSpWvAeKidW3gXw/0ei3wCyG/CQI80EOEdiAGBPUNXrk0vl4hr+RvzyOIwz1a63LIl42gr30RLVoy/q9TAjwQM0I7YEhlM2kWe9Q9tRbG1VpIF0I5sqlStS8He53VQF8O8EoeZBMrYA6hHYhg7UTSQ76Wz2qtb7S9nrh5SonyNirmBHMgvEqY9yuhXjfvw0+LtU2s/1EpeYgxkkA0hHagC2unkv6u7+sPiEjqkqtSSryqyjnhHIiP7+v1dhvtp7d/Xin1jqfkNU5jBbpDaAdCqmp/+a009alXArpSVM+BpNBai69TG+RpnwG6QGgH2iicLj6htXwuLYceVVpcqKADbtFai+9XAn06+uSVklVPqT8TJVNU34HWCO1AgMJc8Tat5TGt9T9wuaquVCWkb1TTAaSH75cDfCXMu8zz1I+ovgPNEdqBKlW96jfbXks3akM6BwsBWZOGEK+UXPaU+t/pfQdqEdqReRsTYPRdLlbVPa/c5kJIB1BvI8Q72U6jPU/9QCn5PSbPAIR2ZFilBcb39Zg4NAFGKSWeJ5LzFO0uAEKrjJv0/fL/u8RTalF58uU9t2w9YnstgC2EdmSOiy0wOa/c8pJj4ygAQ1xspam0zuy5desB22sBeo3QjswonC4+4Wu514VDkCqjF6mmA+gFrWtbaZKu6tCmu+h7R1YQ2pF6hdPFoy70qytVDumeR286ALtKvjNtNNrz1AwnriILCO1IpbXNpUeSfhASQR1A0lXCeynhAX5tZOTnCO9IK0I7UqUwVxzWWl5M8uZSgjoAV7kQ4AnvSCtCO1Ih6WGdoA4gbZLeQsNhTUgbQjucluSwzmZSAFlR8rWUSjqRU2iUUu94nvyvjIuE6wjtcFKSw3qlou4xnhFAxmgtUvL9RB7mtBbe/zFtM3AVoR1OSWpYV0pJLsccdQCoSGr/Oz3vcBWhHc6YOV18I2lhPeeVwzrtLwDQXKmkpeT7iaq+E97hGkI7Ei9pc9apqgNAd5JYffc89X2l5NMc0oSkI7QjsconmOovJCWsU1UHAHMSVn2vHNLECatILEI7EqcwV5zyfflDrfWNtteilEjO8ySXI6gDQBz8tckzfjLyiM556vk9t249YHshQD1COxKjMFe8TWt5wff1zbbX4q21wDABBgB6Q2uRUslPROuMUrLqeep/YkwkkoTQDuuqJsKM215LuQXG4wAkALBotZSMsZGMiUSSENphVeF08WjJ13eL5Ykw5Y2lhHUASJLyoU32+97ZrIokILTDinLfuv4XWssmW2ugXx0A3JCQvned89S/33Pr1s/YXASyi9COnlprhflzm33rSonkch4jGwHAMZVxkb7Fvnel5LLnqf+Ffnf0GqEdPVM4XXy95OtPiaVWGOarA0A6JGHT6trhTP+Ilhn0CqEdsbPdCsMkGABIpwSEd1pm0DOEdsTGdisMYR0AssF2eKdlBr1AaEcsbE6FIawDQDbZDu9MmUGcCO0wqjBXvM335U9tnGbKBlMAgIjd8K6UrHpKfWXPrVv/oOcPR6oR2mHMzOniG76vx6TH1XXCOgAgiM1RkZ5Si8qTj1F1hymEdkRWmCvu8339JzY2mvblmLMOAGjNYnhnoyqMIbQjkrXq+nivn5vLKenLeb1+LADAYbZOWFVKveN58o/33LL12719MtKE0I6u2Kqu5zwluZwniuI6AKBLpZKW1ZLf68dSdUckhHZ0zEZ13VNK+vqUKNI6AMCQ1ZIvpVJvcxBVd3SL0I7QbFTXlSr3rTO+MZvmz56XpaV3RURkYeGCLCxcqH3v0rs11y8sXJDFxYs9XSPcsW1kWAby/TWvDf7yFhka2rL+/cjITTIwUL5mcKj2PaST1uXw7vd20gxVd3SM0I5QbFTX6VtPr4WFC7K4cEEuXVqW+fm3RURk9ntnNt4jeCNhKoE/P3CDjGwfFhGRXbt2ikg56OcH+lt9HA7w/XLLTC9jERNm0AlCO1qyMXc95ynp6yOsu65SJT916owsXVqW+bNvE8iRapVgP/qrOyWfv0G2bx+mWu8gC/3uOuepLzPXHe0Q2tFUr081VUpJHyeZOmf21Jn11pXZ750hmAMBto0My9DQFhnZPiwjIzetf43kWl3t7eFMnqd+pJT8I6ruaIbQjgaFueKw9uU7vtaDvXom89aTb2mtleXUqTMyf/a8LCxckHPz/LsFiGJ0dIcM/vIWGRm5SbZvH5bRtZYbJEO5ZUZLr7KSUrLqeeq/33PL1mM9eSCcQmhHjcJcccr39R9pLX29eJ7nKbmOVphEmj11Zj2gz599m+o50CPbRobXK/IE+WTodcuM56npsVu3/nrPHggnENqxrpebTZkKkywLCxdqQjoVdCBZRkd3yMj2m2R0107ZtWsnG18t6PWUmbXRkB+mXQYVhHZIYa447Pvy/V5tNmUqjH3zZ8/LqVNnZPbUGarogIMGBzfL6K+WA/zorp1sdu2hHk+Z0bmc+h/33LL1SE+ehkQjtGdcYa44VSrpfyU92GyqlJLrOCDJiupKemH6TVlaWra9JAAGVUL82NhHqMT3SC8PZqJdBiKE9kzrZTsM1fXem5l+U2ZPnZGZ6e9SSQcyZtvIsIyN716vxCMevay60y4DQnsG9bIdxlPlmesU1+O3sHBhPagXZt60vRwACZHP98vorp0yNr5bxsY+QhU+Bj2sutMuk2GE9ozpZTsMYxzjN3/2vJw4Pi2nTp1h8yiAULaNDMveyXEZG99NL7xBvay60y6TTYT2DCmcLr5e8vWn434O1fV40fYCwJRtI8Oya9dO2Ts5zmFPhvSq6u4ptag8+RjtMtlBaM+AXh6WRO96PGam35SZme+yiRRAbAYHN8vY+EcI8Ab0qurOYUzZQmhPucJccZ/v6z/RWjbF+Rwmw5hXaX05cXyaoA6gpwYHN8ve3xqXvZPjtNBE0KOqu8556vk9t249EPeDYBehPcUKp4tPlHz9P0vM/etU181ZWLhQDup/Nk3rC4BEqPTAT06Os4m1C76vZWU1/tNUPU99f+zWraOxPwjWENpTqhf965xqasbSpWWZmfmuHHv5JJtJASTanrHd65tY0ZmVFV/8mDMXYyHTjdCeMoW54rDW8ue+r2+O8zmep+S6PqrrUcyeOiPHj0/LyeMztpcCAB3J5/tl7+S43LF/gvaZDpRK5V73ONHnnl6E9hQpz1/Xb8Xdv97X50mO6npXli4ty/Hj0/LKyydofwGQCttGhmXf/gnZO9mTs/qcp7WWlVUtMecvnfPUl/fcuvUP4nwIeovQnhKFueK+Ukn/W4mxf53Npt2jqg4g7ai+d2Z11ZeSH28Gy3nqW3tu3fqZWB+CniG0p0DhdPFoydd3S4yBPeeVZ68jvEqv+nN//CpVdQCZMjq6Q+7Yv5fe9zZKvpbVmDepep760ditW7fF+hD0BKHdcb3YcEo7TGcWFi7IKy+fZFQjgMwbHNwsd+zfy+SZFnrRLsMG1XQgtDts5nTxXJwbTmmH6QwtMAAQjNaZ9uJul1FKLnue+vieW7Z+O7aHIFaEdgeVN5zK97XWN8b1DNphwpuZflNeefmEzM6+ZXspAJB4E5NjMjk5LqO7dtpeSuL0oF1G53LqnzFZxk2Edsf0YkIM7TDhnDg+Tb86AHRpdHSH3PPbtxPe65TbZXyJMZ5xgqqjCO0OiXtCjFIi1/V5tMO0wOZSADCLkZHBVlZ98WNsl8l56jmCu1sI7Y6IO7B7Ssl119EO08zSpWU5duyEvPLySTaXAkAMBgc3yz2/fTvhvcpqyZdSKb6c5nnq+2O3bh2N7QEwitDugLWRjvfEdf9cTklfjsAehLAOAL1FeK/l++V2mbgwEtIdhPaEizuw078ejLAOAHYR3jfEPRbSU2pRefIxRkImG6E9wWZOF9/wfR3b/1pdfx3960HYYAoAyTE4uFkeevggG1ZFZGXFFz+m3LY2EnIHwT25CO0JFecMdqWUXE//egPCOgAkF9NmyuLscye4JxuhPYHiDOzMX280e+qMHHnqJTk3z/9GAUDSjY7ukAcfPpjpQ5rinOe+Ftz/B2a5Jw+hPWFiDexsOK0xf/a8PP3UixyKBAAOmpgck6mpuyQ/0G97KVbEvEGVQ5gSiNCeEHEfmsSG0w1Ll5blyJEX5eTxGdtLAQBEkM/3yx37J2Tfvr2ZDO8xb1AluCcMoT0B4g7sbDjd8NzRV5kIAwApk/VJM9dWfIJ7BhDaLYszsHPC6YaZ6Tfl6adeZJMpAKTY6OgOue/+u2Rk+7DtpfTc6qovpXhOUCW4JwSh3aJ4AzsTYkREFhYuyOOPPEvfOgBkSFb73Qnu6UZotyTOwO55Sq7L+ISYyuFIzx99zfZSAAAW5PP9cveB22Xf/gnbS+mpGCfLENwtI7RbEGdgZ6QjrTAAgA1ZbJkhuKcTob3HYg3sGR/puLBwQZ5+6iUpzLxpeykAgIS5Y9+E3HPg9sy0zGit5doKwT1NCO09FGdgz/pIx2Mvn5Tnj77KVBgAQFODg5vloYcPZuZUVYJ7uhDae4TAHg8OSAIAdGrP2G556NDBTFTdy7PcfYkh7hHce4zQ3gME9ng8d/RVNpoCALqSz/fLg4cOytj4bttL6YmYZrkT3HuI0B6zOAN7Vg9Nmj97Xh579Fk5N3/e9lIAAI7LUtWd4O42QnvMpv/q/10msJtDdR0AYFqWqu4Ed3cR2mM0c7p4zvf1zabvm8XATnUdABC3rFTdCe5uIrTHhMBuzrGXT8q/PvKS7WUAADIgK1X3OE5PVUpWPU9t23PLVipsMSC0x4DAbsbCwgV5/JFnmQwDAOi5LMx1jym4X/Y8tYPgbh6h3bCZ08U3fF+Pm75v1gL7zPSb8vijzzJ3HQBgzbaRYXno0MFUn6ZKcHcHod2gwuni0ZKv7zF93ywF9qVLy3LkyIty8viM7aUAACAiIr8/dafs2z9hexmxiSe4q3fGf2Xr+4zeNOMI7YYQ2KNjsykAIKlGR3fI4Se/kNp2mTiCu+epH43dunWb0ZtmGKHdgMJccV+ppF82fd8sBfZjL5+U54++SjsMACCx8vl+OfzkAzK6a6ftpcSC4J5shPaI1gL7vxURo+k6K4F96dKyPPbos1KYedP2UgAACOXuA5+Vew7cbnsZsYgjuOc89dyeW7ceMHrTDCK0R1CYKw6XSvpvhMDeFdphAACuSnO7zMqKL77hfEhwj47Q3qXCXHHY9/Vbpk87zUpgP3F8Wp5+6iXaYQAAzhoc3CyHn/xCKqfLxHEAUy6n9nP4UvcI7V2a/qviT7XWN5q8Z1YC+2OPPst0GABAajx46F7ZO2l82rN1MQR3Tk2NgNDehTgOT8pCYF+6tCy/8/lHaIcBAKTOxOSYTE3dlbp2GdPBnVNTu0do71DhdPH1kq8/bfKefX2e5Lx0B/b5s+fldz//CO0wAIDU2jYyLIeffECGhrbYXopRMQR3Dl/qgmd7AS5Zm8VOYO/QiePT8rk7v0RgBwCk2rn58/K5f/4lmT+brix6XZ/ZuKi1bNJa/tzoTTOASntIcYx2zEJgp38dAJBFaetz11rLtRXf6D09T02P3br1143eNMUI7SHEMdoxl1PSl0vvLzqWLi3Ll774FZmdfcv2UgAAsOKOfRNy3/132l6GMXEEd0ZBhkdobyOO0Y45T0mf4V81JQnz1wEAKNsztlseOnQwNRtUS76W1VWjwZ2JMiER2tswPSnG85Tx3rAkYcMpAAC10rZBNabg/t+wMbW19KZHAwqni6+bDOxKpTuws+EUAIBGadugmvOU5HJG9+Qp39f007aR3gQZUeF08QmTk2KUKs9iT6tjL5+Uxx/9hu1lAACQSEtLy/K7n39EZqbftL0UI/pyZodpaC2bZk4Xzxm7YQrRHhMgjkkxaT48iQkxAACEl6bJMisrvvgGsyQbU5sjtNeJY+NpWgP70qVlOXLkRQI7AAAdStNkGdOHL+Vyaj8bUxsR2uvM/FVxwdd60NT90jqLfenSsvzO5x9hQgwAAF2amByThw4dtL2MyLQWubZSMnpLNqY26rO9gCQpnC6+bjKw53KKwA4AAAJVflM9NXWX0yMhK/v2DM5wr2xMdfe/lBhQaV9TmCtOlUr6KVP3S+ssdkY6AgBg1raRYfn6Mw87HdxFzI+C9Dz1/bFbt44au6HjCO1i/sRTpVQqJ8UQ2AEAiEdagvtqyZdSiY2pcUhfsuyC78v3xfCkmLQhsAMAEJ9z8+fldz7/iCxdcvvfs6ZHQZZ8fXdhrrjP2A0dlr502aGZ08U3tNY3mrofgR0AAHSjEtxdP4Spr8/o1Dzl+/pPCnPFYVM3dFX6EmYHCnPFKd/XxgalGv5Dmggnjk8T2AEA6JFz8+VCmevB3eQJ8FrLJq3lz43d0FGZ7Wk33ceeyynpy6XrZ6ATx6c55RQAAAvy+X752jMPy8h2dwvMvq9lxeDG1Kz3t6crZXbAZB+7pwjsAADAnKWlZecr7p5nNh9lvb89XUkzJJN97EqJXJeyPnYCOwAA9qUhuBs+s0b5vv4TUzdzTbrSZgim+9hN9mwlAYEdAIDkSENwN7nnT2vZNHO6OGvkZo5JV+JsozBXHPZ9/Uem7pe2jacEdgAAkicNwd1kkdP39YcLc8UpYzd0RKZCu/blO1pLn4l75Tyjv+6xbvbUGQI7AAAJ5XpwV8pscC+V9L/K2hjIzIT2wuniUV/rQRP3UkpJX4raYubPnpcvffFf2l4GAABooRLcXT2AyfOU5HLm+tu1L98xdTMXpCd5tlCYK95W8vXdpu53XV96KuwcnAQAgDuWlpadPjm1L+eJZ6i12Nd6sHC6+LqRmzkgE6Hd9+VPxdB4xzT1sRPYAQBwT+XkVFeDu8mpeyVffyorYyBTH9pNjndMUx87gR0AAHc5H9zNtRlnZgxkqkN7Ya64z9R4xzT1sS9dWpYvffErBHYAABx2bv68fOmLX7G9jK6Y7G9fGwP5hpGbJVg6UmgTJn/ySksf+9Klci/c4uJF20sBAAARzc6+JY89+qztZXSlL2eu5dj39Xja22RSG9rLbTGyycS90tLHXgns5+bdHBcFAAAanTw+42xwNzy/PdVtMqkM7SbbYrwU9bEfOfIigR0AgBQ6eXxGjr180vYyOmZyfnva22RSGdpN/aRl+iAAmx579Fk5eXzG9jIAAEBM/vWRl+TE8Wnby+iYyQJpmttk0pFIqxhti8ml47+eE8enCewAAGTA449+w8lTU8utyGbuldY2mXSk0jUm22JyOSVeCtpiThyflscf/YbtZQAAgB753c8/4mRwp02mtVSFdnNtMSoVVfb5s+fl6adesr0MAADQQ0tLa6OdHZvhrpS5MZBpbJNxP5muMdkWk4bxjgsLFzg8CQCAjFpcvOjk4UuGx0Cmqk0mFaG9MFe8zff1mIl75XLK+fGO5cOT/iWBHQCADDs3f16OHHnR9jI6Zqp4qrVsKpwuvm7kZgmQitDu+/KnIhL577CXkraYxx59ltGOAABATh6fkeeOvmp7GR0x2aZc8vWnCnPF24zczDLnE2rhdPGo1vpGE/fqS8F4x6efekkKM2/aXgYAAEiI54++JjPTbmWDXE6JZ6bzQa0Vd53ndEotzBWHS76+28S9yj1UJu5kz4nj0/LKMfcOVgAAAPF6/NFnnZsoY6qYqrW+sXC6+ISRm1nkdGjXWv5cDLXFmNqtbAuTYgAAQDMuTpRRytyZOb7WXyjMFYeN3MwSZ0N7Ya445fv6ZhP3cr0tprzx9CtsPAUAAE0tLl6UL33xK7aX0RFTbTJaS5/W8i0DS7LG2bTq+/pfmLhPeVqMiTvZ86UvfkUWFy/aXgYAAEi42dm3nPvNvKniqu/rD7s8u93J0F44XXzdxEz2NByi9PRTL8ns7Fu2lwEAABzxyrGTTm1MVUoMHrokzh4T71xiXdt8+ikT93L9EKWZ6TfZeAoAADrm2sZUU4curW1KPWpgST3nXGg3tfnU9UOUFhYuyOOPPmt7GQAAwEFLS8vy2KPPOrUx1VSxteTru13clOpUaDe1+dTkbmQbOPEUAABE5dqJqcrctD/l4qZUp5Krqc2nLgd2EZEjR17kxFMAABDZyeMzcuL4tO1lhGbqXJ21TalOnZTqTHotn3waffOp5ynxPHfbYk4cn5aTx2dsLwMAAKTE00+95Fx/uwmunZTqRGg3efLpdQ7PZF9YuODcmCYAAJBsrvW3e56p2e36xsJcccrAknrCiQSrtbwoBjafut4WQx87AACIg2v97QZnt/+RkRv1QOJTbGGueJvv6/Go9zG4ecGKp596iT52AAAQm5PHZ5yZ325qdrvW0lc4XXzdwJJil/jQrrW8YOI+fQ4H9tlTZ5jHDgAAYvf4o8/KwsIF28sIxdSm1JKvP+XCCMhEh3ZTIx5zDm8+rYx3BAAAiNvS0rI8/og758AYan1Wa63YiZbo0O778ocm7mOq78mGxx59lj52AADQM7Ozb8lzR1+1vYxQTG1K9X09nvQRkIlNs4XTxSe01jdGvY/Lfewnjk9LYcaN3jIAAJAezx99zZkxkKaKs6ZasuOS2NDua/2FqPdw+eRTxjsCAACbHnvUjTYZU5tSfV/fXJgr7jOwpFgkMtGuHaTUF/U+rgZ2EZHHH6EtBgAA2HNu/rwzbTIGD1z6hpEbxSCRqdbX+q6o9/CUu5tPj718UmZn37K9DAAAkHHPH31NZk+dsb2MUEy0yST5wKXEhfaZ08U3jFTZ+9wM7AsLF+R5R36qBQAA6ffYI26clprzlJERkKYGoZiWqNBemCsO+74ei3qf8t80N0M7bTEAACBJFhcvZqpNRmt9Y+F08QkDyzEqUaF9bUZm5LSdc7SXnbYYAACQRK8cO+nENBljIyANDEQxLTHp1liVPWfmVyO9RlsMAABIMlemyZhokdZa+gqni0cNLMeYxIR2U1V2VyfG0BYDAACSzJVpMkopyRkYRmJiMIpJiUi4pqrsrgb2mek3aYsBAACJ9/zR12Rh4YLtZbRlolU6adX2RKRcE1V2U4P1e23p0rI87sivmwAAAB5/JPm5xdiBSwmqtlsP7eZ62a3/R+nKc0dfpS0GAAA4Y3b2LTlxfNr2MtoyM0kmOdV260nXWJXdwYOUZk+dkVeOnbS9DAAAgI48/dRLbsxuT1G13Wpoz3qV/chTL9leAgAAQMeWlpblyJEXbS+jrTRV262mXRNVds/QDuFeO/bySTk3n/x5pwAAAEFOHp+R2VNnbC+jrbRU262FdpNz2V2zdGmZmewAAMB5LnQNGKy2Wz0l1V6lXcsRMVBl9xyssh858iKbTwEAgPPOzZ+XYy8nf3+emWq73GtgKV2zFtp9rX8r6j1crLLPnjojJ4/P2F4GAACAEc8ffTXxm1LNVNv1jYW54pSB5XTFSmgvnC4e1Vr6otzD2Sq7A79GAgAACGtpadmJk1KNVNt9+UMDS+mKldBuopnfxSr7iePTbD4FAACp88qxkzJ/NtkZx2C1/TYDy+lYz0N74XTxiahVduVglX3p0rI8TZUdAACk1NNPJX8EpImir9byQvSVdK7nod1EE7+LVfZjx06w+RQAAKTW7OxbiR8BaaLa7vv6ZhvV9p6G9sJccUprfWOUe7h4+unCwgV5xYGd1QAAAFE89siztpfQlqFq+1cNLKUjPQ3tWsvvRr2Hi6efPnf0VarsAAAg9RYXL8qJ49O2l9GSoWr7hwpzxWEDywmtZwm4MFe8zff1zVHu4WKVff7seUY8AgCAzHj6qZcSPwLSQJ5Ua2cO9UzPQrvW8ljUe+Q896rsLmzKAAAAMGVpaVmOHTthexktmejcMHHmUCd6koILc8Vh39djUe/j2gbU2VNnZHb2LdvLAAAA6KlXXj6Z6Gq7ie4NraWvcLr4hKEltdWb0rWWQyIS6b8Z1wK7iMhzf5z8gwYAAABMc+HAJVR5EtcAACAASURBVCOHLRmYihhWT0K7icOUTGwa6CWq7AAAIMteOXZSFhYu2F5GU0op8VTUanvvDluKPQmXxzxGO0zJtc2nIm6MPAIAAIhTFqrtvTpsKfbQnsUxjyeOT8vi4kXbywAAALDq5PGZRFfbPU9JxGK7+L7+QC/GP8aahk2MefRU9P8ye41edgAAgLLkV9sjx2G1tn8zVrGGdiNjHh3bgEqVHQAAYEPSq+0m2rBN7N9sJ+bQrv9BlM8rVf61hUuosgMAANRKfrXdwPjHueKUoeUEii20F04Xn4i+AZVedgAAANclv9oePXOa2MfZSmypWGv5XNR7uNYaQ5UdAAAgWJKr7Sa6O3xf3xznhtRYQnthrnibr/VglHu4NuaRKjsAAEBzya+2G8ieWo5Ev0mwWEJ7Jjeg/tm07SUAAAAkWpKr7UbGP2r9CTOraRRTaI+6AVWJcmjOI6efAgAAtFeYflOWLi3bXkZTUXvbtZZNhbniPkPLqWE8tBs5AdWxKju97AAAAO0tLS3LsWMnbC+jKUMnpD5uYCkNjId2IyegOtTPPn/2PFV2AACAkF55+WTCq+2RN6R+wNBSahgN7YW54nDUhbpWZU/yT4sAAABJs7S0LDMz37W9jKYMnBGkCqeLR02spZrZSnv5CNdI/0ldqrIvLFyQk8dnbC8DAADAKUluLTaxIVVrmTSzmg1GQ7uv5bNRPu/aBtRXXj5pewkAAADOWVy8KCeOJ3fyXtQNqb7Wg6ZnthsL7YW54m1a6xuj3MOl1pilS8uJ/sMGAACQZEkel20kkxqe2W6u0q7lgai3cKk1Zmbmu7K0lNxNFAAAAEk2O/uWzJ89b3sZTUU+IdXwzHZjoT3qwlwK7CLJ7sUCAABwQZIHekTNpmsz228ztBwzob0wV9yntWyKtBCHQvvsqTOyuHjR9jIAAACcdvL4TGLHP5rIplrLVw0sRUQMhXat5UtRPq+UW6H9GBtQAQAAjEh0tT1ib7vW+hZDSzEV2qMtyKXAvrBwQQozb9peBgAAQCokekNq9BaZvsJccZ+JtUQO7WutMX1R7uFSPzsTYwAAAMxZXLwoM9PJLIiWx5FHu0fUjpSKyKE9emsMs9kBAACyLMlF0agz2021yBgI7dEW4lqVnTGPAAAAZhVm3pSFhQu2lxEoahu3qRaZSKHdRGuMS/3sSf3VDQAAgOuSWm1XSiJ3hZhokYkU2s20xkS5Q++wARUAACA+6d6QGr1FJmJoz1ZrDAAAAOKR5A2pSWiR6Tq0Z601Jsk//QEAAKTBzMx3bS8hUBJaZLqvtGvZH+XBLrXGcAIqAABA/JJ8QqqBFpkPRvl816Hd1/oTUR7sUmvMcVpjAAAAeiKp1XYDLTKbCnPF27p+fjcfKswVb9NaNnX7UBF3WmOWLi1LIaH9VQAAAGlzLKFn4phokREtD3T70e4q7REeKOJWa8zMzHeZzQ4AANAj5+bPJ3Zme9ROEV/Lr3f72a5Cu9bysW4fKOJWa0xSdzEDAACkVVJPoI/eIqNvLMwVh7t6djcf8rUe7OZz6w91JLQvXVpmNjsAAECPzUwns6/dUIvMoW4+1nFoL5wuPtHNgyrK/2Gj3KF32IAKAADQe4uLF2X+7HnbywjkRTrlSERLdy0yHT9Wi/zTbh60/kBHquwiHKgEAABgS1JzWOS+dl9/oJvPdR7ate6qD6fClX72hYULcm4+mT/hAQAApF1yW2QiD1RR3ZyO2lFoN3EKauQ+oB5hAyoAAIA9iW6RiX466sGOn9nZE6KdgupKlV0kub+SAQAAyIqk5jEDU2Q+2vEzO3tAtFGPypHQTmsMAACAfUltkTF0OmpHLecdhfaoox5dqbTTGgMAAGBfoltkouZaLfd29LywFxbmilOdr2aDK73sIiKFhP5UBwAAkDWJbZGJ2tfe4UTG0KFda7mr8+VUPSjiTMteWbq0LLOzb9leBgAAACTNLTKdTWTsILTrD3a+nA3OtMbMJPMPBgAAQBYtLl6UhYULtpfRIOqBoVpLX2GueFvY60OF9sJccVhr2dT9stxpj6GfHQAAIFmSms+itsiIls+FflbIG3bUKN/wEEeq7CIis6fO2F4CAAAAqiS2rz1qi4zIr4d+VsgbfrLr1Yg7oX1m+k1ZWlq2vQwAAABUOTd/XpYuJS+j9bKvPVxoj9jPHvlXBz1ClR0AACCZkrrvMEoLeCd97W1De9R+9qhN+r2U1N3JAAAAWXcqocXVyBMSQ/a1t39M1H52RxL7wsIFWVy8aHsZAAAACFBI6WbUsH3tbUO7Fvm1KAtRDvWzAwAAIJmWlpYTeTpqr/ra24d2LR+KshBXKu30swMAACRbUltketHXHiK06xu7XYRL/eyEdgAAgGQrJHT/oYG+9sm2z2j1ZmGuOBXl+S5V2Rn1CAAAkGyzs2/ZXkIgA33tbcert/65QMt4lAW40s+e1F+1AAAAoFYSuyOi97XLTW2f0eYGH4uyAEcyu8x+L3l/8wEAANAoqcXWaH3t7dvRW4d20Zu7frpEW3wvJfVXLQAAAKiV1Il/UYvV7drS+1p88Datm7/fjkv97ICIiAxuE3lv3vYq4rf+j6ZufG/hRyJXlnq5GgAh5Ab65D0fHFj7xzfgn90aVe8H/qu43eeTaeXHV+Xa/3fV9jKQAOfmkzf2UWStLdyP8M9XuS39SLO3m4fyELtYW1FRd9H2SFJ/xYLe05/8PZGbPmx7GTHQIkpEVf5FrXTA6+Wv9XNfEPmbH9haKIAm3rN9QIb/t9GN0K7W/ipr/wxXfV/5Zzz06474r88U5W+fKdpeBhJi9tQZGd210/YyakTejNqmLb1ptI56qJIzlXb62QEAAJySxKJr1Ojbri29eWiPeqiSI7tQ6WcHAABwS1KLrlGK1muHLDU9HbVFaNe/2O1DXdmAmsSjcAEAANBaUouuBtrDP9PsjcBbrx2l2nXydqTInshfrQAAAKC9JA4TMdDX/umm9w7+RMRNqK5U2ufftr0EAAAAdOFsAjsmIreHa/lg03sHXx9tE6ojmT2x/VAAAABoLYmVdpFoOVhL8/b04NCegU2oS5eWZXHxou1lAAAAoAvzZ9+2vYRA0U5GlU3N3mvSLq+7PmGG1hgAAADEbXHxoixdWra9jAZRo3Czk1EbQnthrjgc7STUbj/ZW2xCBQAAcFsSi7CRzyoqn4zaeN+A15qOmgnFkdBOPzsAAIDbkliEjdp1okVuCnq9MbQ3SfdhuXIS6vx88nYcAwAAILwknrkTudCuQ4b2Zuk+LFc2oS4tJa8HCgAAAOEldTNqtJNRgyfINIb2Juk+TZLY/wQAAIDOJHYzarSTUVVhrjhc/2JAaG8+H7IdV1pjktj/BAAAgM4lsRhrYJpiwx7TmtC+luq7fkrEnyp6Jon9TwAAAOhcEouxkSN7wB7T+pgdaXKMKzPaFxYu2F4CAAAADEhirou6xzNoj6lXd0WkyTFuRHaRc0yOAQAASIXFHycvtItEmyITtMe0JrRrkfd1f3s3JsfQGgMAAJAes7Nv2V5CIBWpnK3z9a/UhnYtH4pwdyck8VcoAAAA6F4S812UvZ5aS1/9a3W30+/p9uauTI5J4g5jAAAAdG8xiaE9YuN4Ya44Vf19faV9U7c3diSz0x4DAACQMomcIGM4G6+H9sJc8bZId3IktCfx1ycAAADoXhLzXdSpilrLp6u/r660745yY1faY5gcAwAAkC5JnCBjIBrXHHi6Edojjnt0QRJ/CgMAAEA08wktykapttePfVwP7VkY95jETQoAAACIZmlp2fYSAkVskKkZ+1hdaf9gpPs64CybUAEAAFJpNombUQ2OfayutL+325u60s++tPSu7SUAAAAgBpcuJbPaHkVhrjhc+XojtGv9i8GXh+BGZmfcIwAAQEol8SweA4Xtz6zfq+rFru/qSKFdli5RaQcAAEijpRRW2kXL36t86YlEn9Ee9cSnXpmdfcv2EgAAABCD+bNv215Cg6iDWrTIr63fa+2vkWa0u1JpBwAAAFxUDu1Vpfe0op8dAAAgvZLaURFxVvuHKl97IrWl9264MKOdyTEAAADoNVMpOcL0SLdwGioAAEC6JbGzIlob+cYBS5X2mK4PVopS8u8lQjsAAEC6JbKzIkJUrj5gqdIe0/XBSm5EdgAAAKRdmou00dtjHEnts99L3tG2AAAAMCeJoT3qAUuFueKUSKXSrvWN3d7Ike4YAAAAwFmZ2Yh6aSmFp2QBAABgXfo2om6IHNpdOQ313Hzy/iYCAADAnKVLyduIGnVoi9byaRERr9In0/1CIq0DAAAAQBuZaI9ZukRrDAAAQNolcSOqKdHbYxyotM/Pv217CQAAAIjZ4uJF20sIFGmCzNp5Sp5ouSXKIlw5XAkAAABwTeU8JU+LbLO9GAAAAADNZaKn/RI97QAAAJkweyp5B2oqA4k70i1c6Yyhpx0AAAAuqhyC6onI1m5v4sqMdgAAAMBlntbyftuLAAAAANBcJnraAQAAkA1J3MsYaeRj5R4G1pF4HK4EAACQDWncy1iYKw5H24jqSOSfP/u27SUAAAAA3fqMJ6LfY3sVAAAAAJrztJZNthcBAAAAoDlHGlwAAACA7CK0AwAAADHyPKbHAAAAAKkXbXoMJ6ICAAAAsYsW2snsAAAAQKy0lk/THgMAAAAkHKEdAAAASDhCOwAAAJBwhHYAAAAg4fpsLwAJMbhN9Cd/z/Yq7LqyJPLGC7ZXEQMttYOe9MaXqvZ7Nfl5kcuXRKkm16y/XvW+iKj1Z9RepxqeodeWUrcmpWuuqf7MxmV1rwescf3e1X9dv4GuWn/5mTX3FhG/+P/I1VdeESTP++79mFx/8/vr/n6u/bXy9776vbW/ll+v/bOi2vx5rnm9+vqaP7d1f96qnqFC/DPTcO/ANW685g30ycV/8zc11wT+M1LzQvB/robrHXHDR39BPvDRnbaXYdWPD5+XK3/9ru1lwBJCO8remxe56cO2V2HXGy+IeuNPbK+i56r/ta3+4T+X2nDbLCjXh/Nmob3x9Y3QXh+gQzyzzesq4LpQz2warJAU19/8fnnPrww1+fNQHdq1NPyZaBbCO329/plNwnnQ6909s/aHhL/5Z/851H9XafWBj+6UG3b/gu1lWJUbyNleAiyiPQYAAABIOEI7AAAAkHCEdgAAACDhCO0AAABAwhHaAQAAgIQjtAMAAAAJR2gHAAAAEo7QDgAAACQcoR0AAABIOEI7AAAAkHCEdgAAACDhCO0AAABAwhHaAQAAgIQjtAMAAAAJR2gHAAAAEo7QDgAAACQcoR0AAABIOEI7AAAAkHCEdgAAACDhCO0AAABAwhHaAQAAgIQjtAMAAAAJR2gHAAAAEo7QDgAAACQcoR0AAABIOE/bXkEPjGy/yfYSAAAAgK55IiJpD+75gX7bSwAAAEAPjIzcZHsJsfBElyN72oM7AAAA0m8gpcXack87wR0AAABInEo+39iISnAHAAAAEmM9l2tdNz0mpcF9aGiL7SUAAAAAoVUHdpGgkY8pDO6EdgAAgGwY3bXT9hIiqw/sIs3mtKcwuAMAAABJFxTYRVodrkRwBwAAAHqmWWAXaXciakqCe1rndQIAAGBDPu/uuMdWgV2kXWiv+qDLwZ3DlQAAANJvZGTY9hK60i6wi4QJ7VU3cDm4AwAAAEkTJrCLhA3tVTdyNbhvc/QnLwAAAISTH7jB9hI6Ejawi3QS2qtu6GJwH3C4xwkAAADtjWx3p0jbSWAX6TS0V93YxeAOAAAA2NZpYBfpJrR3+ICkGP1V9wftAwAAoDkXDtTsJrCLdBvau3gQAAAAEKekh/ZuA7tIlNDumKT/TQQAAEB6RQnsIoR2AAAApMToroS3Q0foVMlMaM/n3RoBBAAAgBSJ2FqemdDu0gggAAAAdCbtZ/JkJrQDAAAgvdJ+Jo+XpRkwo6M7bC8BAAAAMRjZfpPtJcTKE+GgJAAAALgtP5DySnuWTjjlgCUAAIB0Ghm5yfYSYqOl0tOekeDOBBkAAIB0Gkhppb2Szzc2omYguG9nggwAAEAqJX5Gexeqc3nt9JiUB/dBDlgCAABInXwKJ8fUn6DaOPIxxcGdU1EBAADSZyRlM9rrA7tIszntKQ7uaR+8DwAAkDWDv5yewmxQYBdpdbhSSoM71XYAAIB0SUu+axbYRdqdiJrC4D7CZlQAAIBU2ZWCTaitArtIu9Be9cG0BPe0/CQGAACAMteHjbQL7CJhQnvVDdIQ3AntAAAA6eJyvgsT2EXChvaqG7ke3NM4wxMAACCrRkd32F5C18IGdpFOQnvVDbW4Hd6ZIAMAAJAOrk6O6SSwi3Qa2ju4cZK5/CsUAAAAbHAt19UUvzvI1Z2H9g4fkERMkAEAAEgHlybH1CToDvN0X/dPdTe479q1U56X12wvI1kWz4l64T7bq7DrnUXbK7BOP/eFylcbL6qq9wO+CqSav6+CPq+qv2n3vy064DMt7h1yXSIi+vJym2fDlp9+4zvi3XB9wN/3Vn9Pg/+sqPr366k27we9p+q/DPHnOODPcNP7Q358+LzkBnK2l2HVlb/mf6OCjIzcZHsJoUQJ7CIifVra/O9GCrk+FigWV5ZE3v6+7VXAtr/5gYjEGxeIIujGtR/9xPYSYNmVv37X9hKQQIODmyU/0G97GeFFKHp7Itn7l+jQ0BbJ5x36GwwAAIAGI9tvsr2E8CJ2qXiVxJ614D7CBBkAAACnZWWfopbKRtQMBvfRX3Vn0wIAAAAaubQJtVuVfO7VJ/asBHdXNi0AAAAgWNrznK76wqt5KUPBPQs/mQEAAKSVc5tQO6TrvvAa3spIcM8P9Mvg4GbbywAAAEAXnNqE2qH6wC6i6w9XylZwT/PfbAAAgDQbTWnXRFBgFwk8ETU7wT2tf7MBAADSbnsKJ8c0C+wigaG96oKUB3f62gEAANyUtuJrq8Au0jS0V11Y9Ze0hfeszPYEAABIk9HRHbaXYExNxm4S2EVahvaqD+iGV1IjTX/TAQAAsiAt5+3owG+C03ab0F71QS2pbJdJy990AACArEhDi3MngV0kVGivu0HKgnsa/qYDAABkieuHKtVk9BCBXSR0aK+7UYqCe9o2MQAAAKTZtpFhpw9VCs7o7VO111nwTmePDH3tAAAAbnC5SyJ4w2m4UO3VfK7zR6YCfe0AAABucLVLIsyEmFbW22OyHNxd/okNAAAgS8bGd9teQve6DOwidT3tWQ3uo7t2Sj7vbm8UAABAFjjd0txlYK9c7YnWgW9kjau/agEAAMgK91uauwvsIpVKe0Bwz1p4J7QDAAAk29jYR2wvIYLw6Tooi2+0x+jGG2UpuDvdHwUAAJBy+Xy/jGwftr2M2AXmb63r5rRnOLgPDW2RwcHNtpcBAACAAHsyUGBtFthFgg5XynBwHxt3+VcuAAAA6ZX2aX+tArtIsxNRMxrc6WsHAABIJrf72VtrF9hFmoX2yoUZmywzNr6b0Y8AAAAJs21kWPID6cxoDfk6IIOLtArt1R9sdeOUodoOAACQLHsnx20vIRaBgb0JL1QIz9BISKbIAAAAJEva+tkDs3SLwC6yVmnvJrinVZr7pQAAAFwzOLg5VaMew/SvB1lvjyG4l+UH+mXbSHr+YAAAALgsTdP9ug3sWup62gnuZWntmwIAAHBNWnJZlMAuErARNXRwT3F4p68dAADAvrS1xtToILCLiHhBnfCh43hKc/vQ0BZaZAAAACxLU2vMupDF7/orvGbvpDSPh5aWX8UAAAC4KnV5LGSnStBVXs3QmYDgntXwTosMAACAPalrjQlZXW8cBVn+i9fwSsD9shjcaZEBAACwJ5WtMS0Eb1Td+NILfIfgLiIp/JUMAACAI7KUw1oH9vIXDdNjCO4baJEBAADovdS1xrQQJrCLBIb2qgsyHtyHhrbInjGCOwAAQC9lpTUmbGAXaRraqy6MMhIyBai2AwAA9NYd+ydsLyF2gRtOmwR2ERGvdQDXgV8G3yqdxsay8ZMeAABAEmwbGZahoS22lxGbVhNiAr5Z5zX9cNCts5LUq+QH+mVicsz2MgAAADIhzRtQ27fDNA/bNe0xoaruGQzuVNsBAAB6YzKlob2T/vX6S7QE9LQT3BuNje+WwcHNtpcBAACQanvGdkt+oN/2MnojZGCvCNyISnBvtPe30vlTHwAAQFKkuTVmXZsNp83eaTo9JvQG1YzIxB8iAAAASwYHN6d/al+IDafN3vFa5W+C+4ahoS0yOrrD9jIAAABSKfVdDSE3nDZ7x2v5btvbZkvq/zABAABYko2uhlDzGgN5rQ5RCveI7Ng7OS75fEY2RwAAAPTI6OiOVM9mL+u8ur7+pl7vaW9+iFLoG2ZENn4KBAAA6J079u+1vQRr2gb2NV7tq+0nw2Q9uGfhWF0AAIBeycQG1CbCBfZyRg+YHkNwb2VoaIvsGcvmHywAAADTsrpnMHxgL/OCP0Bwb4UWGQAAADP27ctWa0zbIS9NZrh7jS/VXcj4mAackAoAABDdxORYdk5AlXAbTptd6QVeF3RrgnuNLG+YAAAAMGEyQ90LYTec1l9Z+a6hpz04uLdvl8maScY/AgAAdG10dIeM7tppexn2tTh0qfq7gI2oIdplIPmBfnrbAQAAupTVDag1WrTD1L8SGNqDP1r1Kn3uIsL4RwAAgG4MDm7OdvGzTf96UMz2Op8QQ1qvGBraIhOTY7aXAQAA4JRM7w1s0b8e/EqZ1/JdabVBlfAukr0xRQAAAFHk8/2Z2oBao03/eqt07YVteSGiBxvZPiyjoztsLwMAAMAJd+yfyNSYx3UdtsPUvKnXe9rDjXYkuAe757dvt70EAAAAJ2S7S6GLwL7Gq32Vk1C7Mbprp2wbGba9DAAAgETL2mFKtboN7OWMHjA9JlxwJ7zX2sckGQAAgJbuOUB3gkiILB3QSuNFGe1IcN+wd3JcBgc3214GAABAIk1MjsnQ0Bbby7CubX5u0vvuNf9wuD53bKC3HQAAIBhV9nAbTptd6QVeF/RpgntbVNsBAAAaUWXvrH+9/i0tASeitm2XQUtU2wEAAGpRZW8h5CjIwBNRo/S5Zx3VdgAAgA1U2Zto0w5T/0rTE1Hpc+8e1XYAAIAyquwBdNNvmrxS3R4TUEFv2+eOQFTbAQAAqLIHCtG/HnR945z2bqruaEC1HQAAZB1V9jodtMPUv+iFTekE987snRyX0dEdtpcBAABgBVX2OhECu8h6pb1Jb0yYG6Ipqu0AACCL8vl+mZq6y/YyEqi7wC7ScCJq+6Z2OtrDG921k2o7AADInDv2T0h+oN/2MhImZP96k6Z2r/H9KO0yqHff/fyUCQAAsiOf75d9+/baXkaiha2uV15sOFyp0+CO9ka2D8vE5JjtZQAAAPTE3Qdup8reQjeBXaTliaj0xpjCzmkAAJAFg4ObZd/+CdvLSKTO2mFqA7tI0MjHhs9SdY9qaGiL3H3gs7aXAQAAECvagjvQpuQefCJqk4/QLmPOvn17JZ/nV0UAACCdRkd3yNj4btvLcEObdpjgE1HbhG+Cuxn5gX657/47bS8DAAAgFlTZQwrRvx7EW7+ixVUt+9wR2t7Jcdk2Mmx7GQAAAEZNTI7JyHYyTksd9K8HfdarfyHccwju3Zqi2g4AAFKEg5S6FTJZr73Z2NMepV0GbY3u2skISAAAkBqMeOxG6/71ustERMTTUv6/hgtCtcugG/ccuJ1NqQAAwHnbRoYZ8diRkO0wARd4G693ttGU4N69oaEtcgd/wAEAgONo++1EB+0wAb3vdSeiMiGmV+45cLsMDm62vQwAAICuTEyOyeiunbaX4ZRO2mE2Xiq/GHAiKsG9Vx56+KDtJQAAAHSMzaed67QdpvzSxotNTkTtvM8dnWNTKgAAcBGbTw0KyNhBWbzpiaiVDwTeGMZMTd3FplQAAOCM0dEdbD41pU11vZrXflIMwT1OnJQKAABcwsmnhnQQ2EWqK+1tgntguwyM2Ds5LqOjO2wvAwAAoKW7D3yWk0+jCtkOU/+Z0CeiVm6IeDz48EHaZAAAQGINDm6Wew7cbnsZbuuwul79Ga/zg5UI7nEYGtoid/MPAgAASCim3kXUaWCvy+Re0w902i6DyPbtn6BNBgAAJM4d+yaYyW5QmHaYel2fiIp40CYDAACShLYYs8K2w9R/JtyJqIT3nqFNBgAAJMlDDx9kJrshnbTD1H8m8ERUqu520SYDAACSgLYYczpth6nP5E0PVyK420WbDAAAsGnbyDBtMb0QcoOq19XBSoT32NEmAwAAbHroEG0xsWrTDlPPW/9Q0/vRLmPLvv0Tsmdst+1lAACAjOEQpZiFaIepF+pE1MqN6vm+H3pt6M5Dh2iTAQAAvTM6uoO2mDh1ccCSUupc44moHVTdSz7l9rjlB/rlwUMcZgAAAOKXz/fLgxyiFI8O22GqP6NEzTWeiFq5oOUzCeu9NDa+W+7YN2F7GQAAIOUePHRQhoa22F5G6gR1p3R6wFJXJ6I2/Qxic9/9d8q2EXrLAABAPCYmx2RsnL10cfDrulO6OWCp5kTUhhu0nRRDcO8l+tsBAEActo0My9TUXbaXkXqhqusNcbz8f57nqdX6NwJvEKD+pwbEa2T7sNx3/522lwEAAFIkn+9nvGMPdFNdrzlcyVPeUqibBiT/EtNjem7v5LhMTI7ZXgYAAEiJuw/cznjHmPk6WmAXaXMiKvPZk2lq6i762wEAQGQTk2Oybz/DLuJWKpWC32jRDlNDyULT0F79wcAHiIhu91MDYpEf6Ke/HQAAREIfu2UdjH/8jV0fOLZxImqb+exBDyqt0h5jC/3tAACgW/Sx91ZNnbubee0i4tW83cHBSrBv7+Q489sBAEDH7rv/TvrYe2i10h7TJKyHmdfueZ56uybwdzifPWhYPHrnvvvvlNHRHbaXAQAAHHHHvgnZOzluexnZ14R0VQAAIABJREFU00V1vfptT4n6WcPrIdplKg8pMfbRusNPfoH+dgAA0Nbo6A7aay2obynvaF67UlokYHpM2HaZ9QeyGdW6/EC/fO2Zh20vAwAAJNjg4GY5/OQXbC8jk6rzcifVdS0iuZz3MxERL6is3km7zOpqkxE26KmR7cPy4KF7bS8DAAAkUD7fX/7NPBtPe666lTxsYA9qevGUUudqrmr8XNt2GSQDG1MBAEAQNp7aU/J1R+0wza7ylJK52k80vUfgXVZXV9uvFj3DxlQAAFDt7gOfZeOpRW2HtrSorouIKJErIiJe47vBH2lWdaelPXkOP/kFTkwFAAAyMTkm9xy43fYyMq1UahLa21bXyxd4nvqhSGUjauCVLYJ71TerzY5lhTX5gX45/OQDTJQBACDDOPE0GQIr7Trwy+AL1ni/sfvmI80/EW6TKrPak2doaAsTZQAAyKh8vl++/szDbDxNgIac3KYdptmrXs1bTT/dul2madkfVjFRBgCA7Mnny6OgCezJsLJadRpqiHaY+peUUn8pUjWnvf189uabVAntybV3clx+f4pDFAAAyIrDTz7ApJiEWJ/P3k11fe0lJfK3ImuhPZfzLjfcKGS7jIhIifaYRNu3f0ImJsdsLwMAAMTswUP3yuiunbaXgTWrq6XOq+tVF1e/64mIKKWuBlwXul2GA5aS76FDB2XP2G7bywAAADFhtGPylEp+59X1upCvlHpdZL09pvP57NVXrNIe44SHDh1kFCQAACnEaMdkCu5GCV9dFxH5jV/9wHmRSnuM5/2g0/ns1VdorWmRcUB+oLyTnOAOAEB6TEyOyUOHDtpeBgI0dqOEq65XKKXWX/KkQbj57PVX+FTbnVAJ7sxwBwDAfcxiT7aVmtDevLre5F3J5dTPKl9XetrPNb1D1Sutqu4rq6tNF4xkyQ+sjYIiuAMA4KxtI8PMYk+wjQNIO2uHabhgTSW0zzVe3aZdpu4b+trdMrJ9mOAOAICjCOzJt7rqS6ftMPUXeJ73duXVSnvMQvNPhtukurJCpd01BHcAANxDYHdDqRQwXbHD6roSqW2P+c3dNx/rZj579We0z2ZUF41sH5bDTz5gexkAACCEfL5fHjp0kMDugJpNqN2chlr248oXNRtRO53PXn9piXntThrdtVMePHSv7WUAAIAW8vnynjROO3XD+n7Pbk9D1SKe5/2Xykvrob2vL/dOww07rLqvrBDaXbV3cpzgDgBAQhHY3bKystp9db32MwuVlwNGPtbdvIOq+0pQ7w6cQXAHACB5COzuqUyOiXoa6m/uvvlY5e310J7z1Nstbxei6s5mVPcR3AEASA4Cu5tWVkpdVderv6w+WEmkutKu1M+6mc9e/ySCu/sI7gAA2Edgd9e1wDzcvrpefUUu5/2s+tL10O556lvBHwl4TIuqe/Ai4RqCOwAA9hDY3bW6WhKt68Ny56ehKiVXqr9v2tMedj57PU5GTQ+COwAAvUdgd1ttFu7+NFTP835Y/cp6aP/47m1Hgu/Yej57/dsrK6sBP13AVXsnx+WJLz/AAUwAAPQAgd19G9MUo52GqpQ6V/1OXaVdNcnbnVXdaZFJl7Hx3ZycCgBAzLaNDMtrr3+VwO64aysr0m11vZpSMlf9fU1o71treG8e3MNV3dmMmj4j24cJ7gAAxGTbyLB8/ZmHOenUcYEdJ13Oa1ei3qz+via0K8/7yfrHdavw3uJRWuTatZXAJcFtBHcAAMwjsKfH1foM3MVpqJUM/pu7b/529es1od1TUgz6YPADmlfdSyVfSiU/cGlw28j2YXnhm4dl2wi/ugMAIKo9Y7sJ7Cmyvgm1y+p6JXdf15d7p/69ukq7+stWiT/4gcFLoNqeXkNDW+TrzzxMcAcAIIKJyTE5/OQDBPaUKPm+rK6WIlXXK5RSV+qvqQ3tor7f6jGdVN2vENpTLT/QL19/5mEZHd1heykAADhnYnJMHjp00PYyYNDKtdVI1fVqnqd+2PBa9Tcf/8i2Y403b7xxmKo7ox/TLz/QL1979mGZmByzvRQAAJzx4KF7CewpdO3aSqTqevW15e6XWg2HK/XlcpcbH9Jd1f3qVartWfDQoYNy94HP2l4GAACJls/3y4OH7pW9k+O2lwLDtNZNuky6y9FK1N/Wv9sQ2pWnfmbiJwSRgB20SK17DtzO6akAADRROTSJwJ5OwYXq7jtWPv6RxkNPG0J75cjUqL04IlquXrtGi0yG7J0cl689c4iRkAAAVNk2MswppylXW6juJC9Xrt/geV7ggUeNoV2pvzSx67WCFplsGd21U77GZBkAAEREZHR0h3ydwJ5qWuuq0N5pdb3xjVzOuxh0dWN7jFqbIFN1jyhV96vXrgV+Guk1sn2YkZAAgMybmByTrz3LDPa0Kxeoo1XXK69o2eh6qdcQ2msmyLQdDN/koVU/UVy9tkKLTAblB/rlxW8eZrIMACCTmBCTHUEF6k6r67rqC081To4RCQjtIgETZEK1yzT/6YIWmex66NBBNqgCADKjvOH0EBtOM6K2NabyWuCV0qq6vv6NVHW91AkM7bmc+nGru3Zadb985WrTTyD92KAKAMiCbSPD8sI3D8vorp22l4IeqS5Mh50M0/BqXZ5vPDepLDC0e553umldvYuq+7WVVSmV/MCrkQ2ju3bKC988TJ87ACCVJibH5OvPPCxDQ1tsLwU9tHzliohEr65XXNfX906zZwWGdqXUdO2tmz8t7IQZqu0YGtpCnzsAIHV+f+pOeejQQTacZkyp5MvKSslIdb3Cy6m3mz2vSaVdvd74iOZV99ZLK79z5SpTZFBGnzsAIA0q/ev79k/YXgosWL58JeDVzqvr1Vd4Sn2v2fMCQ/tv7t523lNBg927r7qXSr5cWwmcFY8M2js5Li+8dFgGBzfbXgoAAB0bHd0hr73+VfrXM6x+A2qosN6mKu956j80e15gaBcRyfXlLnbSnxOm6n6FFhlUGdk+LC9+88uyZ2y37aUAABDa3Qc+y/z1jLt6daVqv2abMY4N31S/WPvGxz8yErgJVaRFaO/LeT8Q6XAnbJuq++UrV5nZjhr5gX45/OQD8vtTd9peCgAALVXaYe45cLvtpcCyy1crhejo1fWKvhabUEVahHal1P9Rc2tDVfd3l4P6f5B1+/ZP0C4DAEgs2mFQUSr5cvXqNTFVXRcp5+yc573d6rlNQ/snPjpyJOiGUavuV67SIoNglXYZpssAAJKEdhhUC9qA2m11vTpbe17zTagiLUK7iEhfX93JqFUPCF5I+/C+8dMJ0Cg/0L8+XYbDmAAANg0ObpYXXjpMOwzWaa0bxpiHC+vBgb2aUs03oYq0Ce05z2s8GbXqQZ3MpawO7u8GjsgBNuydHC+fKje6w/ZSAAAZNDE5Ji9+88sysp1DAbHhytVr6/sz249xDH4jKEMrpfQnPtp8E6pIu9Ce895osYr1BwcvsHnV/drKqqysllreFxga2iJfe/ZhufvAZ20vBQCQEfl8vzzx5Qc4LAmB3l2+3EErTPvqekVfX+5n7Z7dMrRvlOnbB/dOw3vwQHqg0T0HbpcXXjos20aodgAA4rNnbLe89vpXZWycUcRodPXqNVldH/MoHYf1VgMUc2tTG1tpGdo/8dGRY6JU26OTqhfU5J2GVy5fvlo13xJorbxJ9TBVdwCAcfl8v/z+1J1y+MkHqK6jqfX27g42moq0DuuVz+U871vtrlLt5qb/6X96a+HatZVBERG18bF29xXV9JKNN/I3bJL8DZva3guoNn/2vDz26LNybv687aUAABw3OrpDHnz4oAwNbbG9FCTYtZUV+bufXmrybrdhfeOz/+TXf6VtuG5ZaRcRyXnedxqXFK7q3m6j6rvLV8TnsCV0iKo7ACCqSnX9a88+TGBHW5cvN5t82HkrzMbnyhflmkxrrNc2tHvKm25+0mm3LTPlz2mtZZnDltAlet0BAN2o9K7v2z9heylwQKnkN4x57HSjaeNnN+7Ql8v9MMyn2rbHiIi89hd/tXFRVfG+to7fXcuMUkq2bH6feM37aYC2njv6qrzy8klZWlq2vRQAQELl8/3y4KGDbDRFR37283erQnv0Vpj6u9yw6b2HP/n3t/9Bu0+3rbSLiFx3Xd87NU8xWHUvV9tD/VYAaOqeA7cz1x0A0NQd+yaYDIOO1VbZu99oWl9dr/7G87xvhFlLqEr7ib/86zcuX7k2HnyHmr9I0HeBH6uu2FNth0Ez02/K448+S9UdACDbRoZl6v47ZXTXTttLgYPKVfbgVu4o1fXKN319ucuf2vPfhhpZFKrS7nnet8KcdNrtRlWq7TBpbLzcq3jHPnoVASCrKhtNX/zmYQI7ulKusjcG9k43mrY6jClsP7tIyEq7iMhrf/GDqgubVMQD+93DVd2ptiMO82fPy9NPvSizs2/ZXgoAoEcmJsdkauouZq4jkp/9fKlhA2qnG03rXmpwQ3+4fnaRDkL7v//2//XTlZXVG9uG8QgbVQfymyR/A/+AwbwTx6fluT9+VRYXL9peCgAgJqOjO+Se376dyjoiu3ZtRf7unZ+vf2+iFSbo+oF8/00f/8hIqINnQof2E9/54evLl698WiRkGO8ivCulZMv7b5RcLlTXDtCRpUvLcuzYCabMAEDK5PP9ct/9d8reyeDtd0Cn/u6nP5drKyuxhXWRSj/7LaGr1aHTsafUyx31r+vAL4OvrbyjtVx6lzCFeOQH+tenzExMjtleDgAgony+X+4+8Fl57fWvEthhzLVrKzEF9to+91wH/ewiHVTaRURe+4u/8rXWquMqeofX/9Lm91FtR+xmT52R5/74VfrdAcBBE5Njcs+B2znNFMZd/MnPZGV1tc1V3VXXq7/K92+6/5N/f/uRsOvqKLT/6X9869zVq9du3vi0BH3Z8F2n119//XXy/vf9Quh1AVHMTL8pTz/1Iv3uAOCA0dEdct/9d8nIdk7DhnmXL1+Vd36+1OKK6GG98s3t//BDHU1f6evk4lzOe0NENkJ75emq5su1NwLWUfVy7RW13127tiLXrq3I9ddf18nygK6Mje+WsfHdbFYFgARjkyni5rdt0+4usAdde/311y12ur6OKu3/53+Zv+3S0nIh+E6BXzZ8F/b6XM6TX9r8vtBrA0x57uirbFYFgIQYHNws9/z27fSsI3aXlpZl6d2gc4PMVdcr+je991t7f+2Dn+lkfR2FdhGRb83MLa+uljY1v2Pglw3fhbn+FwZukBv639vR+gATmDQDAHYR1tFLpZIv//XiT+teNR/WKwby/Xs+8dGRb3eyxo5D+5/9p7dmr1y59uHWdw38suG7dtcr5ckvbeHAJdhDeAeA3iKsw4af/PTncu3aStUr8QX2XM5b/cz4rR33gHcc2k/+5x9OLb17+SnVLIDX3D3wy4bvWl2/adN75MZfGOhojYBphHcAiBdhHbZcuXpNfvrOpbXv4gvrFe997/Xf/63/bsdoR4uULkK7iMhrf/ED39daiYj0Iry//32/yKZUJALhHQDMIqzDJl9rufiTd6T0/7d3pkFylGeef7qOrKyruwXCI0dshDwLwgiMQQLvcAhJHLbHAhmJS+DYCOw1H+bDbASxuxNj5oiJidld7NjZGSJ2PuwHvDvEztoIhCRsgw8uSWDPeIxOMMxweFHYQ0vqq+4zK2s/VGd3VlXe+b6Zb2b9f/5AV+b7Pu9b3W3lr55+8sleb/UYL1nXyOXkb+664dOPOd/lAE/S/v033vmg1e5cOizXNvLuQ9yTyQT91vqLXO4SAL6g2wwAAHhny5bN9MCDu2j7juvD3gqYYAY3nw6ScGNGzFjY+9SnxNRU/95br/H0MCJXLR81Vls/DrVw7FuLu2V7yLVXRuN7PZWqtQYVC46f9AoAd3bduYN23bmDXnzhKO1/+of0wftnw94SAAAIzy3br6d9D34JrRtB6HQVxVjYOWTX+yuD0unUeRdbHMJTpv3H//j+xkq1/tFwJP2XfEpmLrl4ltIpT58zAODOyRPv0P6nf0ivH3sz7K0AAIBw4AmmQDQWFkvU0T/5lKOsa+PzOfnbu2684hEX21zFk7QTEX3v9V/OtTvdDeMRtf/4EXfjI+lUii5ZP+t4jwCEwdzcPH37yQP0+tE3UfcOAJhoNmxYT7vu2kH79u2iQhF/LQfiUK011h6kZKnC7ISdiGi6mP/UF//NJk9/mvcs7S/87J8ONZqtPcZR9V+yzbrPFPOUz5u3iQdAFGrVBr3wwlF65ukXUfcOAJgotmzZTLvu2oGbS4GQ9Ho9ml8skdrvB5Jd10ilks29O672/OnVs7T/6OfvmT8ddTW6/kt28n7JxbOUTqNMBkQHlM4AAOJOoZCjW3ZcT/v27aJNl28MezsAmLKwXKZOu2tylr2sa+Sy8uE7b7rC1VNQ9XiWdiKig0ffavSsno5K5F7cx+aMn0CZDIgqc3Pz9OILR+nFHxxF9h0AEAsu27SR9j34Jdq+/XMogQHCU601qGpYuupd1gfDrIWdaPAU1N/9nctdPQVVjy9p/8HP3j3UaLb2uM+i+693LxZy6CYDIs2xo2/SsWO/oB++cCzsrQAAgCuQVQdRpNtVaH6xZHCGX3Zdw29pDJFPaf/Rz9/bVqnVV0tkgpX3KZTJgFig1b6/+MJRtI0EAAjNLduvp+07rketOogk8wsl6uq7xQQg6xrZbObwXTdt9lwaQ+RT2okGJTKKoqyWyHgrgfEm78lkki65eB0lEg7XBEBw3n/vLL34wlE6dvQXKJ8BAAjBZZs20q47d9D2HdejXSOILOVKneqN5sor/qUwo+OnC3lfpTFEDKRdK5EZC8wj6z42hyiXlWl2puhsLgAR4uSJd+iFF46idSQAIHA2bFhP23d8jnbduQPlLyDytFodWipVKAxZJyJKpVLNe3yWxhB5fCLqUIBk8r9Tn/aMP9B0sFHnT0l1MF6bM7X2Zb3ZIklKUy4ru947ACKzZeuVgycG/ula/TsEHgDAC4g6iCOq2qdS2Z+we5V1DSmd+rH9LHt8Z9qJiA4e0ZXImD7QlF+9e2JqitZfhPp2MBlA4AEArICog7izsFSiTmfQ3pG3rI/NWYFFaQwRI2n/wc/ePdRo6EpkghT3lTnpVIrWXzSL+nYwUZw88c5A4lEDDwBwyGWbNtL2HdfT9u2fg6iDWFOt1alaawRaCjNKKplq3rPTf2kMESNp/9HP39tWqdbHH7QUsLzncjKtQ307mFDef+8snTjxDr1+9Bd08uS7YW8HACAIhUKOtmy9krbvuJ62bL0SN5OCiaDVatNiqbJ2IGBZ1w7ncrLvrjEaTKSdiOjQ0beXu92u8ROPApT3dbNF1LeDiadWbdCJE+/QsWO/oJPH30EWHoAJ47JNG2mrTtQBmCR6vR5dWFgmtd8PXtZH5k8X2ZTGEDGU9hd+9k9P1hrNr5tqtR9xH5lvN+cT69ehvh0AHXNz83Ts6Jt08sQ7dPLEO6iFByBmbNiwnrZcdyVtXbmBHdl0MKmoap8Wllb6sQdYt240PyNJ5+7eftUnnUW1h5m0//Dn722sVOsfrQY2XdHssLusu9WcxNQU/dYnLkZ9OwAmaKU0kHgAogkkHQBjlstVajRatuPGxJtBKcwo+Vz223fedMUj9pGdwUzaiYgOH3t7rt3pbNDbNW95NxufTqfoE+vX2ccCAND7752l99//aCDyKKcBQDi0cpdNl2+EpANgQq3epHKlZjuOdd260eHE1FS/UMj99pd+53JmjzpnKu0v/P0/PV6rN76xEnptEdPVLTbGQN5zWZnWzeLGVADcUqs2hiT+/ffPIhsPQEBs2LCeNl3+Kdp0+cbVTDoAwJp2p0sLiyXLMbzq1o0Oyxnpw7tvueoy+1Wcw1TaiYiefeWkqvb7I88tHf1qdBdmh/3Xu+PGVADYMDc3v5qRf/+9s/T+ex8hIw+ATy7btJE++clLVgV906ZPUaHIpDscABNDt6vQwmJpcOOpATzr1o0P96mQz33zzhuveMzZas5gLu3fe+OXJ5vN9rWD6ENLGXw1uhuzw/7kff3Fs5SR0s5iAABccfLEO/Tee2fp3Nw8vf/eRzQ3Nw+ZB2CEDRvW0yc/eQltuW5Q2rJp06fQIx0ABqzeeNpVxs6FIetERMlkUrnv1muYiyfzFiupVOqbRO2niWiw91V3XnsxdFiP9s6nRg/3Vw7byLtuvn7O0lKZ1l+MJ6YCwIMtJn++P3niHaqulNnMzc3TuY/nUWYDYo0m5psuH2TLt269kgqFPOQcAI4sLZfHhD0IWR8/tfZKSqfedraqO5hn2omIDr52ptFVlOzwSsYvgqh3JyKS0mk8MRUAQXj/vbNUq9Vpbm6e5ubmBzX07300OAexBwJSKORo06aBfG+5bvAhddOmT1GxmKMNn7wEN4YCEALLpSo1mmudYph2hLGYbybr2pfTxfwtX7rh00x6s+vhIu0/+Nm7T9brza8br2j8Igh5T6dT9FvrL7KfAwAQgpMn3ln9+oTua73ka1RrDfrgfWY36YOYsmXL5vFj1639pahQyNPlusw4bgIFQEwazRYtl6pEJI6sExFJ6XRp786rubQv5FIvkkwm/2IqMfX1vmrwrsdKZoiIpswqY0xLZgan+q5KZrpdhZZKFbpodtp6DgBACPTCBHkCAABARNRqtWm5VPUk64Nh/uvWzV5KUuo5Z7twD5dMOxHR86//8oNmq30pkdMs+pT5KQcn3NysOl3I03Qx72w8AAAAAAAQAq1TTK+vrh0MoW7daE4iMdW///YtCWe7cQ+3wKlU8m+0d9Qnk+/H0InhUabfP5Ng/ZX/2dInqlTrVG/aPy0LAAAAAACIQa/Xo/nF5TVhNxXMYUwd0WL+uJX2Lef0iUjKSKftd+MdbtJ+541XPJFMJhWTtzyMibxb/ix8yvvycoXa7Y7tOAAAAAAAEC6q2qeF5fKgF7tfWSfz+W5lXR8qnUr9e/tdeYebtBMRZTOZpwZfecmiu5B3w8P28r5o0CYIAAAAAACIxfzSMnU7ChtZt026O5d17ZSUTpV2cegYo4ertCeTib9ITE31/Ym4gzmW31DzH5yq9ml+cZlUoxtmAQAAAABA6CyVKgNht8G/rNPwKxfZeElKc7sBVYPbjagazx97e/WG1MGKQ8sbHzYeMjaKVZvIdDpFl1y8Dj3cAQAAAAAEYqlUoUbD+j5E/+0bR4647CKTmJrqP3DHVq6JcCLOmXYionQ69cdDB8ay6Gtf8b5ZdXBq/FNYt6sg4w4AAAAAIBC1esNS2L1k1mnssLObTK2y8bKcOWa6SYZwl/ZdN16xX5LSpaGDvkXc382qg1PDP+huV6HlUsUsEgAAAAAACIh6o0Wlcs3wnB9Z93qTqdWcVCr1J8az2cJd2omI0un0c26y6M5FnK28N1ttWoK4AwAAAACERr3RMkykBi3rTuZk5cyHvG9A1QhE2nffvPmRZDKp8BNxdvLeaLQg7gAAAAAAIWBU+SCirGukUqm/MY7EnkCknYhIzqR/SuRAqodeOBRxL3Ms5L3eaFKlWjebDQAAAAAAGKPdY6jBXNaJmM5JpVLNO2+64gnjs+wJTNpTqdTDiQT1baV67IQDEfcyx+ZkuVqjeqNpNhMAAAAAADBC3xSEm6wbzBs/7HxOJiN9x3gnfODe8lHP4WNvDbd/DKzlo4N1TE5eNDtN+VzWahYAAAAAAPCIJuw9VTUfZKGrptJtMW/8sLNsvEYymVAeuH1L2nxX7Aks005EJKXTXx3PiK99ZZ9Ft/wMZTJn+IDbzPtSqYKMOwAAAAAAB7pdhS4sLpkLu+PMOtGYeDsSdvu6daN15Iz0U+Po/AhU2nfdeMUbckY6ZyfihvieMzzSjbxD3AEAAAAA2KKqfVpYKhk/J8e1rFuL9/gp53NGIyQSU/1UMvWw8Qx+BCrtRERpKf0tY/f2kg33N8fNPIg7AAAAAAAbVLVPFxaXSOn1hk8IJOtmczJp6Ve7bvz0WeOZ/Ahc2u+6afMTkpQumVSvDL0QTd4h7gAAAAAA/tCEvdtV1g5GQNa1LyUp/VXj2XwJXNqJiDJS+jkiy+qVobMiyfvSMsQdAAAAAMALY8IepKwT+Z4jy5kPd914RSAPUxolFGnfffOVjySTydWPVxYOPXTAVsS9zPEg7xB3AAAAAAB3DAl7GLJuMM94LfNlpXT6j41X508o0k5ElMtKT40es5d3k1OWc/jIO8QdAAAAAMAZq8LeUQSW9fG19OMkKV2686Yr9hvvgj+hSfvum696JJlMKEbnzB3aYTacqbybz4O4AwAAAABYo6p9urCwIuwGGNudOLKuIWekPzfeSTCEJu1ERLls5imrn4YY8m49D+IOAAAAAGBMt6sMhL07LuxepNvvPMOBDj4jSFK6dNdNm58wjhwMoUr77puveiQxNWX7UcqNvNsHGD7AQt4h7gAAAAAAw5gJexiybjjPIIRZhLCz7EQhSzsRUVaWj1mJuB4TfyYzmTYMwEneIe4AAAAAAAM0Ydc/OElkWbdKG4uQZScSQNpT6dTDicTUmgGvYvwttPDnoRdhyPvicoWqtYbZbAAAAACA2KMXds2UoijrGrKUCT3LTkQ01e+b/zEgKA4fe/tIvdHcMaU/ODU6auyAg2FT5uMcBvEyL5/L0sXrpq1mAgAAAADEDk3Ye+qoX/YtX5qfYjDPcYjxgZKULt1327XrzFcNjtAz7URE6ZVsu3WVjJPPQqMHAsq8j6xXbzRpcbliNgsAAAAAIHbUG02au7A4IuwGme6gMus0/qUjYdcNlDNiZNmJBMm0E61l2/XHzDPv5vlvp9l6Lpn3kQH5XA4ZdwAAAADEnvGEpXmmexTmmXVXy5sLfkagLDuRIJl2orVsu/6YeebdYRUSp9p1p3PrjQadu7BAqqqajQYAAAAAiDRrwj5iSQ6y4zxr3e0z6+MD9XNEyrIuWEnZAAAgAElEQVQTCZRpJyL6/k/f+U6lWn/I7HxomXebQHZZeymdok+sv4gSCWE+IwEAAAAA+GZxuUL1xkgTDsfZcYMjIWbW9YiWZScSKNNORLT75iu/kkomjR+XRc5q143m+M682wSyy7x3Ogqdu7BInW7XagUAAAAAgMiwuFweFnbH2fGRI4xq3b1k1omM54iWZScSTNqJiLLZzFNW5y282+is9TCDeW7KX9zIu6L06ML8EsQdAAAAAJFGVVU6d2Fh8HwaV8I9coRR+YwfWTeal5HSpbtuDr8v+yjCSfuXt131SCqRMM22azCRd5t57uXdOmuvqn26ML9E9ToewgQAAACA6KGqKl1YWKJOR7EtZRk3KueybnjEeRjLgXbVFSJm2YkElHYiomxWfor6fSIH9fZiyfvwAaMPn6raH/w5CeIOAAAAgAjR6Xbp43PzA2E3wWl23HreyBFX0u1d1omIstnMhyJm2YkElfYv33LVI5KULhERxUHejU4vLpdpcalsFg0AAAAAQBiazRZdmB885XQUN6UsZnMNjwQo64OBfcqk0191MjQMhJR2IiJZzvz5sD/HT97rjSbNLy6jJSQAAAAAhKVeb9L8YmlM2C2F23iAs7khyDr1+5TNyh/eedPmN5xMCQNhpX33zVc+kVnJtosn732bKGNDx0Zrr5rN9sonV4g7AAAAAMRicalMi8vDlQGOhNuRrI8MDknWiYimEol+RpJudzItLISVdiKibFberX8tjrwPH7D95bAR/3ZXoX85N4/OMgAAAAAQAlVV6fz80qBDDBm5uLVwj2JZsxCirGtzctnMsTtvuuKsk+lhIbS033XT5jdyWfnD0eNhyLv50HF5t82+GxxQ1T6dn1+iGm5QBQAAAECIdLpdujC/RO12xzqrbvDSaKQTWbd1KE6yTkSUSiaVdCr9sJMQYSK0tBMRZSTp9kQiYfizCFLe7Yda/lo62oTWWWapVLF4BwAAAAAAfGi1OwNh7yq+Zd3JXHvhZivr2jw92az8lOhZdiKiqb4D0Q2bw8feOlKrN3fYjZsaejFlNsx8jrMDDodOmZ9yECyXlenidTOUSAj/uQoAAAAAMaBSq9Nyqao7MuKINso4frpvetJe1D1vQzdw/KPDKOl0qrnvjq05pyHDJBJGuGf71TtTyaS7By65zLw7zaBbnjEMNP5nGCfBGs0WnccTVAEAAADAGVVVaXGprBN2dylt41oDL9lx68F+Mutm83JZ+Y+chBSBSEg7EVEuK/+lEwkn8ibv4/No5CfsVd6HD4x9SLAI1ul26fz8IjWaLUf7BwAAAABwg6L0BvfUNZrkpQTGVI0ZybqtNw2FcS7rRESynDm3++YrhXyQkhGRkfYv33LVYxlJKnmXcLHk3TrS2km116f5xWUqVapmIwEAAAAAXNNqd2jugta9zpklj5/iK+uOcCnrRESJRKIvS9L9TpcQgchIOxGRnM38nn8J9ynv5jY/Ns/pXNtfrj5RuVyj8/OL6OcOAAAAAN9UavUVr3BmyW5k3T47zl7W3Wbkc3Lm2F03i/sgJSMiJe27b75yfz6XPcVGwj3OGw80etbDXGe/cK1Wh+bOL6DOHQAAAACeUFWV5heXablUcZxVH08zGtu5vTT7masPMy7rbualkkkllU497HSaKERK2omIJCm9R2sBKaa8W2ffnR4wi6QoPZo7t4B+7gAAAABwRafbpbnzC9RotJhl1Y3HG801tvMgZV2bl8tl//KumzYL3+JxlEi0fBzl+dfffrJSrX999LiXlo/M5jk74GK4fcvIQj5L62an0RYSAAAAAJbU6k1aLpXXymEMGD/TN31pb4/mc53N1w8eTmr6mZeRpNIDd2xZ5yaMKETS9u6+5TOPZCSpNHqcaeadc7tI++H2pTO1epPOX0BbSAAAAAAYM2jnWKLFpZKhsHMtgRl5aV2TYBSKTWZdPy+XlXc7DSMakZR2IqJsNvN7ZufYlb94FX+zA07XtT6gf9Xpdun8hUWqVOuO9gkAAACAyWDgCEuGJbVsS2BGRrgWfX2Y4eQpS8kv5HNHo3bzqZ5IlsdoHDxy5mS90bzWbhy78hdRSmfGD0zRylNUL8JTVAEAAIBJp1KtD2421eGm/MV4POv5+sHjHyG8zDWbl0omlYe+eH3aTVjRiLTdSenUHl5PSh2b53uu7QFf8/tEVG+2aO78ArXaHUd7BAAAAEC8UFWV5heWh4Sda1bd03x9qGG34lU+k89n/8BpWFGJdKadiOj5199+vFypfWMqjAy6i3nG61qetZ5rE3B2ukCzM0WnWwMAAABAxGm1OzS/sESq2nedVTc55DiGa5v0mln3MC8rZ87dd9u1n3S6hKhEOtNORHT3LZ95LCtnzvX7fXL6AYRd7brzecbrDgUzGjE21Gn2vVSp0bkLi6QoPcf7AwAAAEA0WSpV6PyFReqNCbuzrLj93/4Z1KsTGWbHHc33mJFPJBJ9OSPd4GaLohJ5aScikuXM/au921fk3YnAM5f3sEtnRj4AtNpt+vj8PHq6AwAAADGl0+3Sx+cWqFKt07jSGos2jb80gEMJjM+bS93O7ff7lJUzT99185WR68luROTLYzQOHX3rULVW32N0zmnpDNsbT1mWzhgecDU8l83SetykCgAAAMSGSrVOS0M3m1qXwPgpf3E2fzScxxIYH3P1XpvJSKV9d2yNZE92I2JjcHt3XL03kxnv3U5EwWfeXc41nm97wNn8lYONZpN+M3eBGs2W4z0BAAAAQDwUpUfnLiyuCLtgWXUiX9lxr3NHXS+RSPSj3JPdiNhIO9GgYb5WJmOEW3kfK39xgOlcv6UzfdMD1uvrDqqqShcWlmhhqUSqqjraDwAAAADEoVKt08fn56nVbpMT0bZP9/EtgfEi627mmrldPpd9fvfNV0a2J7sRsSmP0Th45MyRWr2xw8nYUDrOuJxrPN/2gG2MVDpJ6y+aJTmTcbUXAAAAAASPovRoYWl5uK2zp/KV6JfADKaaj5bS6eaDX7gu52YrUSBWmXYiont2fnanlE47uvMylI4zLucazx896PzztIbS7dG584u0tFxG1h0AAAAQmLXsesdn+Uu0S2AGU+3dLZ+Tv+Z0K1EidtJO5P6HFbS8+y2dMRR48wOWMSrVOv3mY9S6AwAAAKIxqF1foKVSmdSe6rL8hcZHjEzyXMLCoATGYHc2U525WiGfO7p721X7nW4pSsSuPEbj4JHTR2r1pqMymVHclM0QsX7gks/5xkEdxcllZVp/8Sw6zAAAAAAhU6nWqVSuDv01nEX5i/M4+gk+SmB8znfjqXEti9GIrZ3ds/OanZKULnn5UOIm807EJnuuW5xj9t06A19vtug3H1+gWr3haG0AAAAAsKXT6dLH5+aHyledZaSdlb8EXgLjMSvv1sUSiUQ/k5HuczwhgsRW2omI8ivdZNz+4DXcPKiJiHHpjMv5hjGcGf0QPVWl+cUSzZ1fwNNUAQAAgIBQVZVK5Sp9fG6eOp2uy/IX83oXz6IeYgmMF2fL5+Tn9+64+kXXEyNEbMtjNA4dPXOoUh1+6JLb8hevc9l3jXG/b2eVMuZxZ2eKtG6m6HpdAAAAADij1WrTwlKJuo6SZfb1Lp7MLiIlMEZzMxmp9ODnr4vNQ5TMiHWmnYho747Pjj10yeunOLdzxzPfPktfXM43jjF6wPQgERGVylX69cfnqdVqO14TAAAAAPYoSo/Ozy/R3IVFG2G3SKGbJ9ntYZVVD6gExmhuIpHo52P2ECUzUmFvIAjyuey13a7y/1RVHUopa78oXjLvbudqv5Kro7Vf0oDmG8fQnRw7uBZXUXo0d2GRclmZLl43Q6lU0vGaAAAAABhnuVylSrVu03bZPoUetaz6YLq/zLqeYiH/rd3brorVQ5TMiH15jMbhY28/Xq5Uv2E3LiqlM9xiGAde/SqRSNB0MY+SGQAAAMADrVab5pdKFveNCSrqPmOwFHWNrJw598AdWz/pOXDEmBhpJyJ67rVTJ2v15rVOxgYl70S82j7yrX9PpZJ0yUWzJMt4oioAAABgh6L0aHG5bPJclGDq1D3FESirrieVSirTxcJlu2++8qznBSLGRJTHaEiStEfqKO92ut2s3dgols74iWEYx6J8RlEUmruwSHJGoksuXoeSGQAAAMAAVVWpXK0blMJwEnWi0LPqg+l8ZF2jkM/9wSQJO9GEZdqJiL73xi/3LZcqT7ud5yfz7mV+tMpniGZnpmmmmMeDmQAAAIAVavUGLZerulIYZ7UuUSx/GUz355RO5xcLuaP37Lxmp6/FIsjESTsR0cEjZw5Va8NtIN0QpdIZwxhM46x9mUgkaN1MkaaLBdexAQAAgLjQarVpuVylVrtDQYo6qziiyjoRTUx7RyMmMi16z87P7pXlzLkg2j76ncul7aM+jgvsukWqqkqLy2X69cfnTGr2AAAAgPiy1sJxgVrtNlm1aDQ55AyTBxgF2u6R2PiQ26eeTkp7RyMmqqZdT07O3NDtKr9SFCVBFEztutFcN/NNa98HQVzFWI3jIYZhHN1Bpduj8/OLJGcytG6miJtVAQAAxBpVVVdaONaGT7DKqBOxKX9hECfIrPooxUJuYto7GjGR5TEazx97+9HlcuWv9ceCLH1hMV+k8hmzWIVCjtbNTONmVQAAALFicJNpbfgmU46i7jkWA+EPU9b7/T4V8rlT99127RZfm4g4Ey3tRESHjr71o3Kl+sXR42EIuJ/5fOvW2Qg85B0AAEBcqNUbtLhcHsh6BETdS5wwRV0/X5LSza988XM5X8FiwETWtOvZu+Pq381m5XOjx73UWhnN94rv2vdBEEZ16+7r6I1i1WoN+vW/nKPlUsXmCXAAAACAmNTqDfr1x+dofmGZ1N6wsPuuUfdbp66P5SNO0A5jNFebn0gk+oV87gueNxMjJramXc+gvr37gaL0DL8fQfZsN5vvJgbfuvW+6zijsUorj26eLuZpZrqANpEAAACEp1Zv0HKpMvYkU1+5ZEHq1Ach/Fde8OjNPl3Mf+vLE1zHrmfiy2M0nn/9bcf926NWOkPEuW7dx/tJJhKQdwAAAMJSqzVouTws6yKKutdYopTAGFEs5I/ee+vk9WM3A9Ku4+CRM09WqrWvOx0ftrx7jSGiwCcSCZqBvAMAABCEUVmHqLONYTdfzkilB79w/UT2YzcD0j7CMy+f/KDeaF7q1j1jI/B+uucwiAV5BwAAECaarHdHymBcw0rUGcWKgqhrpFJJZaZYuGz3tqvO+lowZkDaR/j7dz+e/dXZf/m40+lmidx7Z1TlnYizwLuMl0gkqJjP0cx0Ad1mAAAAcKdWa9BSebxm3RWCifogTHRknWhw4+nMdOGhu2/5zH5fi8YQSLsB33v97W3L5eoxVe0PWaYbhw1Tvv3GYFk+wyJeEa0iAQAAcEBVVSpXalStN7zJOqv2jIzjiSDqbmNoQ2emC9++Z+dnH/G9eAyBtJtw+Nhbjy6XtAcvDQtmFLPvXuOIJPD5nEzTxQJl8YRVAAAAPlCUHlVrdSrrH4rklBiLOos4bufrhxfyuVP33z7ZD1CyAtJuwcEjZ54sV6ojN6auCWbQ8h52DFEEXpYzVMznqFiY+OcsAAAAcIGi9Gi5XKFqreFuoqCiPggVvaz6YPzwazmTLj30xc/hxlMLIO02PPPyiQ/qjeal42cmN/tOJIbAp1JJmikWqFjI4aZVAAAApjRbbVouV6nVajufFHNRZxHHr6hr34FUKqnMTBcv+zJuPLUE0u6A//ujf2xoN6aOE668s4rhJ04gAm8REzetAgAAGEVVVao3WmM91k0x8SGIuv8YZrJONLjxdHamiBtPHYAnojqgWMhvLleqJk9M1X7xBkLp9oGhXp54yiOGnziWT04dBHO3j5HXdjFVVaVytUblao3yOZkK+Tzlc7KrNQEAAMQDRemt3lxqW6/OOpvOOGaURX0wZ+zI2JjpYv5bEHZnINPukOdff3tfqVz9rqqqDgw0Ptl3P7FYZ+BNYxrERekMAABMFvVGi8rVmnUJDI9sukncsEWdVSyWWfVRpouFw/fees1e97uaTCDtLjh09MzjpXL1G85n+JP3wRwIvKuYBnGLhRwV8jl0nQEAgJihdYGxbNkYAVEfhIt/Vl1PPpf98IE7tl7meqEJBtLukoNHzjxZKle/7t43w8++s4zjJ5bbmnVWcZF9BwCAeFBvtKhWr1O90Ro/GaCk+40rkqh7ieNW1DXkjIROMR6AtHtg/0trHWWClvfBnPgIPBGfLLxd3GIhR7lsFrXvAAAQEbRa9XqzOZ5V51Gbzilu1EV9MGfsiOO5kpRuFvP5zV++BZ1i3AJp98jTP3lzrtFsb9Bee3NMMQSepbz7jReowBNRKp2ifDaLzjMAACAgWgeYcrVGnU537QSvbLpJbBGy6azjBZVV1zM1leivmy1uv/uWz7zhejJA9xiv5LLyDUqv9+6gFeSUx2Yp/jrPDOb0V+YE3zWGRzzbTjSDoO73NPJai6B0FSp3q1SuVEmS0jQzXaR8Tkb5DAAAhEi90aJGs7n2EKSAJd1v7LiI+mDO2BFP83WtHSHsHkGm3Qffe/3tjaVK7QNFUVY+/PjPnIuSfWcZh1U8Xll4o9j5XJZyOZmKhTyT+AAAAKzpdLpUrTUGrRp7xjeVMjMWgcteWMcLQ9SNYqybKX5z787PPuY6EFgF0u6Tw8feMmkF6Ve+WXwAmDCBHwT2FXc0fiKRoHxOplwuS/mcyfO1AAAAeEIT9XrDuPsLT0lnET9Ooj6YN3aEyfzZmeK379l5zSOeNgVWgbQzwFzcieKWfWcdi1U8nll4LT4EHgAA/DMQ9TrVG+M3lDI1Ek43p4oq6l5j8ciq62MUC7lT99++dYvroGAMSDsjDh058/hyuWLTw51t9t1bDLEFnkVM3ll4IqKkTuCzcgY18AAAYIGZqPOWdFZrxF/Uifxn1cdj5HPZD/d9/jr0YmcEpJ0hzx05PejhbjtSjOz7YF68BZ4oGIkvrNTA53NZCDwAABBRvdGkRqNJzVZ7VdQnVdJZxwyr/MVNDAg7eyDtjNHEnchCFoeAwAcdk7fES1Kapgt5ysoZkqQ0k5gAACA6g/aMTWo0WtRstUlV1chI+iA8RN15DOs4kpRuFgv5zXff8hn0YmcIpJ0D+186/kFt5eFLGmFk373HEV/gWcW1jMAgfiqVpKycoTzKaAAAMaTT6VK90aR6o0ltfR91Flj4iajZdNZx2Yk6Ec+suv6sJKWb0xB2LkDaObH/peMf1OqNS0fFL6zsu/c4Yt54yismb4nPyhmSVyQ+gyw8ACBiKIpCzVabWq021RotUlWVXXDOkj5YQuxsup94YYm6fgSEnS+Qdo6siruGa4FnU/bCLk40BJ5lXJ4Sn0gkKCtnVjLxMqVSeNYZAEAsVFWlZqtNzVbbsNuLLyIq6Tzi+onHovzFS5zRs4mpqf5F62Z+G8LOD0g7Z8bEnciDvI+PgsCHE5unxGulNINaeAmZeABA4OglvdlqU4dlyUuEJZ1H7CiKuuGIfp8SiUR/3cz0Q3t2XL3f00aAIyDtAfB/XvyHRqfTNW7s7TP7bhDCIezKZwZzJ0/gV+OZL+Qrrj4TL0lpysoZX/EAAGAUrdyl2WpTu9ONnKQPlplUUScK4qZSw7O6IBD24MDf4wNguljYXKnW3jUUd+0Xf0XwtP8bmOue/v86U0MhdGEcwCrOSjTdZBZSPPoPG0vRZh179B+z1WhG/zK6WEvrxFBvNFeP6QU+I6VRUgMAcIU+g651eGFCQII+WCo6ku43JitRN47lLauuB8IeLMi0B8Tzr7+90VTcRxGofMZfLLFvOg0qfhB18XqRR4caAAARrcp5u9OJbBZ9sBRfT4Go24wweS8Q9uCBtAeIK3EnMhQ6CHxwcXnG5y3yGSlNsi4bj/p4AOKLqqrUXsmcK4oSaUEfLBc9Sfcbl6+o28cynmI+B8IeDpD2gHEt7hoMsu8GYdxsgGGsaNWsBxU/iHaTqVSSUqkUZeUMpVe+BgBEA03OO50udRVlJYveDaztIhEknWXssEXdcISD9wNhDw9Iewho4t7udLPe7iGNl8AP5kczC89zHduIDJ/gmk6lVv6bXM3Mo8wGgHDQas3bnS4pikKK0mMv50SxFHTe6/iNG1VR14CwhwukPST04k7kVLxHYFQ+YxLK6SYYxtLmRzcLz3sdR1EZrq11rJFX/qu9htQD4B1NwDudLvVW/qtJOnMxJ3IkZbxMIOqSziK2kKJuHsyURCLRn52ZfmgvhD00IO0h8vyxtzZWqvV3293hUhkIvH5+NEtdgl4nqKz8KKlUktIrJTaa2OvLblCCAyYFTbpHv9Yy5ZqccyeE7Pnw8tGXdBbx4yLqWhwtww5hDxdIe8isinunk/VW9mKA5zh8Bd5fPG1+PCQ+iLWCzsrbod0gq6HV1+t3IFlk8PEBALBGL9dGtFpty/HdFSEPhRCz52tbCM4foinpRH5+Cl4foOSn/MUoDoRdHCDtAjAk7hqxEnge8bQY8ZH4oNYTTebt8L0Tgd4LCAi/AsZoG0wQQM4H2wj2uxLEeiJl081jhiPqGompqf662emH9u74LIRdACDtAvH0T978oFZvXDp00HPZy+gkP3Eg8EGuEdaajlcRVIKZ7krQ9ziRMLxGCXu1c/geg9p/GF4QBUkfxDA8Gko8luUvRnESiQSEXTAg7YJhKO4aEyLw/mNqMeIp8UGv62qlCMluIDuN0PeDC7xLGrhGZ4yL70WQ7yssB4i2pBNFXdQNY+nipFMpZXq68G8h7GIBaRcQS3HX4FQ+4y4Wj4w5nyz8IE48bjoVad24Cr0V8XgXYhGbq5CgYr66ZowFneU6wZS9OI8ZlKhrZCSpOV3Mb757+9VnPS0CuAFpF5Tvroi7l/rjOAs8m7hanHhLfNjrs/or0KQh6ndg4q8UrMoOAiDs63rUblDlkU03jyuAqFvEgrCLDaRdYA68eurJ5XLl60Tebx6Mj8DzjBvPG05F3wPL300AfMFShgJEhOt3VG9Q5ZFN9xs3LFHXyEhSs1jMb94DYRcWSLvg6MVdI+oCbxLSJfHIwoe9phGi7IPIZ9ZZoPcBQiImXWREuk7HS9KJ+GTTnccNW9S1eYV87sOHvnD9ZZ4WBoEBaY8AB1499WS5Uvt3al8ds5BoCbzxaF5ZeHaxtViTl43XI9p+NJjtStD3B3SwEjgmUdgj2vU4qoI+iGV6JvTYooi6BoQ9OkDaI8KhI2f2LZUq31XVFXE38AsIvP0uoizxYa9rhYh7MoL7LiPyfQgFdJIhIvHEnCg+N6gGL+o+bzz28f699mUfHTVTLBx94I6tOz1vBAQKpD1CHDpyZl+5Uvu7rqIMPxZyxBO89tvmUYoQfhkN79j6eOEJm+jSLPr+7Ij27qNF1K9Iol9Tw9xf9CXdeWzz6eGLunZg3ez0t++77dpHPG8IBA6kPWIcPvbWxkqltvL0VPt0eygCbxDPfUx+N50GJfGDmBB5J0Rpr6yIwzuexKtHlK6ZcRL0QUzTMxzjh5dNN4zpU9SJiBKJRH92pvite2+95jEfWwMhAGmPIIePvbWx0Wj+Q73R3LB21N7WvQq8q7lc4vGW7GDKaQbxwlc1EfbghajuG0SHqF4PRdh3fCTdXXyhRd3gYCIx1b9oduahvTvx0KQoAmmPMN/58S8+qBs+hClaAu8+ZnwkfhBTDBkVZR9+icv7AOyIy3VOlPcRrKATiSTppqNZlr24iOfsjwODAxlJak5PF9DSMcJA2iPOs6+efHK5ZNbL3ZmtQ+C9rcF+HX1cscRTtP2wJM7vLa7E+bol2nvjtZ8gJN16HZ/ZdOvg3mIyFfXhg7KcWSgW8tdD2KMNpD0GHHjt1OOlcvUPVzvLUAQFnlnMoOrVg6uLX4stplyKuq+gmPT374VJv+6I+v557itKkm46mkfff46irr0q5HMffuWLn0NLxxgAaY8JB4+c2VeuVMc6yzjOZUdA4L3FDVfi+aw1Gl9caRR5b3HCzfcZ/+YHg+jf5zgIuvVaDCTdegHvcTmLuv7Iutnpb99/2xZ0iIkJkPYYcfjYWxvLq51lxomswJvE9RY7fInns95o/GjIclT2CcAoUbl28t6nffjJknTT2AGKOtGgQ8y62en/cO/Oa55wtDCIBJD2GPKdH//ig5rhDaprhCXwrua7jO0tbpBlLuGK/GCN6ElyFPcMok0Ur4tB7DloQbde0/1agWbTXcRlJeoaGUlqFgv5r92DDjGxA9IeU555+cShUrm6x4nJBiLwRBHIwpvP4ueN4Yv8YJ3oi3Ec3gPgSxyud0G9hzAE3XpdcSTdNLaLuKxFXSOfy57L57I34IbTeAJpjzHPvXb60eVS5a9Wb1AVXOBdxwgkdhi16mKI/GCt+IpwnN/bpBDn61eQ7008Qfe2ZuCS7jI2L1HXmCkWju77/HU7HW8IRA5Ie8w5dPTMtkql/pOxOnfOAu9wCd1gTll4k9je44d1w6k4Ir+25uRK7yS/d9ZM8jUojPcelqDbry2WpLOI7+6PBt5EnfprTzi977Zr8YTTmANpnwAOHz2zsdFqvVKrNS71miK3UFWvhywW45iF5xJfTJHnv77d2hBbv4T9PcT1wR9hfv+cLR2WoHtbW3RJN43hwt7d/tgyktQsFlG/PilA2ieIQZ17Zc/aEe92HVgZDRHfLLxJfH9rhNf+0W791REC+HTYQgqAX0S4foYt56srcGjzyFvSWa3Bu+zFbGA+Jw/q13d8FvXrEwKkfcI4eOT0vqXl8nf1D2IaEI7Au1hmZTDnLDy3NcQXeSIxZF4DUg/CRqTro/OtRFPQLWdGQdJNT7AVde3g7Mz04Qfu2LrXaSgQDyDtE8iho2c2Vmv1U81We9avcDsb5tzWWWThPcXxsIa/dUSqUY+e0OuB3AO3iHrdc9yYY1UAABHkSURBVLetaHeRsfZ+sSTdNA7rshcHC632X7/1WvRfn0Ag7RPM0y8dP1KuVHdor4MReHcxJ0fi7WcH76bOF4ySN0Py40eUrmMiivnqahxvUo2FpJueMB7NStQ1ZDlTKhby1+5FOczEAmmfcJ577dSjy6XKX/VGymVYC7yrmP6XWpnAS66DXEvU+vR4Cr0VkH3+xOV6JLKYE/Gvgw9K0FmvFVg23cVi2pGZ6eLRB9HOceKBtIOhchmj88EJvLu4UZV4NuuJlpUfWt39jAn24Sh+GJjk64a3ty5yFxl/e7MPHzFJNz3hM5vuIq7+SBLlMEAHpB2sMlouY4TfbLm7Ye7iCi3xNuuxWVPUrPwo3jYhxt5BnPF+OQz/OhpEF5mgBd12Ta6Sbn7C/z3BzrL0spxZmC7kr0c5DNCAtIMhDr52el+pUv27rqKk7MayyJb7juv+sMXCAUu8zZrs1o3ijaY+bvEV6n0AEfB3mRPnGhlkB5kwBN12XdEl3XSw+7jr0B0GGABpB2McOnpmY7PZeqVaa1zKpWbdpVSxyu57crkgbmx1uCb7taMo83oYfieEfY9gFLaXLDGvf0G3dwxL0C3X9rCmt06UPmvTTSd4i5uRpOZ0Mf+1e3Zeg4clgTEg7cCUA6+efLxUqv7h6k2qAd506i6ut9gsJd5zPAbrsl8/rjeZ8ttstL4P4cL/khONa1pYN6sKKege12Ul6baxfMR2E3e6UDgly9IelMMAMyDtwJKDR05vq9Ua3ze8STXA1o9MYtvEZy3xnmMyWpvP+u4iRl9mI/8GIky0r03uL60B3rC5OigkQfe4dmiSbjqBTc17MpHoz84Wv3XfbVsec7stMFlA2oEj9r98/NByqbKHiGgq5NaP7mN7i+9Z18LKxjtYf3UIn4Xdz5hIJ47jm56864goXWTClvPVJTisL56kG5/wk6XP57Ln8vnsDciuAydA2oFjnnvt1L5Krf6/2+1OVjvGR+AtzkRR4onCF3mbPQwN47cBb7Pi6LhAaETrIuM8cxvM9ZyHoNvHdXeC3WcqPuU0icRUf3Z2+lv3I7sOXABpB655+idvHikZtIY0FPjBCcfwzMJbT/Fm6zyy8b7ieiF0mWezCuQe2CF6FxnR5JyIXw28N0E3P8n2Dx98bk7trxzMynKpWMjtvmfnNW+4DQsmG0g78IRR1l0PP4G3OBNliScKsazFakEXN6Vy3AaPlSD50Yfd5UuADPXY4GCvzbzLbKIm6a7XMBnc151IJhL96enC8/vuuA6tHIEnIO3AF2ZZ91H8ltFYDw9C4m3O8hJ5IrGy8kMLiyj0wa0M6fcP38tPONc2kcV8dVnbAf72xVrQbae5nsSv7r1vEgXZdcACSDvwjV3WfRQWWXjr4WJLvMetjAQQMCs/tLiHm1I5bMM7Yu2GKJgPCWJeDsTZlDdxDG//Qdykav8BwNvJqEj64LB5pGQi0Z+ZKf6vB27f+ojb5QAYBdIOmLH/peOHKpXa3T1VNfVyI/hm4S3OMpd4mxG8RZ5IfJnX8GigQuzdNdHctX+idW3xfu9p+O8zqA4y/gTdekAQku5pHRfZ9FHyuey5Qi53w96d6AwD2ABpB0w5eOT0tmqt8f1ms7XW192vwLuMYT+cncR7XovNaedEReb1+EwtC/d+QOD4vroJdn0M8kZV4QTdciJfSR8cdh4pnUop08XCX95/OzrDALZA2gEXnn3lxPDTVPXEXOI9r8fmtDuE6hzjEcZ1I0K/1wmG6ZVK4OteGB1keAq6o+muJ4ol6fqh08XCqayc2YPsOuABpB1w4+CR0xtbrfbhcrV2LRGrMpgQJd7DOs6n+Tf1MGSe+bpBENAdpJH7vnAgsKtLxK5jYd2s6qyMxt8A9oJufTIUSTeIk8lIzeli/mv33nrtfrdbAsApkHbAnQOvnny0Uqv/V9uHMg1OOMaycF5wiXc2lY2pM5dHl9IbK3lFyxh+xOha5F4k2b53NnJuP8jXrkOW9MEpb9l0PYnEVH96uvD8g5+/Hm0cAXcg7SAwnn7pzbUbVUfgmoX3EMt+Slgi72CUw/W56eckS71fRP5QgGvFKqJ0kXFeSuM/UiQE3Wai32z6aJxiIf9hLivffs/Oa1AKAwIB0g4C5eCR0xsbzdYr1Vr9UrMx7EpgBJF4j+u5m84u5c5dGyeqcwyIEqJ2kGEn584G8RN06wFsO8iwl3SNTEZqThfyf3TfbVuecLcAAP6AtINQOPDqyUdrjeafDXWZMUFUibefFrbIu1hEFKEnQtcYwJwodJFhK+bOBjJ5Vx6z6J7XD0HSNbSe6/vuuA4910EoQNpBqOx/+fiT1Vrja91uN+FkPNs69mjecOp/Dy4WYnpvAGMYlpJA9KNDVLvIsKzFdjuQv5zbD+BxgyorSXcSa6ZYOCXLmT0ohQFhAmkHoXPwyOmN7U7nqWq1vt2wRaQF7Etggm7/6GAEI6Pk0g9GZKkfW5zv6hB/e7hfbUR/+qjnCc4GM3v3YQm6zWTXkm4Rz2msbFYuFQv53ffuvOYN94sDwBZIOxCG546c3tZstv7Wqt7djsAk3mM851ODa9bO7bZR5vcNhITIN4fGFQGvS6xLOfwMZvvXBn8DhBJ0i5hu46FuHYgIpB0Ix4FXTj5aazqrd7cjKhLvbHrw/R2594HhVoYUAeLwYSAG1w8+fcX9T2L+nQ27xaNNAJZZdM/xiCidTinFQv4p1K0DEYG0A2E58MrJR0uV6n/rdpUUuxIRHnXsYYq8w1Ec/NB9yPAMPQZ6DBwSTP02m4lcrr4idJCxCcA6i+4r5grJRKJfLOaPZSTpYdStA1GBtAPh2f/S8SertfrD3a6SIiLGpSEBS7yPuO5DhCPz/sJyb3IfdkjgkPCElu1kbldYUeTcQRARJV3P7HTxaCYDWQfiA2kHkeHpn5g8nIl5SUicRd7FSM7GGorYcwwl4HKBEviVJNjCbv5b8LVAgDeqRlzQ9WsVC/kPs1n5q/feiptMQTSAtINIcfDI6Y2tdueparW2XVX7xg4UAYm3jesztrcwfG8y9QKbZThuNs4Wzhuulx7/wQO7Mka4i4wvmQ5B0jUg6yCqQNpBJNHLu5Z559Gu0TgcP9m2je0zvvdQYvd2ZL9cxGzczXYj908+2w2L/xeBgMXcYTBegu47tov1CoXch7ms/NV7b70Wsg4iCaQdRBojedcISuIt12K0prgy73FhAZw42C0I8IYDI9hrSuhXsCh1keEt5w7WYC7oFmtqaxULecg6iAWQdhALrORdI0iJt1yP0bqORJ7BOv7Dxa+vo8BbixxCX4Gi2kXGYcBICrrFuqPrQdZB3IC0g1jhRN41eLZq9LQmo3XDknl/YcXqGiMiQbzNibkaBNxFJtwOMozkWTBBt1oTsg7iCqQdxJKDR05v7HaVP63UamutIm0IQ+Jt12W4dtgy7z984HfmgqgQ1J2XvJf3uQAzcQ5L0G3WtlsXsg7iDqQdxJ79Lx1/0o286xFW5BmvL4rQs11GqD8lACsE7iQjWhcZpsIcRI27x/Wdrjt4KFLhmIw+62ACgLSDieHZV04+Wq83/qzRbM1y6bcegMwFlZV3tSbn9YNdTiAjF2ErQl0eJquLTFAdVbiu6WIPbtdOp1NKMZ//gZROP3rPrZB1MBlA2sHEceDVk/uarfZ/qVbrlw6diKvIrw0Mb22OexBzeRGMWxSCucaEfiULW8pd7IG7nA8WYb9+nyiTkZqFfO47+z5/3SPeggAQXSDtYGI58OqpbZ1O9z9Xa7XtvZ7BTasCP/2UyT7WBoa/h+FJQiLotmKFsFcjDxsLq6wksD0ML8RnH7ppxWL+QzmT+Zv7b9/yhLdgAEQfSDsARPT0S8efrNcbX2m3O1nTQRF4+qkTRCp38ST1a5Njh8hvKZZXCl/PCwqvlGR8aIA/nQCfkppMJvr5XPYfs7L8n+69DTeXAgBpB0DHM6+cfLTdbv9+RVc6Y9M30jNB32zqBJGEfngpJr0wQdxh0tlQHAEeHhrwtTrEp6RmMlIzn89950GUwAAwBKQdAAOee+30xna781St0bh5tOuMrfvxfmhSSPIZhfp1JnJvHBgEBbd23yFc60Soc3e2sM1p3g9hWs2q/0qWM398/21b9vtbEIB4AmkHwIb9Lx9/vNVqf7VWb24wGxO6yDNYww9Rrl3nJvrONxA9Qr5shCa3o4hW626/uIMh/AVdj7ySVU+nUn9xL7rAAGAJpB0Ahxx49dS2rtL9j9Va/a5B9t3atniL/CCE2DKvx7McC7J/O0KX/wggjGzbIXKtu7NNOBgSxFNSjUFWHQBvQNoB8MAzr5x4tN3u/H690fjXw51nwhf5QZjwO8e4xbf0CvRegKD4TiILdr0Msve6R0HXj8hl5VI2Kz83yKpfi6w6AC6BtAPgg+deO7Wxqyh/2m537qzVGyblM2KI/CBU9GR+FKYZbYHfJ7CB6YNBBb4OCvikVCeCrpFOp5RCLvdTSZL+5D50gAHAF5B2ABihlc80Gs0vtqxaRxKRb5F3PMgZonaNYQH3spWIfT+EgHu3xIhd18LqIuMoU+9+RDKZ6Bfy+dOZjPRNlL8AwA5IOwAcOPDqqW2tdvt/NJrNz4x2nzHH3v6ClvlBOPG7xvAANerhEzn5NiPsLjJM5Nx61KBOPfcrSUo/u++O6x5zujUAgHMg7QBw5tlXT+5rtzvfcCfwesSU+bWw0e0cEzRx/iAQG8F2i0gdZAKQcz0QdQCCBdIOQIA8+8rJfe2OH4HXcCZ/jhWRo0vGvWsMiDEeL49cP8A4rnFnHHAFiDoA4QFpByAknn3l5L6uojyo1cBPMZFUxjLverA3fGWgIffALaK3dHRV484h6AjpdErJyvJZKZ1+dt/nIeoAhAWkHQABOPDqqW2Kony1NdKFho3IE7kxW9GEfm0pdI0BBkS1iwwXMXc/2oyMJDUlSTqTlTN/ff/tuJkUABGAtAMgIPtfOv54u9O9v9lqbTQqo2En80TchN7TBHZwrR+H9LODayWJ2E8f9T6c3fvSFCCZTPSzsnxezkgvpFKpv0V7RgDEA9IOgOA8+8qJfV2l92Cn073BvBf8ALYyT+TWTj0tL5AAC32jaBBbE/hyINSNrp5uPg1gEbuIIyHljNSUM5l/lqT0Uw/csfUJ5gsCAJgCaQcgYjzz8vFHO53uw61259P2/eAHsJd5Ii8W6WsbAvu0GUJ/COCMUJLtBs83nwa4mFVEi5BrtempI+k0nkoKQNSAtAMQYZ577dRGRen9Xrfb/d2BxLdXJN7hDalcndJb8ADvxwWTAINLnPcQ/K6vTi7dA0nPnJXS6SOpVPJv77ttC0peAIgwkHYAYoQm8UpPubHd7lzTaLZmx0eJIPSrq4QwM6iAgDnBP3OI22xHKzheYjBQzmSakpT+GJIOQDyBtAMQc555+fijSk/d0el0bmh3uuu73a5Jf3gXN6QGLrj+Fwx0y/gAsIaYDVm4R3G8mqvlhgfnsnIpk5FOp5Kpv0+lkv8T5S4AxBtIOwATxoFXT27r9dQ7tWx8u9OZ6fVUG810eUNqqNLKZ3F4OH84FpNwi2y7suuljSfksnJJSqc/SqVSx5PJxEv3374VbRgBmDAg7QCAMZHvKr2CeUbeCA83pQplweFvJvwd2CPG1UKMXRB5EXIiu/0nk4l+RpLKEHQAwCiQdgCAIc+9dmpjr9fbq/TUHWqv96lOt/spZ1l5I3zUrkfBZleJ1GYDJjrXGn+XReeTc1m5lEqlFpPJxG/SqdThRCLxJurQAQBmQNoBAK7Qy3y/r65rtzvXqGo/s9a5xisM6tbhzMAENpc690HS6bSSTiVrUjr90VRiqgw5BwB4BdIOAGDGgVdPblNV9XpV7X+mp/Yu63aVT6uqKrsvt7GCrZlD9KMH+8uWv4C5rFwiIspkpNNEROlU6vDU1NQcyloAACyBtAMAAkOT+n6ffkvpKTcSEWliT0Rk3KLSL/ytHOLvnGAuOWwWkTOZZiIx1SZaE/JkIvlBIjH1NqQcABA0kHYAgJA88/LxR7Wvtcy99rrXU/+VoigX68ezKdEZBTYeHv6vTVppiv5YIpFopdOpfx4al0od1r5OJpOH0DoRACAi/x+nX++lgCTRugAAAABJRU5ErkJggg==;" vertex="1" parent="1">
          <mxGeometry x="660" y="77.50000000000003" width="49" height="52.34" as="geometry" />
        </mxCell>
      </root>
    </mxGraphModel>
  </diagram>
</mxfile>
